%TF.GenerationSoftware,KiCad,Pcbnew,(7.0.0-0)*%
%TF.CreationDate,2023-03-19T22:54:46+01:00*%
%TF.ProjectId,TinyLlama-Wavetable,54696e79-4c6c-4616-9d61-2d5761766574,rev?*%
%TF.SameCoordinates,Original*%
%TF.FileFunction,Drillmap*%
%TF.FilePolarity,Positive*%
%FSLAX45Y45*%
G04 Gerber Fmt 4.5, Leading zero omitted, Abs format (unit mm)*
G04 Created by KiCad (PCBNEW (7.0.0-0)) date 2023-03-19 22:54:46*
%MOMM*%
%LPD*%
G01*
G04 APERTURE LIST*
%ADD10C,0.100000*%
%ADD11C,0.200000*%
G04 APERTURE END LIST*
D10*
X-3700000Y2600000D02*
G75*
G03*
X-4000000Y2300000I0J-300000D01*
G01*
X-2000000Y4300000D02*
G75*
G03*
X-2300000Y4000000I0J-300000D01*
G01*
X-1000000Y4300000D02*
X-2000000Y4300000D01*
X-2600000Y2600000D02*
G75*
G03*
X-2300000Y2900000I0J300000D01*
G01*
X-4000000Y2300000D02*
X-4000000Y-3000000D01*
X500000Y-3000000D02*
X500000Y3000000D01*
X-700000Y4000000D02*
G75*
G03*
X-1000000Y4300000I-300000J0D01*
G01*
X200000Y-3300000D02*
G75*
G03*
X500000Y-3000000I0J300000D01*
G01*
X-3700000Y-3300000D02*
X200000Y-3300000D01*
X-700000Y3600000D02*
G75*
G03*
X-400000Y3300000I300000J0D01*
G01*
X-2300000Y4000000D02*
X-2300000Y2900000D01*
X-4000000Y-3000000D02*
G75*
G03*
X-3700000Y-3300000I300000J0D01*
G01*
X200000Y3300000D02*
X-400000Y3300000D01*
X-700000Y3600000D02*
X-700000Y4000000D01*
X-2600000Y2600000D02*
X-3700000Y2600000D01*
X500000Y3000000D02*
G75*
G03*
X200000Y3300000I-300000J0D01*
G01*
D11*
X-3757381Y-3598476D02*
X-3757381Y-3398476D01*
X-3757381Y-3398476D02*
X-3709762Y-3398476D01*
X-3709762Y-3398476D02*
X-3681190Y-3408000D01*
X-3681190Y-3408000D02*
X-3662143Y-3427048D01*
X-3662143Y-3427048D02*
X-3652619Y-3446095D01*
X-3652619Y-3446095D02*
X-3643095Y-3484190D01*
X-3643095Y-3484190D02*
X-3643095Y-3512762D01*
X-3643095Y-3512762D02*
X-3652619Y-3550857D01*
X-3652619Y-3550857D02*
X-3662143Y-3569905D01*
X-3662143Y-3569905D02*
X-3681190Y-3588952D01*
X-3681190Y-3588952D02*
X-3709762Y-3598476D01*
X-3709762Y-3598476D02*
X-3757381Y-3598476D01*
X-3557381Y-3598476D02*
X-3557381Y-3465143D01*
X-3557381Y-3503238D02*
X-3547857Y-3484190D01*
X-3547857Y-3484190D02*
X-3538333Y-3474667D01*
X-3538333Y-3474667D02*
X-3519286Y-3465143D01*
X-3519286Y-3465143D02*
X-3500238Y-3465143D01*
X-3433571Y-3598476D02*
X-3433571Y-3465143D01*
X-3433571Y-3398476D02*
X-3443095Y-3408000D01*
X-3443095Y-3408000D02*
X-3433571Y-3417524D01*
X-3433571Y-3417524D02*
X-3424048Y-3408000D01*
X-3424048Y-3408000D02*
X-3433571Y-3398476D01*
X-3433571Y-3398476D02*
X-3433571Y-3417524D01*
X-3309762Y-3598476D02*
X-3328809Y-3588952D01*
X-3328809Y-3588952D02*
X-3338333Y-3569905D01*
X-3338333Y-3569905D02*
X-3338333Y-3398476D01*
X-3205000Y-3598476D02*
X-3224048Y-3588952D01*
X-3224048Y-3588952D02*
X-3233571Y-3569905D01*
X-3233571Y-3569905D02*
X-3233571Y-3398476D01*
X-3008809Y-3598476D02*
X-3008809Y-3398476D01*
X-3008809Y-3398476D02*
X-2942143Y-3541333D01*
X-2942143Y-3541333D02*
X-2875476Y-3398476D01*
X-2875476Y-3398476D02*
X-2875476Y-3598476D01*
X-2694524Y-3598476D02*
X-2694524Y-3493714D01*
X-2694524Y-3493714D02*
X-2704048Y-3474667D01*
X-2704048Y-3474667D02*
X-2723095Y-3465143D01*
X-2723095Y-3465143D02*
X-2761191Y-3465143D01*
X-2761191Y-3465143D02*
X-2780238Y-3474667D01*
X-2694524Y-3588952D02*
X-2713571Y-3598476D01*
X-2713571Y-3598476D02*
X-2761191Y-3598476D01*
X-2761191Y-3598476D02*
X-2780238Y-3588952D01*
X-2780238Y-3588952D02*
X-2789762Y-3569905D01*
X-2789762Y-3569905D02*
X-2789762Y-3550857D01*
X-2789762Y-3550857D02*
X-2780238Y-3531809D01*
X-2780238Y-3531809D02*
X-2761191Y-3522286D01*
X-2761191Y-3522286D02*
X-2713571Y-3522286D01*
X-2713571Y-3522286D02*
X-2694524Y-3512762D01*
X-2599286Y-3465143D02*
X-2599286Y-3665143D01*
X-2599286Y-3474667D02*
X-2580238Y-3465143D01*
X-2580238Y-3465143D02*
X-2542143Y-3465143D01*
X-2542143Y-3465143D02*
X-2523095Y-3474667D01*
X-2523095Y-3474667D02*
X-2513571Y-3484190D01*
X-2513571Y-3484190D02*
X-2504048Y-3503238D01*
X-2504048Y-3503238D02*
X-2504048Y-3560381D01*
X-2504048Y-3560381D02*
X-2513571Y-3579428D01*
X-2513571Y-3579428D02*
X-2523095Y-3588952D01*
X-2523095Y-3588952D02*
X-2542143Y-3598476D01*
X-2542143Y-3598476D02*
X-2580238Y-3598476D01*
X-2580238Y-3598476D02*
X-2599286Y-3588952D01*
X-2418333Y-3579428D02*
X-2408810Y-3588952D01*
X-2408810Y-3588952D02*
X-2418333Y-3598476D01*
X-2418333Y-3598476D02*
X-2427857Y-3588952D01*
X-2427857Y-3588952D02*
X-2418333Y-3579428D01*
X-2418333Y-3579428D02*
X-2418333Y-3598476D01*
X-2418333Y-3474667D02*
X-2408810Y-3484190D01*
X-2408810Y-3484190D02*
X-2418333Y-3493714D01*
X-2418333Y-3493714D02*
X-2427857Y-3484190D01*
X-2427857Y-3484190D02*
X-2418333Y-3474667D01*
X-2418333Y-3474667D02*
X-2418333Y-3493714D01*
M02*
