G04 #@! TF.GenerationSoftware,KiCad,Pcbnew,(7.0.0-0)*
G04 #@! TF.CreationDate,2023-03-19T22:54:23+01:00*
G04 #@! TF.ProjectId,TinyLlama-Wavetable,54696e79-4c6c-4616-9d61-2d5761766574,rev?*
G04 #@! TF.SameCoordinates,Original*
G04 #@! TF.FileFunction,Legend,Bot*
G04 #@! TF.FilePolarity,Positive*
%FSLAX46Y46*%
G04 Gerber Fmt 4.6, Leading zero omitted, Abs format (unit mm)*
G04 Created by KiCad (PCBNEW (7.0.0-0)) date 2023-03-19 22:54:23*
%MOMM*%
%LPD*%
G01*
G04 APERTURE LIST*
%ADD10C,0.203200*%
%ADD11C,0.254000*%
%ADD12R,1.020000X2.300000*%
%ADD13C,4.064000*%
%ADD14C,3.000000*%
%ADD15R,2.300000X1.020000*%
G04 APERTURE END LIST*
D10*
X-23161333Y6577740D02*
X-23161333Y5852026D01*
X-23161333Y5852026D02*
X-23112952Y5706883D01*
X-23112952Y5706883D02*
X-23016190Y5610121D01*
X-23016190Y5610121D02*
X-22871047Y5561740D01*
X-22871047Y5561740D02*
X-22774285Y5561740D01*
X-24080571Y6239074D02*
X-24080571Y5561740D01*
X-23838666Y6626121D02*
X-23596761Y5900407D01*
X-23596761Y5900407D02*
X-24225714Y5900407D01*
X-25949443Y-582973D02*
X-26384871Y-582973D01*
X-25898643Y-873259D02*
X-26076443Y142740D01*
X-26076443Y142740D02*
X-26508243Y-873259D01*
X-26686042Y142740D02*
X-26788852Y-679735D01*
X-26788852Y-679735D02*
X-26844490Y-776497D01*
X-26844490Y-776497D02*
X-26894080Y-824878D01*
X-26894080Y-824878D02*
X-26987214Y-873259D01*
X-26987214Y-873259D02*
X-27161385Y-873259D01*
X-27161385Y-873259D02*
X-27242423Y-824878D01*
X-27242423Y-824878D02*
X-27279918Y-776497D01*
X-27279918Y-776497D02*
X-27311366Y-679735D01*
X-27311366Y-679735D02*
X-27208556Y142740D01*
X-27770985Y-873259D02*
X-27643985Y142740D01*
X-27643985Y142740D02*
X-27861699Y142740D01*
X-27861699Y142740D02*
X-27998376Y94360D01*
X-27998376Y94360D02*
X-28097557Y-2401D01*
X-28097557Y-2401D02*
X-28153195Y-99163D01*
X-28153195Y-99163D02*
X-28220928Y-292687D01*
X-28220928Y-292687D02*
X-28239071Y-437830D01*
X-28239071Y-437830D02*
X-28219719Y-631354D01*
X-28219719Y-631354D02*
X-28188271Y-728116D01*
X-28188271Y-728116D02*
X-28113280Y-824878D01*
X-28113280Y-824878D02*
X-27988699Y-873259D01*
X-27988699Y-873259D02*
X-27770985Y-873259D01*
X-28685385Y-873259D02*
X-28558385Y142740D01*
X-29167986Y142740D02*
X-29342157Y142740D01*
X-29342157Y142740D02*
X-29435290Y94360D01*
X-29435290Y94360D02*
X-29534471Y-2401D01*
X-29534471Y-2401D02*
X-29602205Y-195925D01*
X-29602205Y-195925D02*
X-29644538Y-534592D01*
X-29644538Y-534592D02*
X-29625186Y-728116D01*
X-29625186Y-728116D02*
X-29550195Y-824878D01*
X-29550195Y-824878D02*
X-29469157Y-873259D01*
X-29469157Y-873259D02*
X-29294986Y-873259D01*
X-29294986Y-873259D02*
X-29201852Y-824878D01*
X-29201852Y-824878D02*
X-29102671Y-728116D01*
X-29102671Y-728116D02*
X-29034938Y-534592D01*
X-29034938Y-534592D02*
X-28992605Y-195925D01*
X-28992605Y-195925D02*
X-29011957Y-2401D01*
X-29011957Y-2401D02*
X-29086948Y94360D01*
X-29086948Y94360D02*
X-29167986Y142740D01*
X-29873138Y-970020D02*
X-30569824Y-970020D01*
X-30828662Y142740D02*
X-31002833Y142740D01*
X-31002833Y142740D02*
X-31095966Y94360D01*
X-31095966Y94360D02*
X-31195147Y-2401D01*
X-31195147Y-2401D02*
X-31262881Y-195925D01*
X-31262881Y-195925D02*
X-31305214Y-534592D01*
X-31305214Y-534592D02*
X-31285862Y-728116D01*
X-31285862Y-728116D02*
X-31210871Y-824878D01*
X-31210871Y-824878D02*
X-31129833Y-873259D01*
X-31129833Y-873259D02*
X-30955662Y-873259D01*
X-30955662Y-873259D02*
X-30862528Y-824878D01*
X-30862528Y-824878D02*
X-30763347Y-728116D01*
X-30763347Y-728116D02*
X-30695614Y-534592D01*
X-30695614Y-534592D02*
X-30653281Y-195925D01*
X-30653281Y-195925D02*
X-30672633Y-2401D01*
X-30672633Y-2401D02*
X-30747624Y94360D01*
X-30747624Y94360D02*
X-30828662Y142740D01*
X-31612433Y142740D02*
X-31715243Y-679735D01*
X-31715243Y-679735D02*
X-31770881Y-776497D01*
X-31770881Y-776497D02*
X-31820471Y-824878D01*
X-31820471Y-824878D02*
X-31913605Y-873259D01*
X-31913605Y-873259D02*
X-32087776Y-873259D01*
X-32087776Y-873259D02*
X-32168814Y-824878D01*
X-32168814Y-824878D02*
X-32206309Y-776497D01*
X-32206309Y-776497D02*
X-32237757Y-679735D01*
X-32237757Y-679735D02*
X-32134947Y142740D01*
X-32439748Y142740D02*
X-32962262Y142740D01*
X-32828005Y-873259D02*
X-32701005Y142740D01*
X-3661333Y-26107259D02*
X-3661333Y-26832973D01*
X-3661333Y-26832973D02*
X-3612952Y-26978116D01*
X-3612952Y-26978116D02*
X-3516190Y-27074878D01*
X-3516190Y-27074878D02*
X-3371047Y-27123259D01*
X-3371047Y-27123259D02*
X-3274285Y-27123259D01*
X-4677333Y-27123259D02*
X-4096761Y-27123259D01*
X-4387047Y-27123259D02*
X-4387047Y-26107259D01*
X-4387047Y-26107259D02*
X-4290285Y-26252401D01*
X-4290285Y-26252401D02*
X-4193523Y-26349163D01*
X-4193523Y-26349163D02*
X-4096761Y-26397544D01*
D11*
X-25490000Y3435000D02*
X-33770000Y3435000D01*
X-33770000Y3435000D02*
X-33770000Y8435000D01*
X-25490000Y8435000D02*
X-25490000Y3435000D01*
X-25490000Y8435000D02*
X-33770000Y8435000D01*
X2500000Y-25730000D02*
X-2500000Y-25730000D01*
X2500000Y25730000D02*
X2500000Y-25730000D01*
X-2500000Y25730000D02*
X2500000Y25730000D01*
X-2500000Y25730000D02*
X-2500000Y-25730000D01*
%LPC*%
D12*
X-27089999Y3034999D03*
X-29629999Y3034999D03*
X-32169999Y3034999D03*
X-32169999Y8834999D03*
X-29629999Y8834999D03*
X-27089999Y8834999D03*
D13*
X0Y-29000000D03*
X0Y29000000D03*
D14*
X-17590000Y39350000D03*
X-12510000Y39350000D03*
X-19750000Y26650000D03*
X-15050000Y26650000D03*
X-10350000Y26650000D03*
D15*
X-2899999Y24129999D03*
X2899999Y24129999D03*
X-2899999Y21589999D03*
X2899999Y21589999D03*
X-2899999Y19049999D03*
X2899999Y19049999D03*
X-2899999Y16509999D03*
X2899999Y16509999D03*
X-2899999Y13969999D03*
X2899999Y13969999D03*
X-2899999Y11429999D03*
X2899999Y11429999D03*
X-2899999Y8889999D03*
X2899999Y8889999D03*
X-2899999Y6349999D03*
X2899999Y6349999D03*
X-2899999Y3809999D03*
X2899999Y3809999D03*
X-2899999Y1269999D03*
X2899999Y1269999D03*
X-2899999Y-1269999D03*
X2899999Y-1269999D03*
X-2899999Y-3809999D03*
X2899999Y-3809999D03*
X-2899999Y-6349999D03*
X2899999Y-6349999D03*
X-2899999Y-8889999D03*
X2899999Y-8889999D03*
X-2899999Y-11429999D03*
X2899999Y-11429999D03*
X-2899999Y-13969999D03*
X2899999Y-13969999D03*
X-2899999Y-16509999D03*
X2899999Y-16509999D03*
X-2899999Y-19049999D03*
X2899999Y-19049999D03*
X-2899999Y-21589999D03*
X2899999Y-21589999D03*
X-2899999Y-24129999D03*
X2899999Y-24129999D03*
M02*
