G04 #@! TF.GenerationSoftware,KiCad,Pcbnew,(7.0.0-0)*
G04 #@! TF.CreationDate,2023-03-19T22:54:24+01:00*
G04 #@! TF.ProjectId,TinyLlama-Wavetable,54696e79-4c6c-4616-9d61-2d5761766574,rev?*
G04 #@! TF.SameCoordinates,Original*
G04 #@! TF.FileFunction,Soldermask,Bot*
G04 #@! TF.FilePolarity,Negative*
%FSLAX46Y46*%
G04 Gerber Fmt 4.6, Leading zero omitted, Abs format (unit mm)*
G04 Created by KiCad (PCBNEW (7.0.0-0)) date 2023-03-19 22:54:24*
%MOMM*%
%LPD*%
G01*
G04 APERTURE LIST*
%ADD10R,1.020000X2.300000*%
%ADD11C,4.064000*%
%ADD12C,3.000000*%
%ADD13R,2.300000X1.020000*%
G04 APERTURE END LIST*
D10*
X-27089999Y3034999D03*
X-29629999Y3034999D03*
X-32169999Y3034999D03*
X-32169999Y8834999D03*
X-29629999Y8834999D03*
X-27089999Y8834999D03*
D11*
X0Y-29000000D03*
X0Y29000000D03*
D12*
X-17590000Y39350000D03*
X-12510000Y39350000D03*
X-19750000Y26650000D03*
X-15050000Y26650000D03*
X-10350000Y26650000D03*
D13*
X-2899999Y24129999D03*
X2899999Y24129999D03*
X-2899999Y21589999D03*
X2899999Y21589999D03*
X-2899999Y19049999D03*
X2899999Y19049999D03*
X-2899999Y16509999D03*
X2899999Y16509999D03*
X-2899999Y13969999D03*
X2899999Y13969999D03*
X-2899999Y11429999D03*
X2899999Y11429999D03*
X-2899999Y8889999D03*
X2899999Y8889999D03*
X-2899999Y6349999D03*
X2899999Y6349999D03*
X-2899999Y3809999D03*
X2899999Y3809999D03*
X-2899999Y1269999D03*
X2899999Y1269999D03*
X-2899999Y-1269999D03*
X2899999Y-1269999D03*
X-2899999Y-3809999D03*
X2899999Y-3809999D03*
X-2899999Y-6349999D03*
X2899999Y-6349999D03*
X-2899999Y-8889999D03*
X2899999Y-8889999D03*
X-2899999Y-11429999D03*
X2899999Y-11429999D03*
X-2899999Y-13969999D03*
X2899999Y-13969999D03*
X-2899999Y-16509999D03*
X2899999Y-16509999D03*
X-2899999Y-19049999D03*
X2899999Y-19049999D03*
X-2899999Y-21589999D03*
X2899999Y-21589999D03*
X-2899999Y-24129999D03*
X2899999Y-24129999D03*
M02*
