G04 #@! TF.GenerationSoftware,KiCad,Pcbnew,(7.0.0-0)*
G04 #@! TF.CreationDate,2023-03-19T22:54:23+01:00*
G04 #@! TF.ProjectId,TinyLlama-Wavetable,54696e79-4c6c-4616-9d61-2d5761766574,rev?*
G04 #@! TF.SameCoordinates,Original*
G04 #@! TF.FileFunction,Soldermask,Top*
G04 #@! TF.FilePolarity,Negative*
%FSLAX46Y46*%
G04 Gerber Fmt 4.6, Leading zero omitted, Abs format (unit mm)*
G04 Created by KiCad (PCBNEW (7.0.0-0)) date 2023-03-19 22:54:23*
%MOMM*%
%LPD*%
G01*
G04 APERTURE LIST*
G04 Aperture macros list*
%AMRoundRect*
0 Rectangle with rounded corners*
0 $1 Rounding radius*
0 $2 $3 $4 $5 $6 $7 $8 $9 X,Y pos of 4 corners*
0 Add a 4 corners polygon primitive as box body*
4,1,4,$2,$3,$4,$5,$6,$7,$8,$9,$2,$3,0*
0 Add four circle primitives for the rounded corners*
1,1,$1+$1,$2,$3*
1,1,$1+$1,$4,$5*
1,1,$1+$1,$6,$7*
1,1,$1+$1,$8,$9*
0 Add four rect primitives between the rounded corners*
20,1,$1+$1,$2,$3,$4,$5,0*
20,1,$1+$1,$4,$5,$6,$7,0*
20,1,$1+$1,$6,$7,$8,$9,0*
20,1,$1+$1,$8,$9,$2,$3,0*%
G04 Aperture macros list end*
%ADD10C,4.064000*%
%ADD11R,2.300000X1.020000*%
%ADD12R,1.270000X2.200000*%
%ADD13RoundRect,0.225000X-0.225000X-0.250000X0.225000X-0.250000X0.225000X0.250000X-0.225000X0.250000X0*%
%ADD14RoundRect,0.200000X0.200000X0.275000X-0.200000X0.275000X-0.200000X-0.275000X0.200000X-0.275000X0*%
%ADD15R,2.200000X1.270000*%
%ADD16C,3.000000*%
G04 APERTURE END LIST*
D10*
X0Y-29000000D03*
D11*
X-31099999Y-14969999D03*
X-36899999Y-14969999D03*
X-31099999Y-12429999D03*
X-36899999Y-12429999D03*
X-31099999Y-9889999D03*
X-36899999Y-9889999D03*
X-31099999Y-7349999D03*
X-36899999Y-7349999D03*
X-31099999Y-4809999D03*
X-36899999Y-4809999D03*
X-31099999Y-2269999D03*
X-36899999Y-2269999D03*
X-31099999Y269999D03*
X-36899999Y269999D03*
X-31099999Y2809999D03*
X-36899999Y2809999D03*
X-31099999Y5349999D03*
X-36899999Y5349999D03*
X-31099999Y7889999D03*
X-36899999Y7889999D03*
X-31099999Y10429999D03*
X-36899999Y10429999D03*
X-31099999Y12969999D03*
X-36899999Y12969999D03*
X-31099999Y15509999D03*
X-36899999Y15509999D03*
D12*
X-8649999Y16104999D03*
X-11189999Y12504999D03*
X-13729999Y16104999D03*
X-16269999Y12504999D03*
X-18809999Y16104999D03*
X-21349999Y12504999D03*
D13*
X-35775000Y20000000D03*
X-34225000Y20000000D03*
D14*
X-34175000Y22000000D03*
X-35825000Y22000000D03*
D15*
X-6214999Y-12364999D03*
X-9814999Y-9824999D03*
X-6214999Y-7284999D03*
D11*
X-2899999Y24129999D03*
X2899999Y24129999D03*
X-2899999Y21589999D03*
X2899999Y21589999D03*
X-2899999Y19049999D03*
X2899999Y19049999D03*
X-2899999Y16509999D03*
X2899999Y16509999D03*
X-2899999Y13969999D03*
X2899999Y13969999D03*
X-2899999Y11429999D03*
X2899999Y11429999D03*
X-2899999Y8889999D03*
X2899999Y8889999D03*
X-2899999Y6349999D03*
X2899999Y6349999D03*
X-2899999Y3809999D03*
X2899999Y3809999D03*
X-2899999Y1269999D03*
X2899999Y1269999D03*
X-2899999Y-1269999D03*
X2899999Y-1269999D03*
X-2899999Y-3809999D03*
X2899999Y-3809999D03*
X-2899999Y-6349999D03*
X2899999Y-6349999D03*
X-2899999Y-8889999D03*
X2899999Y-8889999D03*
X-2899999Y-11429999D03*
X2899999Y-11429999D03*
X-2899999Y-13969999D03*
X2899999Y-13969999D03*
X-2899999Y-16509999D03*
X2899999Y-16509999D03*
X-2899999Y-19049999D03*
X2899999Y-19049999D03*
X-2899999Y-21589999D03*
X2899999Y-21589999D03*
X-2899999Y-24129999D03*
X2899999Y-24129999D03*
D10*
X0Y29000000D03*
D16*
X-17590000Y39350000D03*
X-12510000Y39350000D03*
X-19750000Y26650000D03*
X-15050000Y26650000D03*
X-10350000Y26650000D03*
M02*
