G04 #@! TF.GenerationSoftware,KiCad,Pcbnew,(7.0.0-0)*
G04 #@! TF.CreationDate,2023-03-19T22:54:23+01:00*
G04 #@! TF.ProjectId,TinyLlama-Wavetable,54696e79-4c6c-4616-9d61-2d5761766574,rev?*
G04 #@! TF.SameCoordinates,Original*
G04 #@! TF.FileFunction,Copper,L1,Top*
G04 #@! TF.FilePolarity,Positive*
%FSLAX46Y46*%
G04 Gerber Fmt 4.6, Leading zero omitted, Abs format (unit mm)*
G04 Created by KiCad (PCBNEW (7.0.0-0)) date 2023-03-19 22:54:23*
%MOMM*%
%LPD*%
G01*
G04 APERTURE LIST*
G04 Aperture macros list*
%AMRoundRect*
0 Rectangle with rounded corners*
0 $1 Rounding radius*
0 $2 $3 $4 $5 $6 $7 $8 $9 X,Y pos of 4 corners*
0 Add a 4 corners polygon primitive as box body*
4,1,4,$2,$3,$4,$5,$6,$7,$8,$9,$2,$3,0*
0 Add four circle primitives for the rounded corners*
1,1,$1+$1,$2,$3*
1,1,$1+$1,$4,$5*
1,1,$1+$1,$6,$7*
1,1,$1+$1,$8,$9*
0 Add four rect primitives between the rounded corners*
20,1,$1+$1,$2,$3,$4,$5,0*
20,1,$1+$1,$4,$5,$6,$7,0*
20,1,$1+$1,$6,$7,$8,$9,0*
20,1,$1+$1,$8,$9,$2,$3,0*%
G04 Aperture macros list end*
G04 #@! TA.AperFunction,ComponentPad*
%ADD10C,4.064000*%
G04 #@! TD*
G04 #@! TA.AperFunction,SMDPad,CuDef*
%ADD11R,2.300000X1.020000*%
G04 #@! TD*
G04 #@! TA.AperFunction,SMDPad,CuDef*
%ADD12R,1.270000X2.200000*%
G04 #@! TD*
G04 #@! TA.AperFunction,SMDPad,CuDef*
%ADD13RoundRect,0.225000X-0.225000X-0.250000X0.225000X-0.250000X0.225000X0.250000X-0.225000X0.250000X0*%
G04 #@! TD*
G04 #@! TA.AperFunction,SMDPad,CuDef*
%ADD14RoundRect,0.200000X0.200000X0.275000X-0.200000X0.275000X-0.200000X-0.275000X0.200000X-0.275000X0*%
G04 #@! TD*
G04 #@! TA.AperFunction,SMDPad,CuDef*
%ADD15R,2.200000X1.270000*%
G04 #@! TD*
G04 #@! TA.AperFunction,ComponentPad*
%ADD16C,3.000000*%
G04 #@! TD*
G04 #@! TA.AperFunction,ViaPad*
%ADD17C,1.000000*%
G04 #@! TD*
G04 #@! TA.AperFunction,ViaPad*
%ADD18C,1.500000*%
G04 #@! TD*
G04 #@! TA.AperFunction,Conductor*
%ADD19C,1.000000*%
G04 #@! TD*
G04 #@! TA.AperFunction,Conductor*
%ADD20C,0.500000*%
G04 #@! TD*
G04 APERTURE END LIST*
D10*
X0Y-29000000D03*
D11*
X-31099999Y-14969999D03*
X-36899999Y-14969999D03*
X-31099999Y-12429999D03*
X-36899999Y-12429999D03*
X-31099999Y-9889999D03*
X-36899999Y-9889999D03*
X-31099999Y-7349999D03*
X-36899999Y-7349999D03*
X-31099999Y-4809999D03*
X-36899999Y-4809999D03*
X-31099999Y-2269999D03*
X-36899999Y-2269999D03*
X-31099999Y269999D03*
X-36899999Y269999D03*
X-31099999Y2809999D03*
X-36899999Y2809999D03*
X-31099999Y5349999D03*
X-36899999Y5349999D03*
X-31099999Y7889999D03*
X-36899999Y7889999D03*
X-31099999Y10429999D03*
X-36899999Y10429999D03*
X-31099999Y12969999D03*
X-36899999Y12969999D03*
X-31099999Y15509999D03*
X-36899999Y15509999D03*
D12*
X-8649999Y16104999D03*
X-11189999Y12504999D03*
X-13729999Y16104999D03*
X-16269999Y12504999D03*
X-18809999Y16104999D03*
X-21349999Y12504999D03*
D13*
X-35775000Y20000000D03*
X-34225000Y20000000D03*
D14*
X-34175000Y22000000D03*
X-35825000Y22000000D03*
D15*
X-6214999Y-12364999D03*
X-9814999Y-9824999D03*
X-6214999Y-7284999D03*
D11*
X-2899999Y24129999D03*
X2899999Y24129999D03*
X-2899999Y21589999D03*
X2899999Y21589999D03*
X-2899999Y19049999D03*
X2899999Y19049999D03*
X-2899999Y16509999D03*
X2899999Y16509999D03*
X-2899999Y13969999D03*
X2899999Y13969999D03*
X-2899999Y11429999D03*
X2899999Y11429999D03*
X-2899999Y8889999D03*
X2899999Y8889999D03*
X-2899999Y6349999D03*
X2899999Y6349999D03*
X-2899999Y3809999D03*
X2899999Y3809999D03*
X-2899999Y1269999D03*
X2899999Y1269999D03*
X-2899999Y-1269999D03*
X2899999Y-1269999D03*
X-2899999Y-3809999D03*
X2899999Y-3809999D03*
X-2899999Y-6349999D03*
X2899999Y-6349999D03*
X-2899999Y-8889999D03*
X2899999Y-8889999D03*
X-2899999Y-11429999D03*
X2899999Y-11429999D03*
X-2899999Y-13969999D03*
X2899999Y-13969999D03*
X-2899999Y-16509999D03*
X2899999Y-16509999D03*
X-2899999Y-19049999D03*
X2899999Y-19049999D03*
X-2899999Y-21589999D03*
X2899999Y-21589999D03*
X-2899999Y-24129999D03*
X2899999Y-24129999D03*
D10*
X0Y29000000D03*
D16*
X-17590000Y39350000D03*
X-12510000Y39350000D03*
X-19750000Y26650000D03*
X-15050000Y26650000D03*
X-10350000Y26650000D03*
D17*
X-25650000Y2650000D03*
X-28450000Y2650000D03*
X-31100000Y-11150000D03*
X-31100000Y-13740000D03*
X2900000Y-15250000D03*
X-2900000Y-7610000D03*
X-18820000Y18070000D03*
X760000Y3036000D03*
X-31100000Y-3550000D03*
X-31100000Y-6100000D03*
X-700000Y-24140000D03*
X2900000Y-10170000D03*
X-31100000Y-8600000D03*
X2900000Y17790000D03*
X-32110000Y18720000D03*
X-6515000Y13970000D03*
X760000Y7124000D03*
D18*
X-140000Y22860000D03*
D17*
X-5100000Y21590000D03*
X-5100000Y19050000D03*
X710000Y13970000D03*
X-5100000Y11430000D03*
X-5100000Y8890000D03*
X-28000000Y5350000D03*
X-31100000Y11700000D03*
X-7890000Y-9830000D03*
X-31100000Y14300000D03*
X-32744000Y6620000D03*
D19*
X-27100000Y4100000D02*
X-25650000Y2650000D01*
X-25650000Y2650000D02*
X-10635000Y-12365000D01*
X-31100000Y2810000D02*
X-28610000Y2810000D01*
X-28610000Y2810000D02*
X-28450000Y2650000D01*
X-21350000Y12505000D02*
X-21350000Y25050000D01*
X-21350000Y25050000D02*
X-19750000Y26650000D01*
D20*
X-36900000Y15510000D02*
X-36900000Y18875000D01*
X-36900000Y18875000D02*
X-35775000Y20000000D01*
X-35775000Y20400000D02*
X-34175000Y22000000D01*
X-35775000Y20000000D02*
X-35775000Y20400000D01*
D19*
X-2900000Y-24130000D02*
X-710000Y-24130000D01*
X-710000Y-24130000D02*
X-700000Y-24140000D01*
X2526000Y1270000D02*
X760000Y3036000D01*
X2900000Y-11430000D02*
X2900000Y-10170000D01*
X-31100000Y-9890000D02*
X-31100000Y-8600000D01*
D20*
X-34225000Y20000000D02*
X-33390000Y20000000D01*
D19*
X-31100000Y-8600000D02*
X-31100000Y-7350000D01*
X-31100000Y-11150000D02*
X-31100000Y-9890000D01*
X-31100000Y-12430000D02*
X-31100000Y-11150000D01*
X760000Y7124000D02*
X2526000Y8890000D01*
X-31100000Y-4810000D02*
X-31100000Y-2270000D01*
X-6515000Y13970000D02*
X-8650000Y16105000D01*
X-18810000Y18060000D02*
X-18820000Y18070000D01*
X760000Y3036000D02*
X760000Y7124000D01*
X-2900000Y-6350000D02*
X-2900000Y-7610000D01*
X2900000Y-16510000D02*
X2900000Y-15250000D01*
X-31100000Y-6100000D02*
X-31100000Y-4810000D01*
X2900000Y1270000D02*
X2526000Y1270000D01*
X-31100000Y-14970000D02*
X-31100000Y-12430000D01*
X-2900000Y13970000D02*
X-6515000Y13970000D01*
D20*
X-33390000Y20000000D02*
X-32110000Y18720000D01*
D19*
X2526000Y8890000D02*
X2900000Y8890000D01*
X-31100000Y-7350000D02*
X-31100000Y-6100000D01*
X-18810000Y16105000D02*
X-18810000Y18060000D01*
X2900000Y19050000D02*
X2900000Y17790000D01*
X-15050000Y26650000D02*
X-11260000Y22860000D01*
X-11260000Y22860000D02*
X-140000Y22860000D01*
X-2900000Y21590000D02*
X-5100000Y21590000D01*
X-2900000Y19050000D02*
X-5100000Y19050000D01*
D20*
X-4260000Y-5100000D02*
X-1600000Y-5100000D01*
X-1600000Y-5100000D02*
X-1000000Y-5700000D01*
X-5250000Y-16120000D02*
X-32850000Y-16120000D01*
X-1660000Y-15260000D02*
X-4390000Y-15260000D01*
X-4390000Y-15260000D02*
X-5250000Y-16120000D01*
X710000Y13970000D02*
X710000Y15830000D01*
X-17520000Y8160000D02*
X-4260000Y-5100000D01*
X-1000000Y-14600000D02*
X-1660000Y-15260000D01*
X-36540000Y-12430000D02*
X-36900000Y-12430000D01*
X-1000000Y-5700000D02*
X-1000000Y-14600000D01*
X-32850000Y-16120000D02*
X-36540000Y-12430000D01*
X710000Y15830000D02*
X-1240000Y17780000D01*
X-1240000Y17780000D02*
X-16220000Y17780000D01*
X-16220000Y17780000D02*
X-17520000Y16480000D01*
D19*
X2900000Y13970000D02*
X710000Y13970000D01*
D20*
X-17520000Y16480000D02*
X-17520000Y8160000D01*
D19*
X-2900000Y11430000D02*
X-5100000Y11430000D01*
X-2900000Y8890000D02*
X-5100000Y8890000D01*
X2900000Y21590000D02*
X2900000Y24130000D01*
X-19750000Y26650000D02*
X-13410000Y20310000D01*
X1620000Y20310000D02*
X2900000Y21590000D01*
X-13410000Y20310000D02*
X1620000Y20310000D01*
D20*
X2590000Y11430000D02*
X2900000Y11430000D01*
X-10985000Y12710000D02*
X1310000Y12710000D01*
X-11190000Y12505000D02*
X-10985000Y12710000D01*
X1310000Y12710000D02*
X2590000Y11430000D01*
X30000Y-4160000D02*
X30000Y-16430000D01*
X-1570000Y-2560000D02*
X30000Y-4160000D01*
X30000Y-16430000D02*
X-2590000Y-19050000D01*
X-16270000Y12505000D02*
X-16270000Y9300000D01*
X-4410000Y-2560000D02*
X-1570000Y-2560000D01*
X-2590000Y-19050000D02*
X-2900000Y-19050000D01*
X-16270000Y9300000D02*
X-4410000Y-2560000D01*
X2600000Y-24130000D02*
X2900000Y-24130000D01*
X-13730000Y16105000D02*
X-13730000Y8800000D01*
X-13730000Y8800000D02*
X-4900000Y-30000D01*
X1050000Y-22580000D02*
X2600000Y-24130000D01*
X-1540000Y-30000D02*
X1050000Y-2620000D01*
X1050000Y-2620000D02*
X1050000Y-22580000D01*
X-4900000Y-30000D02*
X-1540000Y-30000D01*
D19*
X-39000000Y-1456000D02*
X-39000000Y-3084000D01*
X-39000000Y-6536000D02*
X-39000000Y-8750000D01*
X-36900000Y-4810000D02*
X-37274000Y-4810000D01*
X-39000000Y-8750000D02*
X-37860000Y-9890000D01*
X-20620000Y28840000D02*
X-26070000Y23390000D01*
X-37274000Y-4810000D02*
X-39000000Y-6536000D01*
X-37860000Y-9890000D02*
X-36900000Y-9890000D01*
X-39000000Y-3084000D02*
X-37274000Y-4810000D01*
X-35825000Y22000000D02*
X-39000000Y18825000D01*
X-39000000Y1996000D02*
X-37274000Y270000D01*
X-36900000Y270000D02*
X-37274000Y270000D01*
X-34435000Y23390000D02*
X-35825000Y22000000D01*
X-10350000Y26650000D02*
X-12540000Y28840000D01*
X-39000000Y18825000D02*
X-39000000Y1996000D01*
X-12540000Y28840000D02*
X-20620000Y28840000D01*
X-26070000Y23390000D02*
X-34435000Y23390000D01*
X-37274000Y270000D02*
X-39000000Y-1456000D01*
X-32736000Y4100000D02*
X-27100000Y4100000D01*
X-10635000Y-12365000D02*
X-6215000Y-12365000D01*
X-36900000Y7890000D02*
X-36526000Y7890000D01*
X-36526000Y7890000D02*
X-32736000Y4100000D01*
X-31100000Y14300000D02*
X-31100000Y15510000D01*
X-7895000Y-9825000D02*
X-7890000Y-9830000D01*
X-28000000Y5350000D02*
X-23750000Y5350000D01*
X-31100000Y10430000D02*
X-31100000Y11700000D01*
X-31100000Y5350000D02*
X-28000000Y5350000D01*
X-23750000Y5350000D02*
X-9800000Y-8600000D01*
X-31100000Y9200000D02*
X-31100000Y10430000D01*
X-31100000Y7890000D02*
X-31100000Y9200000D01*
X-9815000Y-8615000D02*
X-9815000Y-9825000D01*
X-31100000Y12970000D02*
X-31100000Y14300000D01*
X-9800000Y-8600000D02*
X-9815000Y-8615000D01*
X-9815000Y-9825000D02*
X-7895000Y-9825000D01*
X-31100000Y11700000D02*
X-31100000Y12970000D01*
X-20120000Y6620000D02*
X-6215000Y-7285000D01*
X-36900000Y12970000D02*
X-36288000Y12970000D01*
X-33910000Y10592000D02*
X-33910000Y7786000D01*
X-32744000Y6620000D02*
X-20120000Y6620000D01*
X-36288000Y12970000D02*
X-33910000Y10592000D01*
X-33910000Y7786000D02*
X-32744000Y6620000D01*
M02*
