G04 #@! TF.GenerationSoftware,KiCad,Pcbnew,(6.99.0-5015-g618347ef50)*
G04 #@! TF.CreationDate,2023-01-08T20:33:57+01:00*
G04 #@! TF.ProjectId,TinyLlama,54696e79-4c6c-4616-9d61-2e6b69636164,2.1*
G04 #@! TF.SameCoordinates,Original*
G04 #@! TF.FileFunction,Paste,Top*
G04 #@! TF.FilePolarity,Positive*
%FSLAX46Y46*%
G04 Gerber Fmt 4.6, Leading zero omitted, Abs format (unit mm)*
G04 Created by KiCad (PCBNEW (6.99.0-5015-g618347ef50)) date 2023-01-08 20:33:57*
%MOMM*%
%LPD*%
G01*
G04 APERTURE LIST*
G04 Aperture macros list*
%AMRoundRect*
0 Rectangle with rounded corners*
0 $1 Rounding radius*
0 $2 $3 $4 $5 $6 $7 $8 $9 X,Y pos of 4 corners*
0 Add a 4 corners polygon primitive as box body*
4,1,4,$2,$3,$4,$5,$6,$7,$8,$9,$2,$3,0*
0 Add four circle primitives for the rounded corners*
1,1,$1+$1,$2,$3*
1,1,$1+$1,$4,$5*
1,1,$1+$1,$6,$7*
1,1,$1+$1,$8,$9*
0 Add four rect primitives between the rounded corners*
20,1,$1+$1,$2,$3,$4,$5,0*
20,1,$1+$1,$4,$5,$6,$7,0*
20,1,$1+$1,$6,$7,$8,$9,0*
20,1,$1+$1,$8,$9,$2,$3,0*%
G04 Aperture macros list end*
%ADD10RoundRect,0.200000X-0.200000X-0.275000X0.200000X-0.275000X0.200000X0.275000X-0.200000X0.275000X0*%
%ADD11RoundRect,0.225000X0.250000X-0.225000X0.250000X0.225000X-0.250000X0.225000X-0.250000X-0.225000X0*%
%ADD12RoundRect,0.225000X-0.250000X0.225000X-0.250000X-0.225000X0.250000X-0.225000X0.250000X0.225000X0*%
%ADD13RoundRect,0.225000X-0.225000X-0.250000X0.225000X-0.250000X0.225000X0.250000X-0.225000X0.250000X0*%
%ADD14R,2.000000X3.800000*%
%ADD15R,2.000000X1.500000*%
%ADD16RoundRect,0.200000X0.275000X-0.200000X0.275000X0.200000X-0.275000X0.200000X-0.275000X-0.200000X0*%
%ADD17RoundRect,0.200000X0.200000X0.275000X-0.200000X0.275000X-0.200000X-0.275000X0.200000X-0.275000X0*%
%ADD18RoundRect,0.250000X-0.262500X-0.450000X0.262500X-0.450000X0.262500X0.450000X-0.262500X0.450000X0*%
%ADD19RoundRect,0.250000X0.475000X-0.250000X0.475000X0.250000X-0.475000X0.250000X-0.475000X-0.250000X0*%
%ADD20R,1.300000X0.700000*%
%ADD21R,2.000000X1.200000*%
%ADD22R,1.400000X1.200000*%
%ADD23R,0.600000X1.440000*%
%ADD24R,0.300000X1.500000*%
%ADD25RoundRect,0.075000X-1.162500X-0.075000X1.162500X-0.075000X1.162500X0.075000X-1.162500X0.075000X0*%
%ADD26RoundRect,0.075000X-0.075000X-1.162500X0.075000X-1.162500X0.075000X1.162500X-0.075000X1.162500X0*%
%ADD27RoundRect,0.250000X0.325000X0.650000X-0.325000X0.650000X-0.325000X-0.650000X0.325000X-0.650000X0*%
%ADD28R,0.600000X1.200000*%
%ADD29RoundRect,0.225000X0.225000X0.250000X-0.225000X0.250000X-0.225000X-0.250000X0.225000X-0.250000X0*%
%ADD30R,2.600000X0.630000*%
%ADD31R,0.700000X0.700000*%
%ADD32R,1.600000X1.400000*%
%ADD33RoundRect,0.250000X0.250000X0.475000X-0.250000X0.475000X-0.250000X-0.475000X0.250000X-0.475000X0*%
%ADD34RoundRect,0.250000X-0.650000X0.325000X-0.650000X-0.325000X0.650000X-0.325000X0.650000X0.325000X0*%
%ADD35R,0.600000X2.800000*%
%ADD36RoundRect,0.250000X-0.250000X-0.475000X0.250000X-0.475000X0.250000X0.475000X-0.250000X0.475000X0*%
%ADD37RoundRect,0.218750X-0.218750X-0.256250X0.218750X-0.256250X0.218750X0.256250X-0.218750X0.256250X0*%
%ADD38R,2.300000X1.020000*%
%ADD39RoundRect,0.243750X-0.243750X-0.456250X0.243750X-0.456250X0.243750X0.456250X-0.243750X0.456250X0*%
%ADD40R,1.200000X0.600000*%
%ADD41R,2.200000X1.600000*%
%ADD42RoundRect,0.250000X-0.325000X-0.650000X0.325000X-0.650000X0.325000X0.650000X-0.325000X0.650000X0*%
G04 APERTURE END LIST*
D10*
X40675001Y-81500012D03*
X42325001Y-81500012D03*
D11*
X83000000Y-71525000D03*
X83000000Y-69975000D03*
D12*
X83000000Y-72975000D03*
X83000000Y-74525000D03*
D13*
X36225000Y-32500000D03*
X37775000Y-32500000D03*
D14*
X62149999Y-94999999D03*
D15*
X55849999Y-92699999D03*
X55849999Y-94999999D03*
X55849999Y-97299999D03*
D10*
X114175000Y-95500000D03*
X115825000Y-95500000D03*
D12*
X99000000Y-92725000D03*
X99000000Y-94275000D03*
D16*
X40500000Y-97825006D03*
X40500000Y-96175006D03*
D10*
X40675001Y-79999990D03*
X42325001Y-79999990D03*
D17*
X80825000Y-87000000D03*
X79175000Y-87000000D03*
D16*
X37800000Y-35825000D03*
X37800000Y-34175000D03*
D18*
X92940000Y-68000000D03*
X94765000Y-68000000D03*
D19*
X97500000Y-64700000D03*
X97500000Y-62800000D03*
D13*
X105175000Y-37500000D03*
X106725000Y-37500000D03*
D11*
X61249989Y-90525008D03*
X61249989Y-88975008D03*
D20*
X38549999Y-88819999D03*
X38549999Y-87719999D03*
X38549999Y-86619999D03*
X38549999Y-85519999D03*
X38549999Y-84419999D03*
X38549999Y-83319999D03*
X38549999Y-82219999D03*
X38549999Y-81119999D03*
X38549999Y-80019999D03*
D21*
X27999999Y-78499999D03*
D22*
X37699999Y-78919999D03*
X37699999Y-93599999D03*
D21*
X27999999Y-94019999D03*
D10*
X54175000Y-49500000D03*
X55825000Y-49500000D03*
D23*
X40199999Y-30209999D03*
X39399999Y-30209999D03*
D24*
X38249999Y-30179999D03*
X37249999Y-30179999D03*
X36749999Y-30179999D03*
X35749999Y-30179999D03*
D23*
X34599999Y-30209999D03*
X33799999Y-30209999D03*
D24*
X35249999Y-30179999D03*
X36249999Y-30179999D03*
X37749999Y-30179999D03*
X38749999Y-30179999D03*
D17*
X101824998Y-61000002D03*
X100174998Y-61000002D03*
D16*
X35999999Y-97825006D03*
X35999999Y-96175006D03*
D10*
X40675001Y-88999997D03*
X42325001Y-88999997D03*
D25*
X86499995Y-76000011D03*
X86499995Y-76500011D03*
X86499995Y-77000011D03*
X86499995Y-77500011D03*
X86499995Y-78000011D03*
X86499995Y-78500011D03*
X86499995Y-79000011D03*
X86499995Y-79500011D03*
X86499995Y-80000011D03*
X86499995Y-80500011D03*
X86499995Y-81000011D03*
X86499995Y-81500011D03*
X86499995Y-82000011D03*
X86499995Y-82500011D03*
X86499995Y-83000011D03*
X86499995Y-83500011D03*
X86499995Y-84000011D03*
X86499995Y-84500011D03*
X86499995Y-85000011D03*
X86499995Y-85500011D03*
X86499995Y-86000011D03*
X86499995Y-86500011D03*
X86499995Y-87000011D03*
X86499995Y-87500011D03*
X86499995Y-88000011D03*
D26*
X88662495Y-90162511D03*
X89162495Y-90162511D03*
X89662495Y-90162511D03*
X90162495Y-90162511D03*
X90662495Y-90162511D03*
X91162495Y-90162511D03*
X91662495Y-90162511D03*
X92162495Y-90162511D03*
X92662495Y-90162511D03*
X93162495Y-90162511D03*
X93662495Y-90162511D03*
X94162495Y-90162511D03*
X94662495Y-90162511D03*
X95162495Y-90162511D03*
X95662495Y-90162511D03*
X96162495Y-90162511D03*
X96662495Y-90162511D03*
X97162495Y-90162511D03*
X97662495Y-90162511D03*
X98162495Y-90162511D03*
X98662495Y-90162511D03*
X99162495Y-90162511D03*
X99662495Y-90162511D03*
X100162495Y-90162511D03*
X100662495Y-90162511D03*
D25*
X102824995Y-88000011D03*
X102824995Y-87500011D03*
X102824995Y-87000011D03*
X102824995Y-86500011D03*
X102824995Y-86000011D03*
X102824995Y-85500011D03*
X102824995Y-85000011D03*
X102824995Y-84500011D03*
X102824995Y-84000011D03*
X102824995Y-83500011D03*
X102824995Y-83000011D03*
X102824995Y-82500011D03*
X102824995Y-82000011D03*
X102824995Y-81500011D03*
X102824995Y-81000011D03*
X102824995Y-80500011D03*
X102824995Y-80000011D03*
X102824995Y-79500011D03*
X102824995Y-79000011D03*
X102824995Y-78500011D03*
X102824995Y-78000011D03*
X102824995Y-77500011D03*
X102824995Y-77000011D03*
X102824995Y-76500011D03*
X102824995Y-76000011D03*
D26*
X100662495Y-73837511D03*
X100162495Y-73837511D03*
X99662495Y-73837511D03*
X99162495Y-73837511D03*
X98662495Y-73837511D03*
X98162495Y-73837511D03*
X97662495Y-73837511D03*
X97162495Y-73837511D03*
X96662495Y-73837511D03*
X96162495Y-73837511D03*
X95662495Y-73837511D03*
X95162495Y-73837511D03*
X94662495Y-73837511D03*
X94162495Y-73837511D03*
X93662495Y-73837511D03*
X93162495Y-73837511D03*
X92662495Y-73837511D03*
X92162495Y-73837511D03*
X91662495Y-73837511D03*
X91162495Y-73837511D03*
X90662495Y-73837511D03*
X90162495Y-73837511D03*
X89662495Y-73837511D03*
X89162495Y-73837511D03*
X88662495Y-73837511D03*
D27*
X57500006Y-89999995D03*
X54550006Y-89999995D03*
D13*
X102249988Y-73000004D03*
X103799988Y-73000004D03*
D28*
X41349999Y-31951499D03*
X40399999Y-34151499D03*
X39449999Y-31951499D03*
D29*
X102225000Y-37500000D03*
X100675000Y-37500000D03*
X89025000Y-59500000D03*
X87475000Y-59500000D03*
D17*
X31575000Y-32500000D03*
X29925000Y-32500000D03*
D12*
X75000000Y-56725000D03*
X75000000Y-58275000D03*
X114000000Y-44475000D03*
X114000000Y-46025000D03*
D28*
X79049989Y-83100010D03*
X79999989Y-83100010D03*
X80949989Y-83100010D03*
X80949989Y-80900010D03*
X79049989Y-80900010D03*
D30*
X45949999Y-56364999D03*
X50049999Y-56364999D03*
X45949999Y-57634999D03*
X50049999Y-57634999D03*
X45949999Y-58904999D03*
X50049999Y-58904999D03*
X45949999Y-60174999D03*
X50049999Y-60174999D03*
X45949999Y-61444999D03*
X50049999Y-61444999D03*
X45949999Y-62714999D03*
X50049999Y-62714999D03*
X45949999Y-63984999D03*
X50049999Y-63984999D03*
X45949999Y-65254999D03*
X50049999Y-65254999D03*
X45949999Y-66524999D03*
X50049999Y-66524999D03*
X45949999Y-67794999D03*
X50049999Y-67794999D03*
X45949999Y-69064999D03*
X50049999Y-69064999D03*
X45949999Y-70334999D03*
X50049999Y-70334999D03*
X45949999Y-71604999D03*
X50049999Y-71604999D03*
X45949999Y-72874999D03*
X50049999Y-72874999D03*
X45949999Y-74144999D03*
X50049999Y-74144999D03*
X45949999Y-75414999D03*
X50049999Y-75414999D03*
X45949999Y-76684999D03*
X50049999Y-76684999D03*
X45949999Y-77954999D03*
X50049999Y-77954999D03*
X45949999Y-79224999D03*
X50049999Y-79224999D03*
X45949999Y-80494999D03*
X50049999Y-80494999D03*
X45949999Y-81764999D03*
X50049999Y-81764999D03*
X45949999Y-83034999D03*
X50049999Y-83034999D03*
X45949999Y-84304999D03*
X50049999Y-84304999D03*
X45949999Y-85574999D03*
X50049999Y-85574999D03*
X45949999Y-86844999D03*
X50049999Y-86844999D03*
X45949999Y-88114999D03*
X50049999Y-88114999D03*
X45949999Y-89384999D03*
X50049999Y-89384999D03*
X45949999Y-90654999D03*
X50049999Y-90654999D03*
X45949999Y-91924999D03*
X50049999Y-91924999D03*
X45949999Y-93194999D03*
X50049999Y-93194999D03*
X45949999Y-94464999D03*
X50049999Y-94464999D03*
X45949999Y-95734999D03*
X50049999Y-95734999D03*
X67949999Y-56364999D03*
X72049999Y-56364999D03*
X67949999Y-57634999D03*
X72049999Y-57634999D03*
X67949999Y-58904999D03*
X72049999Y-58904999D03*
X67949999Y-60174999D03*
X72049999Y-60174999D03*
X67949999Y-61444999D03*
X72049999Y-61444999D03*
X67949999Y-62714999D03*
X72049999Y-62714999D03*
X67949999Y-63984999D03*
X72049999Y-63984999D03*
X67949999Y-65254999D03*
X72049999Y-65254999D03*
X67949999Y-66524999D03*
X72049999Y-66524999D03*
X67949999Y-67794999D03*
X72049999Y-67804999D03*
X67949999Y-69064999D03*
X72049999Y-69064999D03*
X67949999Y-70334999D03*
X72049999Y-70334999D03*
X67949999Y-71604999D03*
X72049999Y-71604999D03*
X67949999Y-72874999D03*
X72049999Y-72874999D03*
X67949999Y-74144999D03*
X72049999Y-74144999D03*
X67949999Y-75414999D03*
X72049999Y-75414999D03*
X67949999Y-76684999D03*
X72049999Y-76684999D03*
X67949999Y-77954999D03*
X72049999Y-77954999D03*
X67949999Y-79224999D03*
X72049999Y-79224999D03*
X67949999Y-80494999D03*
X72049999Y-80494999D03*
X67949999Y-81764999D03*
X72049999Y-81764999D03*
X67949999Y-83034999D03*
X72049999Y-83034999D03*
X67949999Y-84304999D03*
X72049999Y-84304999D03*
X67949999Y-85574999D03*
X72049999Y-85574999D03*
X67949999Y-86844999D03*
X72049999Y-86844999D03*
X67949999Y-88114999D03*
X72049999Y-88114999D03*
X67949999Y-89384999D03*
X72049999Y-89384999D03*
X67949999Y-90654999D03*
X72049999Y-90654999D03*
X67949999Y-91924999D03*
X72049999Y-91924999D03*
X67949999Y-93194999D03*
X72049999Y-93194999D03*
X67949999Y-94464999D03*
X72049999Y-94464999D03*
X67949999Y-95734999D03*
X72049999Y-95734999D03*
D31*
X73849999Y-40136500D03*
X72249999Y-40136500D03*
X72249999Y-38836500D03*
X73849999Y-38836500D03*
D17*
X41325000Y-67750000D03*
X39675000Y-67750000D03*
D31*
X77849999Y-40136500D03*
X76249999Y-40136500D03*
X76249999Y-38836500D03*
X77849999Y-38836500D03*
D32*
X39499999Y-44249999D03*
X47499999Y-44249999D03*
X39499999Y-39749999D03*
X47499999Y-39749999D03*
D12*
X61249989Y-68225012D03*
X61249989Y-69775012D03*
D33*
X42950000Y-51500000D03*
X41050000Y-51500000D03*
D10*
X40675001Y-86000003D03*
X42325001Y-86000003D03*
D16*
X37500001Y-97825006D03*
X37500001Y-96175006D03*
X39000000Y-97825006D03*
X39000000Y-96175006D03*
D11*
X106000000Y-87275000D03*
X106000000Y-85725000D03*
D13*
X97000000Y-71000000D03*
X98550000Y-71000000D03*
D10*
X84224992Y-56500000D03*
X85874992Y-56500000D03*
D29*
X80775000Y-78999992D03*
X79225000Y-78999992D03*
D19*
X101000000Y-64700000D03*
X101000000Y-62800000D03*
D11*
X84000007Y-85049987D03*
X84000007Y-83499987D03*
D18*
X87175000Y-69250000D03*
X89000000Y-69250000D03*
D34*
X77000000Y-56775000D03*
X77000000Y-59725000D03*
D35*
X78749999Y-69674999D03*
X78749999Y-74824999D03*
D10*
X40675001Y-83000009D03*
X42325001Y-83000009D03*
D12*
X61500000Y-62225000D03*
X61500000Y-63775000D03*
D10*
X96675005Y-61000002D03*
X98325005Y-61000002D03*
X100174998Y-59249993D03*
X101824998Y-59249993D03*
D13*
X40725001Y-84500006D03*
X42275001Y-84500006D03*
D32*
X28499999Y-44249999D03*
X36499999Y-44249999D03*
X28499999Y-39749999D03*
X36499999Y-39749999D03*
D10*
X39675000Y-63500000D03*
X41325000Y-63500000D03*
X39675000Y-56000000D03*
X41325000Y-56000000D03*
D36*
X105000000Y-39500000D03*
X106900000Y-39500000D03*
D37*
X39712500Y-66000000D03*
X41287500Y-66000000D03*
D16*
X61249989Y-81166493D03*
X61249989Y-79516493D03*
D19*
X53499992Y-95999998D03*
X53499992Y-94099998D03*
D12*
X106000000Y-79993000D03*
X106000000Y-81543000D03*
D38*
X116099999Y-42869999D03*
X121899999Y-42869999D03*
X116099999Y-45409999D03*
X121899999Y-45409999D03*
X116099999Y-47949999D03*
X121899999Y-47949999D03*
X116099999Y-50489999D03*
X121899999Y-50489999D03*
X116099999Y-53029999D03*
X121899999Y-53029999D03*
X116099999Y-55569999D03*
X121899999Y-55569999D03*
X116099999Y-58109999D03*
X121899999Y-58109999D03*
X116099999Y-60649999D03*
X121899999Y-60649999D03*
X116099999Y-63189999D03*
X121899999Y-63189999D03*
X116099999Y-65729999D03*
X121899999Y-65729999D03*
X116099999Y-68269999D03*
X121899999Y-68269999D03*
X116099999Y-70809999D03*
X121899999Y-70809999D03*
X116099999Y-73349999D03*
X121899999Y-73349999D03*
X116099999Y-75889999D03*
X121899999Y-75889999D03*
X116099999Y-78429999D03*
X121899999Y-78429999D03*
X116099999Y-80969999D03*
X121899999Y-80969999D03*
X116099999Y-83509999D03*
X121899999Y-83509999D03*
X116099999Y-86049999D03*
X121899999Y-86049999D03*
X116099999Y-88589999D03*
X121899999Y-88589999D03*
X116099999Y-91129999D03*
X121899999Y-91129999D03*
D39*
X39562500Y-61500000D03*
X41437500Y-61500000D03*
D10*
X40675001Y-87500000D03*
X42325001Y-87500000D03*
D29*
X90550000Y-71000000D03*
X89000000Y-71000000D03*
D39*
X39625000Y-58000000D03*
X41500000Y-58000000D03*
D33*
X100150000Y-67500000D03*
X98250000Y-67500000D03*
D40*
X33899999Y-34049999D03*
X33899999Y-34999999D03*
X33899999Y-35949999D03*
X36099999Y-35949999D03*
X36099999Y-34999999D03*
X36099999Y-34049999D03*
D10*
X96675005Y-59249993D03*
X98325005Y-59249993D03*
D32*
X50499999Y-44249999D03*
X58499999Y-44249999D03*
X50499999Y-39749999D03*
X58499999Y-39749999D03*
D17*
X31575000Y-34000000D03*
X29925000Y-34000000D03*
D16*
X33000000Y-97825006D03*
X33000000Y-96175006D03*
D41*
X100399999Y-29449999D03*
X107499999Y-29449999D03*
X100399999Y-26249999D03*
X107499999Y-26249999D03*
X100399999Y-32949999D03*
X107499999Y-32949999D03*
D10*
X54175000Y-48000000D03*
X55825000Y-48000000D03*
X114175000Y-93500000D03*
X115825000Y-93500000D03*
D13*
X87475000Y-56500000D03*
X89025000Y-56500000D03*
D29*
X100050000Y-69500000D03*
X98500000Y-69500000D03*
D17*
X42825000Y-49500000D03*
X41175000Y-49500000D03*
D10*
X41175000Y-48000000D03*
X42825000Y-48000000D03*
D33*
X102400000Y-39500000D03*
X100500000Y-39500000D03*
D13*
X102249988Y-71500007D03*
X103799988Y-71500007D03*
D16*
X34499999Y-97825006D03*
X34499999Y-96175006D03*
D42*
X42425000Y-35500000D03*
X45375000Y-35500000D03*
D10*
X87425000Y-58000000D03*
X89075000Y-58000000D03*
D17*
X80825000Y-85000004D03*
X79175000Y-85000004D03*
D32*
X61499999Y-44249999D03*
X69499999Y-44249999D03*
X61499999Y-39749999D03*
X69499999Y-39749999D03*
D28*
X63049999Y-62849999D03*
X63999999Y-62849999D03*
X64949999Y-62849999D03*
X64949999Y-60649999D03*
X63049999Y-60649999D03*
M02*
