G04 #@! TF.GenerationSoftware,KiCad,Pcbnew,(6.99.0-5015-g618347ef50)*
G04 #@! TF.CreationDate,2023-01-08T20:33:57+01:00*
G04 #@! TF.ProjectId,TinyLlama,54696e79-4c6c-4616-9d61-2e6b69636164,2.1*
G04 #@! TF.SameCoordinates,Original*
G04 #@! TF.FileFunction,Paste,Bot*
G04 #@! TF.FilePolarity,Positive*
%FSLAX46Y46*%
G04 Gerber Fmt 4.6, Leading zero omitted, Abs format (unit mm)*
G04 Created by KiCad (PCBNEW (6.99.0-5015-g618347ef50)) date 2023-01-08 20:33:57*
%MOMM*%
%LPD*%
G01*
G04 APERTURE LIST*
G04 Aperture macros list*
%AMRoundRect*
0 Rectangle with rounded corners*
0 $1 Rounding radius*
0 $2 $3 $4 $5 $6 $7 $8 $9 X,Y pos of 4 corners*
0 Add a 4 corners polygon primitive as box body*
4,1,4,$2,$3,$4,$5,$6,$7,$8,$9,$2,$3,0*
0 Add four circle primitives for the rounded corners*
1,1,$1+$1,$2,$3*
1,1,$1+$1,$4,$5*
1,1,$1+$1,$6,$7*
1,1,$1+$1,$8,$9*
0 Add four rect primitives between the rounded corners*
20,1,$1+$1,$2,$3,$4,$5,0*
20,1,$1+$1,$4,$5,$6,$7,0*
20,1,$1+$1,$6,$7,$8,$9,0*
20,1,$1+$1,$8,$9,$2,$3,0*%
G04 Aperture macros list end*
%ADD10RoundRect,0.218750X-0.256250X0.218750X-0.256250X-0.218750X0.256250X-0.218750X0.256250X0.218750X0*%
%ADD11R,0.700000X0.700000*%
%ADD12RoundRect,0.225000X0.250000X-0.225000X0.250000X0.225000X-0.250000X0.225000X-0.250000X-0.225000X0*%
%ADD13R,0.500000X0.500000*%
%ADD14RoundRect,0.200000X-0.275000X0.200000X-0.275000X-0.200000X0.275000X-0.200000X0.275000X0.200000X0*%
%ADD15RoundRect,0.225000X-0.250000X0.225000X-0.250000X-0.225000X0.250000X-0.225000X0.250000X0.225000X0*%
%ADD16RoundRect,0.250000X-0.650000X0.325000X-0.650000X-0.325000X0.650000X-0.325000X0.650000X0.325000X0*%
%ADD17R,0.450000X1.750000*%
%ADD18RoundRect,0.250000X0.650000X-0.325000X0.650000X0.325000X-0.650000X0.325000X-0.650000X-0.325000X0*%
%ADD19RoundRect,0.225000X0.225000X0.250000X-0.225000X0.250000X-0.225000X-0.250000X0.225000X-0.250000X0*%
%ADD20RoundRect,0.200000X0.200000X0.275000X-0.200000X0.275000X-0.200000X-0.275000X0.200000X-0.275000X0*%
%ADD21R,0.600000X1.200000*%
%ADD22R,1.600000X1.400000*%
%ADD23O,0.300000X1.400000*%
%ADD24O,1.400000X0.300000*%
%ADD25R,2.400000X0.600000*%
%ADD26R,3.200000X1.900000*%
%ADD27R,4.200000X3.900000*%
%ADD28C,5.000000*%
G04 APERTURE END LIST*
D10*
X55500000Y-29212500D03*
X55500000Y-30787500D03*
D11*
X50699999Y-40149999D03*
X52299999Y-40149999D03*
X52299999Y-38849999D03*
X50699999Y-38849999D03*
D10*
X69999994Y-29174001D03*
X69999994Y-30749001D03*
D12*
X27250000Y-78274995D03*
X27250000Y-76724995D03*
D13*
X92899999Y-31249999D03*
X95099999Y-31249999D03*
D14*
X46000000Y-51175000D03*
X46000000Y-52825000D03*
D15*
X31250000Y-91725000D03*
X31250000Y-93275000D03*
D16*
X114250000Y-35025000D03*
X114250000Y-37975000D03*
D17*
X29274999Y-81899999D03*
X29924999Y-81899999D03*
X30574999Y-81899999D03*
X31224999Y-81899999D03*
X31874999Y-81899999D03*
X32524999Y-81899999D03*
X33174999Y-81899999D03*
X33824999Y-81899999D03*
X34474999Y-81899999D03*
X35124999Y-81899999D03*
X35774999Y-81899999D03*
X36424999Y-81899999D03*
X37074999Y-81899999D03*
X37724999Y-81899999D03*
X37724999Y-89099999D03*
X37074999Y-89099999D03*
X36424999Y-89099999D03*
X35774999Y-89099999D03*
X35124999Y-89099999D03*
X34474999Y-89099999D03*
X33824999Y-89099999D03*
X33174999Y-89099999D03*
X32524999Y-89099999D03*
X31874999Y-89099999D03*
X31224999Y-89099999D03*
X30574999Y-89099999D03*
X29924999Y-89099999D03*
X29274999Y-89099999D03*
D18*
X57750000Y-30975000D03*
X57750000Y-28025000D03*
D19*
X62775000Y-45500000D03*
X61225000Y-45500000D03*
D10*
X74499994Y-29174001D03*
X74499994Y-30749001D03*
D20*
X91325000Y-33000000D03*
X89675000Y-33000000D03*
D21*
X95949999Y-37599999D03*
X94049999Y-37599999D03*
X94999999Y-35399999D03*
D14*
X90750000Y-35675000D03*
X90750000Y-37325000D03*
D22*
X44999999Y-44249999D03*
X36999999Y-44249999D03*
X44999999Y-39749999D03*
X36999999Y-39749999D03*
D23*
X56749999Y-51699999D03*
X56249999Y-51699999D03*
X55749999Y-51699999D03*
X55249999Y-51699999D03*
X54749999Y-51699999D03*
X54249999Y-51699999D03*
X53749999Y-51699999D03*
X53249999Y-51699999D03*
X52749999Y-51699999D03*
X52249999Y-51699999D03*
X51749999Y-51699999D03*
X51249999Y-51699999D03*
D24*
X49799999Y-50249999D03*
X49799999Y-49749999D03*
X49799999Y-49249999D03*
X49799999Y-48749999D03*
X49799999Y-48249999D03*
X49799999Y-47749999D03*
X49799999Y-47249999D03*
X49799999Y-46749999D03*
X49799999Y-46249999D03*
X49799999Y-45749999D03*
X49799999Y-45249999D03*
X49799999Y-44749999D03*
D23*
X51249999Y-43299999D03*
X51749999Y-43299999D03*
X52249999Y-43299999D03*
X52749999Y-43299999D03*
X53249999Y-43299999D03*
X53749999Y-43299999D03*
X54249999Y-43299999D03*
X54749999Y-43299999D03*
X55249999Y-43299999D03*
X55749999Y-43299999D03*
X56249999Y-43299999D03*
X56749999Y-43299999D03*
D24*
X58199999Y-44749999D03*
X58199999Y-45249999D03*
X58199999Y-45749999D03*
X58199999Y-46249999D03*
X58199999Y-46749999D03*
X58199999Y-47249999D03*
X58199999Y-47749999D03*
X58199999Y-48249999D03*
X58199999Y-48749999D03*
X58199999Y-49249999D03*
X58199999Y-49749999D03*
X58199999Y-50249999D03*
D25*
X55030499Y-91899999D03*
X63630499Y-91499999D03*
X55030499Y-91099999D03*
X63630499Y-90699999D03*
X55030499Y-90299999D03*
X63630499Y-89899999D03*
X55030499Y-89499999D03*
X63630499Y-89099999D03*
X55030499Y-88699999D03*
X63630499Y-88299999D03*
X55030499Y-87899999D03*
X63630499Y-87499999D03*
X55030499Y-87099999D03*
X63630499Y-86699999D03*
X55030499Y-86299999D03*
X63630499Y-85899999D03*
X55030499Y-82299999D03*
X63630499Y-81899999D03*
X55030499Y-81499999D03*
X63630499Y-81099999D03*
X55030499Y-80699999D03*
X63630499Y-80299999D03*
X55030499Y-79899999D03*
X63630499Y-79499999D03*
X55030499Y-79099999D03*
X63630499Y-78699999D03*
X55030499Y-78299999D03*
X63630499Y-77899999D03*
X55030499Y-77499999D03*
X63630499Y-77099999D03*
X55030499Y-76699999D03*
X63630499Y-76299999D03*
X55030499Y-75899999D03*
X63630499Y-75499999D03*
X55030499Y-75099999D03*
X63630499Y-74699999D03*
X55030499Y-74299999D03*
X63630499Y-73899999D03*
X55030499Y-73499999D03*
X63630499Y-73099999D03*
X55030499Y-72699999D03*
X63630499Y-72299999D03*
X55030499Y-71899999D03*
X63630499Y-71499999D03*
X55030499Y-71099999D03*
X63630499Y-70699999D03*
X55030499Y-70299999D03*
X63630499Y-69899999D03*
X55030499Y-69499999D03*
X63630499Y-69099999D03*
X55030499Y-68699999D03*
X63630499Y-68299999D03*
D26*
X55830499Y-94549999D03*
X55830499Y-65649999D03*
D27*
X117999999Y-86049999D03*
X117999999Y-70949999D03*
D28*
X118000000Y-78500000D03*
D20*
X91325000Y-31500000D03*
X89675000Y-31500000D03*
D15*
X29250000Y-76725000D03*
X29250000Y-78275000D03*
D18*
X53250000Y-30975000D03*
X53250000Y-28025000D03*
D12*
X26575000Y-88050000D03*
X26575000Y-86500000D03*
D10*
X51000000Y-29212500D03*
X51000000Y-30787500D03*
D15*
X92250000Y-35725000D03*
X92250000Y-37275000D03*
X29250000Y-91725000D03*
X29250000Y-93275000D03*
D14*
X47500000Y-51175000D03*
X47500000Y-52825000D03*
D22*
X75499999Y-44749999D03*
X83499999Y-44749999D03*
X75499999Y-49249999D03*
X83499999Y-49249999D03*
D18*
X72249994Y-30936501D03*
X72249994Y-27986501D03*
D11*
X54699999Y-40149999D03*
X56299999Y-40149999D03*
X56299999Y-38849999D03*
X54699999Y-38849999D03*
D12*
X58500000Y-53775000D03*
X58500000Y-52225000D03*
D18*
X76749994Y-30936501D03*
X76749994Y-27986501D03*
M02*
