M48
; DRILL file {KiCad (6.99.0-5015-g618347ef50)} date Sunday, 08 January 2023 at 20:34:50
; FORMAT={-:-/ absolute / metric / decimal}
; #@! TF.CreationDate,2023-01-08T20:34:50+01:00
; #@! TF.GenerationSoftware,Kicad,Pcbnew,(6.99.0-5015-g618347ef50)
; #@! TF.FileFunction,Plated,1,4,PTH
FMAT,2
METRIC
; #@! TA.AperFunction,Plated,PTH,ViaDrill
T1C0.200
; #@! TA.AperFunction,Plated,PTH,ComponentDrill
T2C0.600
; #@! TA.AperFunction,Plated,PTH,ComponentDrill
T3C0.813
; #@! TA.AperFunction,Plated,PTH,ComponentDrill
T4C1.000
; #@! TA.AperFunction,Plated,PTH,ComponentDrill
T5C1.016
; #@! TA.AperFunction,Plated,PTH,ComponentDrill
T6C2.300
; #@! TA.AperFunction,Plated,PTH,ComponentDrill
T7C3.048
; #@! TA.AperFunction,Plated,PTH,ComponentDrill
T8C3.050
%
G90
G05
T1
X28.0Y-92.5
X28.25Y-75.74
X30.25Y-94.09
X32.01Y-92.48
X37.32Y-83.29
X37.5Y-92.5
X37.87Y-59.69
X38.31Y-59.24
X38.74Y-58.84
X38.76Y-78.91
X39.7Y-34.9
X39.7Y-35.6
X39.705Y-85.52
X40.19Y-47.99
X40.4Y-34.9
X40.4Y-35.6
X41.1Y-34.9
X41.1Y-35.6
X41.5Y-97.8
X41.97Y-68.91
X42.95Y-52.83
X42.95Y-60.61
X43.19Y-86.03
X43.2Y-84.49
X43.2Y-92.69
X44.17Y-62.72
X44.17Y-86.83
X44.18Y-65.26
X44.19Y-63.985
X46.58Y-46.01
X47.76Y-57.88
X48.02Y-96.34
X48.15Y-71.63
X51.59Y-78.55
X51.6Y-68.39
X51.71Y-91.29
X51.74Y-58.91
X51.74Y-60.54
X51.74Y-61.15
X51.74Y-61.75
X51.78Y-56.36
X52.37Y-86.3
X53.0Y-97.0
X53.392Y-75.968
X53.392Y-76.632
X53.397Y-79.168
X53.397Y-79.832
X53.424Y-87.168
X53.424Y-87.832
X54.0Y-97.0
X55.795Y-46.145
X56.25Y-44.86
X57.0Y-67.257
X57.4Y-53.77
X58.58Y-80.3
X60.25Y-89.785
X62.04Y-89.75
X62.1Y-68.316
X62.1Y-69.117
X62.1Y-79.516
X62.1Y-81.117
X64.0Y-64.0
X64.95Y-59.64
X65.43Y-81.886
X68.5Y-28.25
X69.51Y-45.5
X69.63Y-65.82
X69.69Y-58.9
X69.7Y-60.2
X69.7Y-61.4
X69.7Y-62.7
X69.7Y-64.0
X69.71Y-57.94
X69.73Y-71.61
X69.75Y-70.33
X69.75Y-80.75
X70.15Y-69.07
X70.3Y-59.5
X70.3Y-60.8
X70.3Y-62.1
X70.3Y-63.4
X70.3Y-64.6
X70.31Y-80.31
X70.4Y-71.01
X70.43Y-58.27
X71.0Y-39.81
X71.0Y-41.04
X73.87Y-65.28
X75.2Y-68.03
X76.165Y-67.575
X78.22Y-79.37
X78.22Y-85.99
X78.4Y-56.4
X78.4Y-57.2
X78.4Y-59.3
X78.4Y-60.1
X78.98Y-93.64
X79.0Y-56.8
X79.0Y-59.7
X79.3Y-89.37
X79.59Y-93.64
X79.72Y-89.83
X80.14Y-90.29
X80.2Y-93.638
X80.56Y-90.75
X80.77Y-78.0
X80.81Y-93.638
X81.02Y-72.23
X81.42Y-93.638
X81.94Y-93.32
X82.44Y-92.956
X82.88Y-56.48
X82.95Y-92.626
X83.46Y-92.3
X83.96Y-91.96
X84.46Y-91.61
X84.96Y-91.266
X85.45Y-90.9
X85.96Y-90.53
X86.46Y-90.15
X86.98Y-89.77
X87.94Y-70.28
X88.75Y-84.5
X88.91Y-83.4
X89.0Y-76.25
X89.04Y-57.25
X89.55Y-36.27
X90.15Y-39.92
X90.162Y-76.0
X91.97Y-67.99
X92.83Y-69.62
X94.77Y-69.28
X95.95Y-33.85
X96.0Y-31.25
X97.4Y-70.09
X98.36Y-94.93
X98.5Y-66.25
X98.65Y-87.97
X98.662Y-76.0
X99.24Y-61.0
X100.51Y-81.44
X100.52Y-86.04
X100.75Y-76.0
X100.75Y-80.5
X100.75Y-87.0
X101.33Y-96.63
X101.525Y-36.65
X101.77Y-94.33
X102.35Y-90.05
X102.494Y-25.806
X102.84Y-96.1
X102.89Y-94.19
X103.9Y-70.5
X104.35Y-94.53
X104.39Y-85.51
X104.42Y-78.1
X104.42Y-78.8
X104.42Y-79.5
X104.42Y-82.0
X105.434Y-25.806
X105.875Y-36.65
X114.17Y-88.58
X115.74Y-54.56
X116.37Y-56.77
X118.005Y-74.865
X118.1Y-91.1
X120.31Y-55.7
X121.9Y-54.0
T3
X92.7Y-27.249
X92.7Y-33.751
T4
X32.58Y-58.34
X32.58Y-61.11
X32.58Y-63.88
X32.58Y-66.65
X35.42Y-56.955
X35.42Y-59.725
X35.42Y-62.495
X35.42Y-65.265
X35.42Y-68.035
X51.0Y-33.4
X51.0Y-36.0
X53.5Y-33.4
X53.5Y-36.0
X55.5Y-33.4
X55.5Y-36.0
X58.0Y-33.4
X58.0Y-36.0
X70.0Y-33.4
X70.0Y-36.0
X72.5Y-33.4
X72.5Y-36.0
X74.5Y-33.4
X74.5Y-36.0
X77.0Y-33.4
X77.0Y-36.0
X86.83Y-62.335
X89.37Y-62.335
X91.91Y-62.335
X113.5Y-49.0
X113.5Y-51.54
X113.5Y-54.08
X113.5Y-56.62
X113.5Y-59.16
X113.5Y-61.7
T5
X26.25Y-31.92
X26.25Y-34.46
X26.25Y-37.0
X26.25Y-39.54
X26.25Y-42.08
X40.75Y-70.75
X40.75Y-73.29
X40.75Y-75.83
X64.25Y-48.5
X66.79Y-48.5
X83.0Y-26.75
X84.75Y-31.25
X84.75Y-33.79
X84.75Y-36.33
X85.54Y-26.75
X87.64Y-35.75
X87.64Y-38.29
X87.64Y-40.83
X87.64Y-43.37
X87.64Y-45.91
X87.64Y-48.45
X87.64Y-50.99
X87.64Y-53.53
X110.5Y-35.75
X110.5Y-38.29
X110.5Y-40.83
X110.5Y-43.37
X110.5Y-45.91
X110.5Y-48.45
X110.5Y-50.99
X110.5Y-53.53
X114.5Y-31.5
X117.0Y-27.0
X117.04Y-31.5
X119.54Y-27.0
X119.58Y-31.5
X122.12Y-31.5
T6
X47.95Y-36.35
X48.0Y-30.55
X61.0Y-30.55
X61.05Y-36.35
X66.95Y-36.35
X67.0Y-30.55
X80.0Y-30.55
X80.05Y-36.35
T7
X27.0Y-27.0
X27.0Y-98.0
X119.0Y-38.0
X119.0Y-96.0
T8
X34.0Y-50.0
X34.0Y-74.99
T2
X32.675Y-25.65G85X32.675Y-24.85
G05
X32.675Y-29.98G85X32.675Y-28.88
G05
X41.325Y-25.65G85X41.325Y-24.85
G05
X41.325Y-29.98G85X41.325Y-28.88
G05
T0
M30
