G04 #@! TF.GenerationSoftware,KiCad,Pcbnew,(6.99.0-5015-g618347ef50)*
G04 #@! TF.CreationDate,2023-01-08T20:33:57+01:00*
G04 #@! TF.ProjectId,TinyLlama,54696e79-4c6c-4616-9d61-2e6b69636164,2.1*
G04 #@! TF.SameCoordinates,Original*
G04 #@! TF.FileFunction,Profile,NP*
%FSLAX46Y46*%
G04 Gerber Fmt 4.6, Leading zero omitted, Abs format (unit mm)*
G04 Created by KiCad (PCBNEW (6.99.0-5015-g618347ef50)) date 2023-01-08 20:33:57*
%MOMM*%
%LPD*%
G01*
G04 APERTURE LIST*
G04 #@! TA.AperFunction,Profile*
%ADD10C,0.100000*%
G04 #@! TD*
G04 APERTURE END LIST*
D10*
X71424637Y-23388855D02*
X71404946Y-23433278D01*
X22194826Y-22400259D02*
X22224721Y-22361952D01*
X24732218Y-25036482D02*
X24732050Y-25036672D01*
X24447640Y-99575974D02*
X24447771Y-99576191D01*
X26860463Y-24003539D02*
X26835673Y-24004796D01*
X23970328Y-65749450D02*
X23980974Y-65796861D01*
X122332411Y-24312451D02*
X122332185Y-24312337D01*
X123267781Y-25036482D02*
X123182871Y-24942499D01*
X125970328Y-102250549D02*
X125957368Y-102297380D01*
X123817268Y-99030166D02*
X123817353Y-99029928D01*
X125250549Y-102970328D02*
X125203138Y-102980974D01*
X23476681Y-65116900D02*
X23518960Y-65140851D01*
X22325158Y-102743539D02*
X22289966Y-102710033D01*
X15006002Y-109999087D02*
X15006455Y-109999275D01*
X123966970Y-98441967D02*
X123967005Y-98441716D01*
X24545207Y-25275984D02*
X24545060Y-25276190D01*
X132997829Y-15003902D02*
X132997517Y-15003522D01*
X71359148Y-101481039D02*
X71383099Y-101523318D01*
X25173893Y-24620174D02*
X25173690Y-24620327D01*
X121764137Y-24099253D02*
X121763892Y-24099187D01*
X125710033Y-65289966D02*
X125743539Y-65325158D01*
X71489281Y-101844737D02*
X71495229Y-101892963D01*
X24000000Y-97993792D02*
X24000158Y-98006205D01*
X123900746Y-26235862D02*
X123865902Y-26114090D01*
X77111144Y-23924637D02*
X77066721Y-23904946D01*
X122597469Y-24461038D02*
X122597256Y-24460901D01*
X24059175Y-26408574D02*
X24036829Y-26533246D01*
X76557874Y-101656480D02*
X76575362Y-101611144D01*
X23989281Y-59155262D02*
X23980974Y-59203138D01*
X24134097Y-26114090D02*
X24099253Y-26235862D01*
X76981039Y-22140851D02*
X77023318Y-22116900D01*
X24134169Y-98886152D02*
X24141600Y-98909836D01*
X76510718Y-102155262D02*
X76504770Y-102107036D01*
X77344737Y-102989281D02*
X77296861Y-102980974D01*
X124116900Y-59476681D02*
X124095053Y-59433278D01*
X22042631Y-65702619D02*
X22057874Y-65656480D01*
X71174841Y-23743539D02*
X71138047Y-23775278D01*
X24059223Y-98591674D02*
X24064219Y-98615988D01*
X25173893Y-100379825D02*
X25275984Y-100454792D01*
X123165597Y-24924322D02*
X123165420Y-24924141D01*
X26260382Y-100907095D02*
X26383763Y-100935726D01*
X15002170Y-15003902D02*
X15001878Y-15004296D01*
X77490122Y-103000000D02*
X77441423Y-102998804D01*
X125805173Y-22400259D02*
X125833152Y-22439987D01*
X71243539Y-23674841D02*
X71210033Y-23710033D01*
X124289966Y-59710033D02*
X124256460Y-59674841D01*
X71099740Y-101194826D02*
X71138047Y-101224721D01*
X22010718Y-59155262D02*
X22004770Y-59107036D01*
X23638047Y-59775278D02*
X23599740Y-59805173D01*
X22075362Y-22611144D02*
X22095053Y-22566721D01*
X70888855Y-102924637D02*
X70843519Y-102942125D01*
X25690328Y-100698702D02*
X25805421Y-100751584D01*
X132997517Y-15003522D02*
X132997188Y-15003159D01*
X25296563Y-100469119D02*
X25296773Y-100469261D01*
X26684179Y-24016963D02*
X26683928Y-24016992D01*
X125998804Y-59058576D02*
X125995229Y-59107036D01*
X71383099Y-22523318D02*
X71404946Y-22566721D01*
X125638047Y-22224721D02*
X125674841Y-22256460D01*
X71099740Y-22194826D02*
X71138047Y-22224721D01*
X123751687Y-25805652D02*
X123751584Y-25805421D01*
X125904946Y-102433278D02*
X125883099Y-102476681D01*
X132995295Y-15001605D02*
X132994874Y-15001353D01*
X125388855Y-22075362D02*
X125433278Y-22095053D01*
X23989281Y-65844737D02*
X23995229Y-65892963D01*
X76756460Y-22325158D02*
X76789966Y-22289966D01*
X132990190Y-109999942D02*
X132990681Y-109999918D01*
X132987727Y-110000000D02*
X132987972Y-109999996D01*
X71489281Y-22844737D02*
X71495229Y-22892963D01*
X125107036Y-59995229D02*
X125058576Y-59998804D01*
X125995229Y-22892963D02*
X125998804Y-22941423D01*
X23433278Y-59904946D02*
X23388855Y-59924637D01*
X24461038Y-99597469D02*
X24530738Y-99703226D01*
X132999275Y-15006455D02*
X132999087Y-15006002D01*
X26709126Y-100985569D02*
X26835420Y-100995187D01*
X124004770Y-59107036D02*
X124001195Y-59058576D01*
X22166847Y-65439987D02*
X22194826Y-65400259D01*
X26683928Y-24016992D02*
X26558283Y-24032994D01*
X23155262Y-65010718D02*
X23203138Y-65019025D01*
X23009877Y-65000000D02*
X23009877Y-65000000D01*
X76981039Y-23859148D02*
X76939987Y-23833152D01*
X122053680Y-24191442D02*
X122053443Y-24191351D01*
X15000724Y-109993544D02*
X15000912Y-109993997D01*
X24016963Y-26684179D02*
X24014452Y-26708874D01*
X123469261Y-99703226D02*
X123538961Y-99597469D01*
X132992612Y-15000416D02*
X132992136Y-15000297D01*
X124892963Y-65004770D02*
X124941423Y-65001195D01*
X125388855Y-59924637D02*
X125343519Y-59942125D01*
X77344737Y-23989281D02*
X77296861Y-23980974D01*
X25690328Y-24301297D02*
X25690100Y-24301405D01*
X77441423Y-102998804D02*
X77392963Y-102995229D01*
X132999583Y-15007387D02*
X132999440Y-15006917D01*
X76939987Y-102833152D02*
X76900259Y-102805173D01*
X121164326Y-100995203D02*
X121164579Y-100995187D01*
X125942125Y-59343519D02*
X125924637Y-59388855D01*
X125638047Y-65224721D02*
X125674841Y-65256460D01*
X76861952Y-23775278D02*
X76825158Y-23743539D01*
X71404946Y-22566721D02*
X71424637Y-22611144D01*
X123454792Y-99724015D02*
X123454939Y-99723809D01*
X25828462Y-100761475D02*
X25828696Y-100761572D01*
X24182646Y-25970071D02*
X24141679Y-26089923D01*
X124000000Y-27006333D02*
X123999999Y-27006207D01*
X77392963Y-23995229D02*
X77344737Y-23989281D01*
X22289966Y-102710033D02*
X22256460Y-102674841D01*
X123552359Y-99575974D02*
X123616613Y-99466823D01*
X132993997Y-15000912D02*
X132993544Y-15000724D01*
X132997829Y-109996097D02*
X132998121Y-109995703D01*
X124523318Y-59883099D02*
X124481039Y-59859148D01*
X123935780Y-26384011D02*
X123935726Y-26383763D01*
X71495229Y-23107036D02*
X71489281Y-23155262D01*
X70655262Y-102989281D02*
X70607036Y-102995229D01*
X22941423Y-22001195D02*
X22990122Y-22000000D01*
X125775278Y-102638047D02*
X125743539Y-102674841D01*
X22481039Y-65140851D02*
X22523318Y-65116900D01*
X125883099Y-22523318D02*
X125904946Y-22566721D01*
X123454939Y-99723809D02*
X123469119Y-99703436D01*
X22042631Y-59297380D02*
X22029671Y-59250549D01*
X24059175Y-98591425D02*
X24059223Y-98591674D01*
X123698594Y-25690100D02*
X123687662Y-25667814D01*
X23743539Y-65325158D02*
X23775278Y-65361952D01*
X71018960Y-22140851D02*
X71060012Y-22166847D01*
X24924322Y-24834402D02*
X24924141Y-24834579D01*
X123985547Y-26708874D02*
X123983036Y-26684179D01*
X123983007Y-26683928D02*
X123967005Y-26558283D01*
X125980974Y-59203138D02*
X125970328Y-59250549D01*
X125904946Y-59433278D02*
X125883099Y-59476681D01*
X125203138Y-65019025D02*
X125250549Y-65029671D01*
X125297380Y-102957368D02*
X125250549Y-102970328D01*
X24092965Y-26260136D02*
X24092904Y-26260382D01*
X23388855Y-59924637D02*
X23343519Y-59942125D01*
X77111144Y-22075362D02*
X77156480Y-22057874D01*
X124325158Y-65256460D02*
X124361952Y-65224721D01*
X25276190Y-100454939D02*
X25296563Y-100469119D01*
X77023318Y-101116900D02*
X77066721Y-101095053D01*
X71383099Y-102476681D02*
X71359148Y-102518960D01*
X70797380Y-102957368D02*
X70750549Y-102970328D01*
X122944493Y-24715882D02*
X122944299Y-24715719D01*
X24530738Y-25296773D02*
X24461038Y-25402530D01*
X23710033Y-65289966D02*
X23743539Y-65325158D01*
X24715882Y-25055506D02*
X24715719Y-25055700D01*
X22325158Y-65256460D02*
X22361952Y-65224721D01*
X22001195Y-102058576D02*
X22000000Y-102009877D01*
X123817353Y-99029928D02*
X123858320Y-98910076D01*
X122963517Y-24732218D02*
X122963327Y-24732050D01*
X23833152Y-59560012D02*
X23805173Y-59599740D01*
X26408574Y-24059175D02*
X26408325Y-24059223D01*
X124075362Y-65611144D02*
X124095053Y-65566721D01*
X70933278Y-23904946D02*
X70888855Y-23924637D01*
X25055506Y-100284117D02*
X25055700Y-100284280D01*
X125805173Y-102599740D02*
X125775278Y-102638047D01*
X125743539Y-22325158D02*
X125775278Y-22361952D01*
X132991169Y-109999870D02*
X132991655Y-109999798D01*
X124566721Y-59904946D02*
X124523318Y-59883099D01*
X123284280Y-25055700D02*
X123284117Y-25055506D01*
X22019025Y-22796861D02*
X22029671Y-22749450D01*
X123267781Y-99963517D02*
X123267949Y-99963327D01*
X23998804Y-59058576D02*
X23995229Y-59107036D01*
X77296861Y-101019025D02*
X77344737Y-101010718D01*
X25828696Y-100761572D02*
X25946319Y-100808557D01*
X76595053Y-22566721D02*
X76616900Y-22523318D01*
X121763892Y-24099187D02*
X121739863Y-24092965D01*
X71210033Y-23710033D02*
X71174841Y-23743539D01*
X22990122Y-103000000D02*
X22941423Y-102998804D01*
X123865830Y-26113847D02*
X123858399Y-26090163D01*
X71333152Y-22439987D02*
X71359148Y-22481039D01*
X71404946Y-23433278D02*
X71383099Y-23476681D01*
X71099740Y-102805173D02*
X71060012Y-102833152D01*
X24635678Y-25153863D02*
X24635520Y-25154062D01*
X24312337Y-99332185D02*
X24312451Y-99332411D01*
X76542631Y-102297380D02*
X76529671Y-102250549D01*
X71210033Y-102710033D02*
X71174841Y-102743539D01*
X123935726Y-98616236D02*
X123935780Y-98615988D01*
X121006205Y-24000158D02*
X120993792Y-24000000D01*
X15001878Y-109995703D02*
X15002170Y-109996097D01*
X123751584Y-99194578D02*
X123751687Y-99194347D01*
X70558576Y-22001195D02*
X70607036Y-22004770D01*
X121441967Y-100966970D02*
X121466503Y-100963211D01*
X23775278Y-59638047D02*
X23743539Y-59674841D01*
X22844737Y-102989281D02*
X22796861Y-102980974D01*
X123075858Y-100165420D02*
X123165420Y-100075858D01*
X71305173Y-102599740D02*
X71275278Y-102638047D01*
X24064219Y-98615988D02*
X24064273Y-98616236D01*
X122466823Y-100616613D02*
X122575974Y-100552359D01*
X121006205Y-100999841D02*
X121006331Y-100999839D01*
X123616613Y-99466823D02*
X123616738Y-99466603D01*
X123999841Y-98006205D02*
X123999999Y-97993792D01*
X71457368Y-101702619D02*
X71470328Y-101749450D01*
X122944299Y-100284280D02*
X122944493Y-100284117D01*
X24371094Y-25555322D02*
X24312451Y-25667588D01*
X26533246Y-100963170D02*
X26533496Y-100963211D01*
X125343519Y-59942125D02*
X125297380Y-59957368D01*
X71243539Y-102674841D02*
X71210033Y-102710033D01*
X124019025Y-59203138D02*
X124010718Y-59155262D01*
X23904946Y-59433278D02*
X23883099Y-59476681D01*
X24032994Y-26558283D02*
X24016992Y-26683928D01*
X76557874Y-23343519D02*
X76542631Y-23297380D01*
X24092904Y-26260382D02*
X24064273Y-26383763D01*
X71138047Y-22224721D02*
X71174841Y-22256460D01*
X123995187Y-98164579D02*
X123995203Y-98164326D01*
X25970071Y-24182646D02*
X25969833Y-24182731D01*
X120993666Y-24000000D02*
X77490122Y-24000000D01*
X22029671Y-65749450D02*
X22042631Y-65702619D01*
X15008830Y-15000129D02*
X15008344Y-15000201D01*
X24312451Y-25667588D02*
X24312337Y-25667814D01*
X125710033Y-102710033D02*
X125674841Y-102743539D01*
X26384011Y-24064219D02*
X26383763Y-24064273D01*
X70976681Y-23883099D02*
X70933278Y-23904946D01*
X125388855Y-102924637D02*
X125343519Y-102942125D01*
X27006333Y-24000000D02*
X27006207Y-24000000D01*
X71404946Y-101566721D02*
X71424637Y-101611144D01*
X71359148Y-102518960D02*
X71333152Y-102560012D01*
X124439987Y-59833152D02*
X124400259Y-59805173D01*
X123963170Y-98466753D02*
X123963211Y-98466503D01*
X23638047Y-65224721D02*
X23674841Y-65256460D01*
X22702619Y-65042631D02*
X22749450Y-65029671D01*
X22481039Y-59859148D02*
X22439987Y-59833152D01*
X125995229Y-102107036D02*
X125989281Y-102155262D01*
X123995203Y-26835673D02*
X123995187Y-26835420D01*
X24238427Y-25828696D02*
X24191442Y-25946319D01*
X132999440Y-15006917D02*
X132999275Y-15006455D01*
X15002170Y-109996097D02*
X15002482Y-109996477D01*
X24099187Y-98763892D02*
X24099253Y-98764137D01*
X24099253Y-98764137D02*
X24134097Y-98885909D01*
X132993997Y-109999087D02*
X132994441Y-109998877D01*
X70607036Y-102995229D02*
X70558576Y-102998804D01*
X76900259Y-23805173D02*
X76861952Y-23775278D01*
X23599740Y-65194826D02*
X23638047Y-65224721D01*
X22140851Y-22481039D02*
X22166847Y-22439987D01*
X25805421Y-100751584D02*
X25805652Y-100751687D01*
X26860716Y-24003529D02*
X26860463Y-24003539D01*
X77441423Y-101001195D02*
X77490122Y-101000000D01*
X22166847Y-102560012D02*
X22140851Y-102518960D01*
X22075362Y-102388855D02*
X22057874Y-102343519D01*
X24014452Y-98291125D02*
X24016963Y-98315820D01*
X71480974Y-101796861D02*
X71489281Y-101844737D01*
X126000000Y-102009877D02*
X125998804Y-102058576D01*
X15000559Y-109993082D02*
X15000724Y-109993544D01*
X24004812Y-98164579D02*
X24014430Y-98290873D01*
X124140851Y-59518960D02*
X124116900Y-59476681D01*
X26708874Y-100985547D02*
X26709126Y-100985569D01*
X132995703Y-15001878D02*
X132995295Y-15001605D01*
X24545060Y-25276190D02*
X24530880Y-25296563D01*
X23805173Y-65400259D02*
X23833152Y-65439987D01*
X124481039Y-59859148D02*
X124439987Y-59833152D01*
X123628785Y-99444900D02*
X123628905Y-99444677D01*
X77111144Y-102924637D02*
X77066721Y-102904946D01*
X26383763Y-24064273D02*
X26260382Y-24092904D01*
X133000000Y-109987727D02*
X133000000Y-15012272D01*
X125433278Y-102904946D02*
X125388855Y-102924637D01*
X23058576Y-59998804D02*
X23009877Y-60000000D01*
X124042631Y-59297380D02*
X124029671Y-59250549D01*
X23203138Y-59980974D02*
X23155262Y-59989281D01*
X76825158Y-102743539D02*
X76789966Y-102710033D01*
X15002811Y-109996840D02*
X15003159Y-109997188D01*
X22289966Y-59710033D02*
X22256460Y-59674841D01*
X123379672Y-99826309D02*
X123379825Y-99826106D01*
X15007387Y-15000416D02*
X15006917Y-15000559D01*
X125942125Y-102343519D02*
X125924637Y-102388855D01*
X22892963Y-65004770D02*
X22941423Y-65001195D01*
X77111144Y-101075362D02*
X77156480Y-101057874D01*
X125155262Y-59989281D02*
X125107036Y-59995229D01*
X124224721Y-59638047D02*
X124194826Y-59599740D01*
X124289966Y-65289966D02*
X124325158Y-65256460D01*
X23883099Y-65523318D02*
X23904946Y-65566721D01*
X24530880Y-25296563D02*
X24530738Y-25296773D01*
X123075677Y-24834402D02*
X123057686Y-24817301D01*
X125743539Y-102674841D02*
X125710033Y-102710033D01*
X70703138Y-22019025D02*
X70750549Y-22029671D01*
X71498804Y-101941423D02*
X71500000Y-101990122D01*
X123687548Y-25667588D02*
X123628905Y-25555322D01*
X22010718Y-22844737D02*
X22019025Y-22796861D01*
X71424637Y-101611144D02*
X71442125Y-101656480D01*
X125599740Y-22194826D02*
X125638047Y-22224721D01*
X71305173Y-101400259D02*
X71333152Y-101439987D01*
X24461038Y-25402530D02*
X24460901Y-25402743D01*
X132998646Y-15005125D02*
X132998394Y-15004704D01*
X124004770Y-65892963D02*
X124010718Y-65844737D01*
X125058576Y-22001195D02*
X125107036Y-22004770D01*
X122845937Y-100364479D02*
X122846136Y-100364321D01*
X123900812Y-98763892D02*
X123907034Y-98739863D01*
X22001195Y-65941423D02*
X22004770Y-65892963D01*
X71275278Y-101361952D02*
X71305173Y-101400259D01*
X24092904Y-98739617D02*
X24092965Y-98739863D01*
X132998394Y-109995295D02*
X132998646Y-109994874D01*
X22001195Y-59058576D02*
X22000000Y-59009877D01*
X15000129Y-15008830D02*
X15000081Y-15009318D01*
X71174841Y-101256460D02*
X71210033Y-101289966D01*
X24942499Y-100182871D02*
X25036482Y-100267781D01*
X25424025Y-24447640D02*
X25423808Y-24447771D01*
X24620327Y-99826309D02*
X24635520Y-99845937D01*
X71359148Y-22481039D02*
X71383099Y-22523318D01*
X22029671Y-22749450D02*
X22042631Y-22702619D01*
X124010718Y-65844737D02*
X124019025Y-65796861D01*
X22224721Y-65361952D02*
X22256460Y-65325158D01*
X22892963Y-59995229D02*
X22844737Y-59989281D01*
X25402530Y-100538961D02*
X25402743Y-100539098D01*
X24447640Y-25424025D02*
X24383386Y-25533176D01*
X123865830Y-98886152D02*
X123865902Y-98885909D01*
X71359148Y-23518960D02*
X71333152Y-23560012D01*
X22004770Y-65892963D02*
X22010718Y-65844737D01*
X132999918Y-15009318D02*
X132999870Y-15008830D01*
X121616236Y-24064273D02*
X121615988Y-24064219D01*
X71404946Y-102433278D02*
X71383099Y-102476681D01*
X70797380Y-101042631D02*
X70843519Y-101057874D01*
X124523318Y-65116900D02*
X124566721Y-65095053D01*
X77344737Y-22010718D02*
X77392963Y-22004770D01*
X77156480Y-22057874D02*
X77202619Y-22042631D01*
X125998804Y-22941423D02*
X126000000Y-22990122D01*
X125203138Y-59980974D02*
X125155262Y-59989281D01*
X24301405Y-25690100D02*
X24301297Y-25690328D01*
X123983036Y-98315820D02*
X123985547Y-98291125D01*
X71275278Y-102638047D02*
X71243539Y-102674841D01*
X121441967Y-24033029D02*
X121441716Y-24032994D01*
X25805652Y-100751687D02*
X25828462Y-100761475D01*
X71018960Y-23859148D02*
X70976681Y-23883099D01*
X22990122Y-65000000D02*
X23009877Y-65000000D01*
X123182698Y-24942313D02*
X123165597Y-24924322D01*
X76861952Y-22224721D02*
X76900259Y-22194826D01*
X125805173Y-65400259D02*
X125833152Y-65439987D01*
X22941423Y-102998804D02*
X22892963Y-102995229D01*
X22400259Y-102805173D02*
X22361952Y-102775278D01*
X71470328Y-22749450D02*
X71480974Y-22796861D01*
X71500000Y-22990122D02*
X71500000Y-23009877D01*
X24460901Y-99597256D02*
X24461038Y-99597469D01*
X125560012Y-59833152D02*
X125518960Y-59859148D01*
X122030166Y-24182731D02*
X122029928Y-24182646D01*
X123469119Y-99703436D02*
X123469261Y-99703226D01*
X77344737Y-101010718D02*
X77392963Y-101004770D01*
X123995203Y-98164326D02*
X123996460Y-98139536D01*
X76825158Y-22256460D02*
X76861952Y-22224721D01*
X24141679Y-26089923D02*
X24141600Y-26090163D01*
X122597256Y-100539098D02*
X122597469Y-100538961D01*
X25423808Y-24447771D02*
X25402743Y-24460901D01*
X125009877Y-22000000D02*
X125058576Y-22001195D01*
X70976681Y-101116900D02*
X71018960Y-101140851D01*
X71210033Y-22289966D02*
X71243539Y-22325158D01*
X25555099Y-24371214D02*
X25533396Y-24383261D01*
X15000000Y-109987727D02*
X15000003Y-109987972D01*
X71018960Y-101140851D02*
X71060012Y-101166847D01*
X122053443Y-24191351D02*
X122030166Y-24182731D01*
X15008830Y-109999870D02*
X15009318Y-109999918D01*
X124439987Y-65166847D02*
X124481039Y-65140851D01*
X24000000Y-65990122D02*
X24000000Y-97993666D01*
X22010718Y-102155262D02*
X22004770Y-102107036D01*
X15000416Y-109992612D02*
X15000559Y-109993082D01*
X76500000Y-102009877D02*
X76500000Y-101990122D01*
X24383386Y-25533176D02*
X24383261Y-25533396D01*
X122575974Y-100552359D02*
X122576191Y-100552228D01*
X71495229Y-22892963D02*
X71498804Y-22941423D01*
X25036672Y-100267949D02*
X25055506Y-100284117D01*
X76616900Y-22523318D02*
X76640851Y-22481039D01*
X76900259Y-22194826D02*
X76939987Y-22166847D01*
X121291125Y-24014452D02*
X121290873Y-24014430D01*
X76519025Y-102203138D02*
X76510718Y-102155262D01*
X125518960Y-59859148D02*
X125476681Y-59883099D01*
X123364479Y-99845937D02*
X123379672Y-99826309D01*
X124057874Y-65656480D02*
X124075362Y-65611144D01*
X122053680Y-100808557D02*
X122171303Y-100761572D01*
X124844737Y-65010718D02*
X124892963Y-65004770D01*
X121290873Y-24014430D02*
X121164579Y-24004812D01*
X76510718Y-23155262D02*
X76504770Y-23107036D01*
X123817268Y-25969833D02*
X123808648Y-25946556D01*
X23924637Y-65611144D02*
X23942125Y-65656480D01*
X125518960Y-102859148D02*
X125476681Y-102883099D01*
X71498804Y-23058576D02*
X71495229Y-23107036D01*
X71457368Y-22702619D02*
X71470328Y-22749450D01*
X76694826Y-102599740D02*
X76666847Y-102560012D01*
X70933278Y-102904946D02*
X70888855Y-102924637D01*
X125833152Y-65439987D02*
X125859148Y-65481039D01*
X15003159Y-15002811D02*
X15002811Y-15003159D01*
X123698702Y-25690328D02*
X123698594Y-25690100D01*
X123940776Y-26408325D02*
X123935780Y-26384011D01*
X25154062Y-100364479D02*
X25173690Y-100379672D01*
X71333152Y-23560012D02*
X71305173Y-23599740D01*
X123454939Y-25276190D02*
X123454792Y-25275984D01*
X125476681Y-59883099D02*
X125433278Y-59904946D01*
X22095053Y-65566721D02*
X22116900Y-65523318D01*
X123940824Y-26408574D02*
X123940776Y-26408325D01*
X122171537Y-100761475D02*
X122194347Y-100751687D01*
X23009877Y-60000000D02*
X22990122Y-60000000D01*
X22400259Y-65194826D02*
X22439987Y-65166847D01*
X77296861Y-23980974D02*
X77249450Y-23970328D01*
X71424637Y-22611144D02*
X71442125Y-22656480D01*
X123628905Y-99444677D02*
X123687548Y-99332411D01*
X70703138Y-101019025D02*
X70750549Y-101029671D01*
X24620174Y-25173893D02*
X24545207Y-25275984D01*
X71383099Y-23476681D02*
X71359148Y-23518960D01*
X76529671Y-22749450D02*
X76542631Y-22702619D01*
X123538961Y-99597469D02*
X123539098Y-99597256D01*
X76825158Y-101256460D02*
X76861952Y-101224721D01*
X26558283Y-100967005D02*
X26683928Y-100983007D01*
X23957368Y-65702619D02*
X23970328Y-65749450D01*
X123454792Y-25275984D02*
X123379825Y-25173893D01*
X25296563Y-24530880D02*
X25276190Y-24545060D01*
X26114090Y-24134097D02*
X26113847Y-24134169D01*
X23155262Y-59989281D02*
X23107036Y-59995229D01*
X70843519Y-102942125D02*
X70797380Y-102957368D01*
X15003902Y-15002170D02*
X15003522Y-15002482D01*
X124702619Y-65042631D02*
X124749450Y-65029671D01*
X25805652Y-24248312D02*
X25805421Y-24248415D01*
X125989281Y-65844737D02*
X125995229Y-65892963D01*
X132990190Y-15000057D02*
X132987972Y-15000003D01*
X122332185Y-24312337D02*
X122309899Y-24301405D01*
X121909836Y-100858399D02*
X121910076Y-100858320D01*
X23998804Y-65941423D02*
X24000000Y-65990122D01*
X22057874Y-102343519D02*
X22042631Y-102297380D01*
X77296861Y-102980974D02*
X77249450Y-102970328D01*
X121885909Y-100865902D02*
X121886152Y-100865830D01*
X77296861Y-22019025D02*
X77344737Y-22010718D01*
X76900259Y-101194826D02*
X76939987Y-101166847D01*
X125775278Y-22361952D02*
X125805173Y-22400259D01*
X22481039Y-22140851D02*
X22523318Y-22116900D01*
X123075677Y-100165597D02*
X123075858Y-100165420D01*
X23859148Y-65481039D02*
X23883099Y-65523318D01*
X22566721Y-22095053D02*
X22611144Y-22075362D01*
X132999942Y-15009809D02*
X132999918Y-15009318D01*
X23995229Y-65892963D02*
X23998804Y-65941423D01*
X77023318Y-102883099D02*
X76981039Y-102859148D01*
X123940824Y-98591425D02*
X123963170Y-98466753D01*
X71470328Y-101749450D02*
X71480974Y-101796861D01*
X122597469Y-100538961D02*
X122703226Y-100469261D01*
X123900812Y-26236107D02*
X123900746Y-26235862D01*
X24064273Y-26383763D02*
X24064219Y-26384011D01*
X26860716Y-100996470D02*
X26993668Y-100999839D01*
X25402743Y-100539098D02*
X25423808Y-100552228D01*
X125674841Y-102743539D02*
X125638047Y-102775278D01*
X121910076Y-24141679D02*
X121909836Y-24141600D01*
X77249450Y-23970328D02*
X77202619Y-23957368D01*
X26835673Y-100995203D02*
X26860463Y-100996460D01*
X123967005Y-26558283D02*
X123966970Y-26558032D01*
X125883099Y-102476681D02*
X125859148Y-102518960D01*
X122963327Y-100267949D02*
X122963517Y-100267781D01*
X26114090Y-100865902D02*
X26235862Y-100900746D01*
X123963211Y-98466503D02*
X123966970Y-98441967D01*
X25555322Y-24371094D02*
X25555099Y-24371214D01*
X24004812Y-26835420D02*
X24004796Y-26835673D01*
X123165420Y-24924141D02*
X123075858Y-24834579D01*
X76789966Y-102710033D02*
X76756460Y-102674841D01*
X22656480Y-65057874D02*
X22702619Y-65042631D01*
X15000057Y-109990190D02*
X15000081Y-109990681D01*
X22116900Y-22523318D02*
X22140851Y-22481039D01*
X122703226Y-24530738D02*
X122597469Y-24461038D01*
X121291125Y-100985547D02*
X121315820Y-100983036D01*
X124941423Y-59998804D02*
X124892963Y-59995229D01*
X24301405Y-99309899D02*
X24312337Y-99332185D01*
X25173690Y-24620327D02*
X25154062Y-24635520D01*
X121164579Y-100995187D02*
X121290873Y-100985569D01*
X121591425Y-100940824D02*
X121591674Y-100940776D01*
X25173690Y-100379672D02*
X25173893Y-100379825D01*
X126000000Y-59009877D02*
X125998804Y-59058576D01*
X123379825Y-25173893D02*
X123379672Y-25173690D01*
X125833152Y-59560012D02*
X125805173Y-59599740D01*
X123858399Y-26090163D02*
X123858320Y-26089923D01*
X24033029Y-98441967D02*
X24036788Y-98466503D01*
X132998646Y-109994874D02*
X132998877Y-109994441D01*
X124361952Y-65224721D02*
X124400259Y-65194826D01*
X23970328Y-59250549D02*
X23957368Y-59297380D01*
X26709126Y-24014430D02*
X26708874Y-24014452D01*
X23805173Y-59599740D02*
X23775278Y-59638047D01*
X15009318Y-109999918D02*
X15009809Y-109999942D01*
X121591425Y-24059175D02*
X121466753Y-24036829D01*
X26993794Y-24000158D02*
X26993668Y-24000160D01*
X24715882Y-99944493D02*
X24732050Y-99963327D01*
X70558576Y-23998804D02*
X70509877Y-24000000D01*
X77249450Y-102970328D02*
X77202619Y-102957368D01*
X76666847Y-22439987D02*
X76694826Y-22400259D01*
X24003529Y-98139283D02*
X24003539Y-98139536D01*
X132987972Y-15000003D02*
X132987727Y-15000000D01*
X70607036Y-23995229D02*
X70558576Y-23998804D01*
X22004770Y-22892963D02*
X22010718Y-22844737D01*
X22400259Y-59805173D02*
X22361952Y-59775278D01*
X24447771Y-25423808D02*
X24447640Y-25424025D01*
X132994441Y-15001122D02*
X132993997Y-15000912D01*
X123999999Y-97993792D02*
X124000000Y-97993666D01*
X76542631Y-101702619D02*
X76557874Y-101656480D01*
X122309671Y-100698702D02*
X122309899Y-100698594D01*
X22004770Y-102107036D02*
X22001195Y-102058576D01*
X76529671Y-101749450D02*
X76542631Y-101702619D01*
X22019025Y-102203138D02*
X22010718Y-102155262D01*
X123075858Y-24834579D02*
X123075677Y-24834402D01*
X27006207Y-100999999D02*
X27006333Y-101000000D01*
X125250549Y-22029671D02*
X125297380Y-22042631D01*
X23674841Y-65256460D02*
X23710033Y-65289966D01*
X122030166Y-100817268D02*
X122053443Y-100808648D01*
X27006333Y-101000000D02*
X70509877Y-101000000D01*
X25667588Y-100687548D02*
X25667814Y-100687662D01*
X126000000Y-22990122D02*
X126000000Y-59009877D01*
X25946319Y-24191442D02*
X25828696Y-24238427D01*
X132996477Y-109997517D02*
X132996840Y-109997188D01*
X15001353Y-15005125D02*
X15001122Y-15005558D01*
X76981039Y-102859148D02*
X76939987Y-102833152D01*
X124796861Y-59980974D02*
X124749450Y-59970328D01*
X22325158Y-59743539D02*
X22289966Y-59710033D01*
X23924637Y-59388855D02*
X23904946Y-59433278D01*
X124194826Y-59599740D02*
X124166847Y-59560012D01*
X70933278Y-101095053D02*
X70976681Y-101116900D01*
X24834402Y-24924322D02*
X24817301Y-24942313D01*
X22749450Y-59970328D02*
X22702619Y-59957368D01*
X22892963Y-22004770D02*
X22941423Y-22001195D01*
X76789966Y-22289966D02*
X76825158Y-22256460D01*
X22796861Y-59980974D02*
X22749450Y-59970328D01*
X26089923Y-100858320D02*
X26090163Y-100858399D01*
X123165597Y-100075677D02*
X123182698Y-100057686D01*
X22166847Y-22439987D02*
X22194826Y-22400259D01*
X25969833Y-24182731D02*
X25946556Y-24191351D01*
X125638047Y-59775278D02*
X125599740Y-59805173D01*
X123539098Y-99597256D02*
X123552228Y-99576191D01*
X125009877Y-103000000D02*
X77490122Y-103000000D01*
X22611144Y-65075362D02*
X22656480Y-65057874D01*
X24004796Y-26835673D02*
X24003539Y-26860463D01*
X132997517Y-109996477D02*
X132997829Y-109996097D01*
X76756460Y-101325158D02*
X76789966Y-101289966D01*
X71500000Y-23009877D02*
X71498804Y-23058576D01*
X24732050Y-99963327D02*
X24732218Y-99963517D01*
X122053443Y-100808648D02*
X122053680Y-100808557D01*
X71480974Y-22796861D02*
X71489281Y-22844737D01*
X125433278Y-59904946D02*
X125388855Y-59924637D01*
X24141600Y-26090163D02*
X24134169Y-26113847D01*
X125924637Y-59388855D02*
X125904946Y-59433278D01*
X24620174Y-99826106D02*
X24620327Y-99826309D01*
X132999275Y-109993544D02*
X132999440Y-109993082D01*
X23560012Y-65166847D02*
X23599740Y-65194826D01*
X132999918Y-109990681D02*
X132999942Y-109990190D01*
X122194347Y-24248312D02*
X122171537Y-24238524D01*
X125883099Y-59476681D02*
X125859148Y-59518960D01*
X15000416Y-15007387D02*
X15000297Y-15007863D01*
X15000000Y-15012272D02*
X15000000Y-109987727D01*
X122703436Y-24530880D02*
X122703226Y-24530738D01*
X121739863Y-100907034D02*
X121763892Y-100900812D01*
X23250549Y-65029671D02*
X23297380Y-65042631D01*
X125058576Y-65001195D02*
X125107036Y-65004770D01*
X125743539Y-65325158D02*
X125775278Y-65361952D01*
X71457368Y-102297380D02*
X71442125Y-102343519D01*
X122723809Y-24545060D02*
X122703436Y-24530880D01*
X15000003Y-109987972D02*
X15000057Y-109990190D01*
X124566721Y-65095053D02*
X124611144Y-65075362D01*
X122309899Y-24301405D02*
X122309671Y-24301297D01*
X24460901Y-25402743D02*
X24447771Y-25423808D01*
X123751687Y-99194347D02*
X123761475Y-99171537D01*
X76640851Y-23518960D02*
X76616900Y-23476681D01*
X71489281Y-23155262D02*
X71480974Y-23203138D01*
X77490122Y-24000000D02*
X77441423Y-23998804D01*
X123817353Y-25970071D02*
X123817268Y-25969833D01*
X132995703Y-109998121D02*
X132996097Y-109997829D01*
X132994874Y-15001353D02*
X132994441Y-15001122D01*
X125904946Y-65566721D02*
X125924637Y-65611144D01*
X22749450Y-65029671D02*
X22796861Y-65019025D01*
X24371214Y-99444900D02*
X24383261Y-99466603D01*
X15006455Y-109999275D02*
X15006917Y-109999440D01*
X15003522Y-15002482D02*
X15003159Y-15002811D01*
X121466753Y-100963170D02*
X121591425Y-100940824D01*
X123935726Y-26383763D02*
X123907095Y-26260382D01*
X26260136Y-24092965D02*
X26236107Y-24099187D01*
X71442125Y-102343519D02*
X71424637Y-102388855D01*
X132987727Y-15000000D02*
X15012272Y-15000000D01*
X24182646Y-99029928D02*
X24182731Y-99030166D01*
X121739617Y-100907095D02*
X121739863Y-100907034D01*
X77156480Y-23942125D02*
X77111144Y-23924637D01*
X122171303Y-100761572D02*
X122171537Y-100761475D01*
X125710033Y-22289966D02*
X125743539Y-22325158D01*
X124611144Y-59924637D02*
X124566721Y-59904946D01*
X132993082Y-15000559D02*
X132992612Y-15000416D01*
X77490122Y-101000000D02*
X120993666Y-101000000D01*
X15009809Y-109999942D02*
X15012027Y-109999996D01*
X24301297Y-99309671D02*
X24301405Y-99309899D01*
X26558032Y-100966970D02*
X26558283Y-100967005D01*
X22019025Y-65796861D02*
X22029671Y-65749450D01*
X23107036Y-65004770D02*
X23155262Y-65010718D01*
X123761572Y-99171303D02*
X123808557Y-99053680D01*
X23343519Y-65057874D02*
X23388855Y-65075362D01*
X22010718Y-65844737D02*
X22019025Y-65796861D01*
X26993668Y-100999839D02*
X26993794Y-100999841D01*
X125155262Y-22010718D02*
X125203138Y-22019025D01*
X22702619Y-22042631D02*
X22749450Y-22029671D01*
X22004770Y-59107036D02*
X22001195Y-59058576D01*
X123995187Y-26835420D02*
X123985569Y-26709126D01*
X71498804Y-102058576D02*
X71495229Y-102107036D01*
X132996097Y-15002170D02*
X132995703Y-15001878D01*
X123165420Y-100075858D02*
X123165597Y-100075677D01*
X22611144Y-102924637D02*
X22566721Y-102904946D01*
X123552359Y-25424025D02*
X123552228Y-25423808D01*
X125433278Y-22095053D02*
X125476681Y-22116900D01*
X24036829Y-26533246D02*
X24036788Y-26533496D01*
X125995229Y-65892963D02*
X125998804Y-65941423D01*
X125203138Y-102980974D02*
X125155262Y-102989281D01*
X76939987Y-23833152D02*
X76900259Y-23805173D01*
X15004704Y-109998394D02*
X15005125Y-109998646D01*
X123538961Y-25402530D02*
X123469261Y-25296773D01*
X76575362Y-102388855D02*
X76557874Y-102343519D01*
X76519025Y-22796861D02*
X76529671Y-22749450D01*
X15012272Y-110000000D02*
X132987727Y-110000000D01*
X22140851Y-65481039D02*
X22166847Y-65439987D01*
X71500000Y-23009877D02*
X71500000Y-23009877D01*
X71174841Y-22256460D02*
X71210033Y-22289966D01*
X121739863Y-24092965D02*
X121739617Y-24092904D01*
X71442125Y-23343519D02*
X71424637Y-23388855D01*
X122826106Y-100379825D02*
X122826309Y-100379672D01*
X123687662Y-25667814D02*
X123687548Y-25667588D01*
X70797380Y-23957368D02*
X70750549Y-23970328D01*
X22361952Y-22224721D02*
X22400259Y-22194826D01*
X125980974Y-102203138D02*
X125970328Y-102250549D01*
X123999839Y-26993668D02*
X123996470Y-26860716D01*
X123761572Y-25828696D02*
X123761475Y-25828462D01*
X125599740Y-59805173D02*
X125560012Y-59833152D01*
X15006917Y-109999440D02*
X15007387Y-109999583D01*
X23107036Y-59995229D02*
X23058576Y-59998804D01*
X15003522Y-109997517D02*
X15003902Y-109997829D01*
X24099253Y-26235862D02*
X24099187Y-26236107D01*
X70888855Y-101075362D02*
X70933278Y-101095053D01*
X15005558Y-109998877D02*
X15006002Y-109999087D01*
X132999870Y-15008830D02*
X132999798Y-15008344D01*
X15009809Y-15000057D02*
X15009809Y-15000057D01*
X24182731Y-25969833D02*
X24182646Y-25970071D01*
X77392963Y-101004770D02*
X77441423Y-101001195D01*
X132995295Y-109998394D02*
X132995703Y-109998121D01*
X24000160Y-98006331D02*
X24003529Y-98139283D01*
X15002811Y-15003159D02*
X15002482Y-15003522D01*
X124844737Y-59989281D02*
X124796861Y-59980974D01*
X123858399Y-98909836D02*
X123865830Y-98886152D01*
X124256460Y-59674841D02*
X124224721Y-59638047D01*
X15009318Y-15000081D02*
X15008830Y-15000129D01*
X123057686Y-24817301D02*
X123057500Y-24817128D01*
X124702619Y-59957368D02*
X124656480Y-59942125D01*
X24134169Y-26113847D02*
X24134097Y-26114090D01*
X77249450Y-101029671D02*
X77296861Y-101019025D01*
X122944493Y-100284117D02*
X122963327Y-100267949D01*
X124990122Y-65000000D02*
X125009877Y-65000000D01*
X26533496Y-24036788D02*
X26533246Y-24036829D01*
X76640851Y-101481039D02*
X76666847Y-101439987D01*
X24036788Y-26533496D02*
X24033029Y-26558032D01*
X76756460Y-102674841D02*
X76724721Y-102638047D01*
X121006331Y-24000160D02*
X121006205Y-24000158D01*
X24635520Y-99845937D02*
X24635678Y-99846136D01*
X15008344Y-15000201D02*
X15007863Y-15000297D01*
X76724721Y-102638047D02*
X76694826Y-102599740D01*
X70750549Y-101029671D02*
X70797380Y-101042631D01*
X123985569Y-26709126D02*
X123985547Y-26708874D01*
X25424025Y-100552359D02*
X25533176Y-100616613D01*
X122029928Y-100817353D02*
X122030166Y-100817268D01*
X77202619Y-101042631D02*
X77249450Y-101029671D01*
X124095053Y-65566721D02*
X124116900Y-65523318D01*
X76504770Y-23107036D02*
X76501195Y-23058576D01*
X125560012Y-22166847D02*
X125599740Y-22194826D01*
X24635678Y-99846136D02*
X24715719Y-99944299D01*
X124656480Y-65057874D02*
X124702619Y-65042631D01*
X125833152Y-22439987D02*
X125859148Y-22481039D01*
X132999942Y-109990190D02*
X132999996Y-109987972D01*
X121316071Y-100983007D02*
X121441716Y-100967005D01*
X22656480Y-102942125D02*
X22611144Y-102924637D01*
X123364321Y-99846136D02*
X123364479Y-99845937D01*
X132993544Y-109999275D02*
X132993997Y-109999087D01*
X76724721Y-23638047D02*
X76694826Y-23599740D01*
X76542631Y-22702619D02*
X76557874Y-22656480D01*
X125859148Y-22481039D02*
X125883099Y-22523318D01*
X24141679Y-98910076D02*
X24182646Y-99029928D01*
X26860463Y-100996460D02*
X26860716Y-100996470D01*
X22194826Y-59599740D02*
X22166847Y-59560012D01*
X15000297Y-109992136D02*
X15000416Y-109992612D01*
X22256460Y-102674841D02*
X22224721Y-102638047D01*
X22224721Y-59638047D02*
X22194826Y-59599740D01*
X125989281Y-59155262D02*
X125980974Y-59203138D01*
X22566721Y-59904946D02*
X22523318Y-59883099D01*
X22029671Y-59250549D02*
X22019025Y-59203138D01*
X71470328Y-23250549D02*
X71457368Y-23297380D01*
X121591674Y-100940776D02*
X121615988Y-100935780D01*
X24924141Y-24834579D02*
X24834579Y-24924141D01*
X125297380Y-22042631D02*
X125343519Y-22057874D01*
X22439987Y-22166847D02*
X22481039Y-22140851D01*
X24312337Y-25667814D02*
X24301405Y-25690100D01*
X70888855Y-22075362D02*
X70933278Y-22095053D01*
X26113847Y-100865830D02*
X26114090Y-100865902D01*
X76616900Y-101523318D02*
X76640851Y-101481039D01*
X22000000Y-22990122D02*
X22001195Y-22941423D01*
X71457368Y-23297380D02*
X71442125Y-23343519D01*
X24817128Y-24942499D02*
X24732218Y-25036482D01*
X121886152Y-24134169D02*
X121885909Y-24134097D01*
X121615988Y-100935780D02*
X121616236Y-100935726D01*
X15000724Y-15006455D02*
X15000559Y-15006917D01*
X24530880Y-99703436D02*
X24545060Y-99723809D01*
X23904946Y-65566721D02*
X23924637Y-65611144D01*
X25036482Y-100267781D02*
X25036672Y-100267949D01*
X25153863Y-100364321D02*
X25154062Y-100364479D01*
X124116900Y-65523318D02*
X124140851Y-65481039D01*
X120993666Y-101000000D02*
X120993792Y-100999999D01*
X71470328Y-102250549D02*
X71457368Y-102297380D01*
X76501195Y-22941423D02*
X76504770Y-22892963D01*
X76694826Y-23599740D02*
X76666847Y-23560012D01*
X122444677Y-100628905D02*
X122444900Y-100628785D01*
X23775278Y-65361952D02*
X23805173Y-65400259D01*
X22749450Y-22029671D02*
X22796861Y-22019025D01*
X77066721Y-101095053D02*
X77111144Y-101075362D01*
X25667814Y-24312337D02*
X25667588Y-24312451D01*
X71243539Y-22325158D02*
X71275278Y-22361952D01*
X125058576Y-59998804D02*
X125009877Y-60000000D01*
X125970328Y-65749450D02*
X125980974Y-65796861D01*
X15001878Y-15004296D02*
X15001605Y-15004704D01*
X125155262Y-102989281D02*
X125107036Y-102995229D01*
X124140851Y-65481039D02*
X124166847Y-65439987D01*
X122171303Y-24238427D02*
X122053680Y-24191442D01*
X27006207Y-24000000D02*
X26993794Y-24000158D01*
X24942313Y-24817301D02*
X24924322Y-24834402D01*
X26835673Y-24004796D02*
X26835420Y-24004812D01*
X132996477Y-15002482D02*
X132996097Y-15002170D01*
X15000912Y-109993997D02*
X15001122Y-109994441D01*
X15001605Y-15004704D02*
X15001353Y-15005125D01*
X125155262Y-65010718D02*
X125203138Y-65019025D01*
X123808557Y-99053680D02*
X123808648Y-99053443D01*
X22523318Y-59883099D02*
X22481039Y-59859148D01*
X24545060Y-99723809D02*
X24545207Y-99724015D01*
X76595053Y-102433278D02*
X76575362Y-102388855D01*
X122597256Y-24460901D02*
X122576191Y-24447771D01*
X132991655Y-15000201D02*
X132991169Y-15000129D01*
X71138047Y-102775278D02*
X71099740Y-102805173D01*
X25533396Y-100616738D02*
X25555099Y-100628785D01*
X125998804Y-65941423D02*
X126000000Y-65990122D01*
X122826106Y-24620174D02*
X122724015Y-24545207D01*
X70607036Y-22004770D02*
X70655262Y-22010718D01*
X123907095Y-98739617D02*
X123935726Y-98616236D01*
X77202619Y-22042631D02*
X77249450Y-22029671D01*
X125343519Y-102942125D02*
X125297380Y-102957368D01*
X125980974Y-65796861D02*
X125989281Y-65844737D01*
X76900259Y-102805173D02*
X76861952Y-102775278D01*
X122963327Y-24732050D02*
X122944493Y-24715882D01*
X22224721Y-102638047D02*
X22194826Y-102599740D01*
X25533396Y-24383261D02*
X25533176Y-24383386D01*
X24248415Y-99194578D02*
X24301297Y-99309671D01*
X122944299Y-24715719D02*
X122846136Y-24635678D01*
X125957368Y-65702619D02*
X125970328Y-65749450D01*
X123379825Y-99826106D02*
X123454792Y-99724015D01*
X22844737Y-59989281D02*
X22796861Y-59980974D01*
X121763892Y-100900812D02*
X121764137Y-100900746D01*
X24003539Y-26860463D02*
X24003529Y-26860716D01*
X22796861Y-22019025D02*
X22844737Y-22010718D01*
X25036482Y-24732218D02*
X24942499Y-24817128D01*
X76724721Y-101361952D02*
X76756460Y-101325158D01*
X123935780Y-98615988D02*
X123940776Y-98591674D01*
X25690100Y-100698594D02*
X25690328Y-100698702D01*
X25275984Y-24545207D02*
X25173893Y-24620174D01*
X132991655Y-109999798D02*
X132992136Y-109999702D01*
X124796861Y-65019025D02*
X124844737Y-65010718D01*
X132993082Y-109999440D02*
X132993544Y-109999275D01*
X123469119Y-25296563D02*
X123454939Y-25276190D01*
X71442125Y-101656480D02*
X71457368Y-101702619D01*
X71424637Y-102388855D02*
X71404946Y-102433278D01*
X25036672Y-24732050D02*
X25036482Y-24732218D01*
X124194826Y-65400259D02*
X124224721Y-65361952D01*
X122194347Y-100751687D02*
X122194578Y-100751584D01*
X77023318Y-23883099D02*
X76981039Y-23859148D01*
X24092965Y-98739863D02*
X24099187Y-98763892D01*
X24003539Y-98139536D02*
X24004796Y-98164326D01*
X22289966Y-22289966D02*
X22325158Y-22256460D01*
X24924322Y-100165597D02*
X24942313Y-100182698D01*
X24134097Y-98885909D02*
X24134169Y-98886152D01*
X76542631Y-23297380D02*
X76529671Y-23250549D01*
X71138047Y-23775278D02*
X71099740Y-23805173D01*
X121466503Y-100963211D02*
X121466753Y-100963170D01*
X124611144Y-65075362D02*
X124656480Y-65057874D01*
X132996097Y-109997829D02*
X132996477Y-109997517D01*
X22749450Y-102970328D02*
X22702619Y-102957368D01*
X25055700Y-100284280D02*
X25153863Y-100364321D01*
X22990122Y-60000000D02*
X22941423Y-59998804D01*
X122466823Y-24383386D02*
X122466603Y-24383261D01*
X76595053Y-101566721D02*
X76616900Y-101523318D01*
X124361952Y-59775278D02*
X124325158Y-59743539D01*
X26993668Y-24000160D02*
X26860716Y-24003529D01*
X24099187Y-26236107D02*
X24092965Y-26260136D01*
X125250549Y-59970328D02*
X125203138Y-59980974D01*
X122724015Y-24545207D02*
X122723809Y-24545060D01*
X132992136Y-109999702D02*
X132992612Y-109999583D01*
X26383763Y-100935726D02*
X26384011Y-100935780D01*
X123985569Y-98290873D02*
X123995187Y-98164579D01*
X125674841Y-65256460D02*
X125710033Y-65289966D01*
X22057874Y-22656480D02*
X22075362Y-22611144D01*
X123182871Y-100057500D02*
X123267781Y-99963517D01*
X25153863Y-24635678D02*
X25055700Y-24715719D01*
X24016992Y-98316071D02*
X24032994Y-98441716D01*
X70843519Y-101057874D02*
X70888855Y-101075362D01*
X71500000Y-101990122D02*
X71500000Y-102009877D01*
X22042631Y-102297380D02*
X22029671Y-102250549D01*
X125924637Y-102388855D02*
X125904946Y-102433278D01*
X70843519Y-23942125D02*
X70797380Y-23957368D01*
X15004296Y-109998121D02*
X15004704Y-109998394D01*
X24383386Y-99466823D02*
X24447640Y-99575974D01*
X132999996Y-15012027D02*
X132999942Y-15009809D01*
X22289966Y-65289966D02*
X22325158Y-65256460D01*
X22656480Y-59942125D02*
X22611144Y-59924637D01*
X15003902Y-109997829D02*
X15004296Y-109998121D01*
X121315820Y-100983036D02*
X121316071Y-100983007D01*
X25296773Y-24530738D02*
X25296563Y-24530880D01*
X24834579Y-24924141D02*
X24834402Y-24924322D01*
X22095053Y-102433278D02*
X22075362Y-102388855D01*
X123552228Y-99576191D02*
X123552359Y-99575974D01*
X123552228Y-25423808D02*
X123539098Y-25402743D01*
X123057500Y-24817128D02*
X122963517Y-24732218D01*
X125904946Y-22566721D02*
X125924637Y-22611144D01*
X24383261Y-25533396D02*
X24371214Y-25555099D01*
X23388855Y-65075362D02*
X23433278Y-65095053D01*
X22892963Y-102995229D02*
X22844737Y-102989281D01*
X132998394Y-15004704D02*
X132998121Y-15004296D01*
X77392963Y-102995229D02*
X77344737Y-102989281D01*
X132999996Y-109987972D02*
X133000000Y-109987727D01*
X71383099Y-101523318D02*
X71404946Y-101566721D01*
X125674841Y-22256460D02*
X125710033Y-22289966D01*
X77490122Y-22000000D02*
X125009877Y-22000000D01*
X124400259Y-59805173D02*
X124361952Y-59775278D01*
X24004796Y-98164326D02*
X24004812Y-98164579D01*
X125805173Y-59599740D02*
X125775278Y-59638047D01*
X24014430Y-26709126D02*
X24004812Y-26835420D01*
X123182871Y-24942499D02*
X123182698Y-24942313D01*
X76557874Y-22656480D02*
X76575362Y-22611144D01*
X25555099Y-100628785D02*
X25555322Y-100628905D01*
X24834579Y-100075858D02*
X24924141Y-100165420D01*
X15000912Y-15006002D02*
X15000724Y-15006455D01*
X22361952Y-65224721D02*
X22400259Y-65194826D01*
X121739617Y-24092904D02*
X121616236Y-24064273D01*
X76694826Y-101400259D02*
X76724721Y-101361952D01*
X123616738Y-25533396D02*
X123616613Y-25533176D01*
X15002482Y-15003522D02*
X15002170Y-15003902D01*
X125297380Y-59957368D02*
X125250549Y-59970328D01*
X122845937Y-24635520D02*
X122826309Y-24620327D01*
X132999440Y-109993082D02*
X132999583Y-109992612D01*
X76510718Y-22844737D02*
X76519025Y-22796861D01*
X71489281Y-102155262D02*
X71480974Y-102203138D01*
X23883099Y-59476681D02*
X23859148Y-59518960D01*
X125250549Y-65029671D02*
X125297380Y-65042631D01*
X124010718Y-59155262D02*
X124004770Y-59107036D01*
X26236107Y-24099187D02*
X26235862Y-24099253D01*
X71138047Y-101224721D02*
X71174841Y-101256460D01*
X15006002Y-15000912D02*
X15005558Y-15001122D01*
X125743539Y-59674841D02*
X125710033Y-59710033D01*
X24064219Y-26384011D02*
X24059223Y-26408325D01*
X123469261Y-25296773D02*
X123469119Y-25296563D01*
X123364321Y-25153863D02*
X123284280Y-25055700D01*
X76575362Y-23388855D02*
X76557874Y-23343519D01*
X122846136Y-24635678D02*
X122845937Y-24635520D01*
X121164326Y-24004796D02*
X121139536Y-24003539D01*
X22656480Y-22057874D02*
X22702619Y-22042631D01*
X125957368Y-22702619D02*
X125970328Y-22749450D01*
X22075362Y-59388855D02*
X22057874Y-59343519D01*
X121466503Y-24036788D02*
X121441967Y-24033029D01*
X76640851Y-22481039D02*
X76666847Y-22439987D01*
X23833152Y-65439987D02*
X23859148Y-65481039D01*
X23433278Y-65095053D02*
X23476681Y-65116900D01*
X123900746Y-98764137D02*
X123900812Y-98763892D01*
X125476681Y-22116900D02*
X125518960Y-22140851D01*
X125710033Y-59710033D02*
X125674841Y-59743539D01*
X24238524Y-99171537D02*
X24248312Y-99194347D01*
X123616613Y-25533176D02*
X123552359Y-25424025D01*
X22941423Y-65001195D02*
X22990122Y-65000000D01*
X15001122Y-109994441D02*
X15001353Y-109994874D01*
X24014452Y-26708874D02*
X24014430Y-26709126D01*
X76595053Y-23433278D02*
X76575362Y-23388855D01*
X25555322Y-100628905D02*
X25667588Y-100687548D01*
X121466753Y-24036829D02*
X121466503Y-24036788D01*
X24036788Y-98466503D02*
X24036829Y-98466753D01*
X24248415Y-25805421D02*
X24248312Y-25805652D01*
X126000000Y-65990122D02*
X126000000Y-102009877D01*
X132994441Y-109998877D02*
X132994874Y-109998646D01*
X15002482Y-109996477D02*
X15002811Y-109996840D01*
X24003529Y-26860716D02*
X24000160Y-26993668D01*
X15003159Y-109997188D02*
X15003522Y-109997517D01*
X132999870Y-109991169D02*
X132999918Y-109990681D01*
X125560012Y-65166847D02*
X125599740Y-65194826D01*
X123996470Y-26860716D02*
X123996460Y-26860463D01*
X122703436Y-100469119D02*
X122723809Y-100454939D01*
X122332411Y-100687548D02*
X122444677Y-100628905D01*
X25423808Y-100552228D02*
X25424025Y-100552359D01*
X121886152Y-100865830D02*
X121909836Y-100858399D01*
X123808648Y-25946556D02*
X123808557Y-25946319D01*
X76519025Y-23203138D02*
X76510718Y-23155262D01*
X24817301Y-24942313D02*
X24817128Y-24942499D01*
X22844737Y-65010718D02*
X22892963Y-65004770D01*
X124481039Y-65140851D02*
X124523318Y-65116900D01*
X26408574Y-100940824D02*
X26533246Y-100963170D01*
X24191442Y-99053680D02*
X24238427Y-99171303D01*
X125058576Y-102998804D02*
X125009877Y-103000000D01*
X123628905Y-25555322D02*
X123628785Y-25555099D01*
X125599740Y-102805173D02*
X125560012Y-102833152D01*
X123907095Y-26260382D02*
X123907034Y-26260136D01*
X125560012Y-102833152D02*
X125518960Y-102859148D01*
X25154062Y-24635520D02*
X25153863Y-24635678D01*
X125957368Y-59297380D02*
X125942125Y-59343519D01*
X23743539Y-59674841D02*
X23710033Y-59710033D01*
X15005125Y-15001353D02*
X15004704Y-15001605D01*
X76519025Y-101796861D02*
X76529671Y-101749450D01*
X24371214Y-25555099D02*
X24371094Y-25555322D01*
X125343519Y-22057874D02*
X125388855Y-22075362D01*
X76529671Y-102250549D02*
X76519025Y-102203138D01*
X22256460Y-65325158D02*
X22289966Y-65289966D01*
X22844737Y-22010718D02*
X22892963Y-22004770D01*
X71480974Y-23203138D02*
X71470328Y-23250549D01*
X24000000Y-27006207D02*
X24000000Y-27006333D01*
X122444677Y-24371094D02*
X122332411Y-24312451D01*
X23980974Y-59203138D02*
X23970328Y-59250549D01*
X125970328Y-59250549D02*
X125957368Y-59297380D01*
X25275984Y-100454792D02*
X25276190Y-100454939D01*
X71060012Y-101166847D02*
X71099740Y-101194826D01*
X70976681Y-22116900D02*
X71018960Y-22140851D01*
X122029928Y-24182646D02*
X121910076Y-24141679D01*
X24834402Y-100075677D02*
X24834579Y-100075858D01*
X22116900Y-59476681D02*
X22095053Y-59433278D01*
X76640851Y-102518960D02*
X76616900Y-102476681D01*
X124029671Y-65749450D02*
X124042631Y-65702619D01*
X124095053Y-59433278D02*
X124075362Y-59388855D01*
X121764137Y-100900746D02*
X121885909Y-100865902D01*
X15000003Y-15012027D02*
X15000000Y-15012272D01*
X125674841Y-59743539D02*
X125638047Y-59775278D01*
X23957368Y-59297380D02*
X23942125Y-59343519D01*
X22057874Y-59343519D02*
X22042631Y-59297380D01*
X26113847Y-24134169D02*
X26090163Y-24141600D01*
X132998877Y-109994441D02*
X132999087Y-109993997D01*
X26558032Y-24033029D02*
X26533496Y-24036788D01*
X125388855Y-65075362D02*
X125433278Y-65095053D01*
X76501195Y-23058576D02*
X76500000Y-23009877D01*
X24000160Y-26993668D02*
X24000158Y-26993794D01*
X121909836Y-24141600D02*
X121886152Y-24134169D01*
X124656480Y-59942125D02*
X124611144Y-59924637D01*
X121910076Y-100858320D02*
X122029928Y-100817353D01*
X23009877Y-65000000D02*
X23058576Y-65001195D01*
X71018960Y-102859148D02*
X70976681Y-102883099D01*
X70933278Y-22095053D02*
X70976681Y-22116900D01*
X123379672Y-25173690D02*
X123364479Y-25154062D01*
X22566721Y-102904946D02*
X22523318Y-102883099D01*
X22523318Y-102883099D02*
X22481039Y-102859148D01*
X26533246Y-24036829D02*
X26408574Y-24059175D01*
X71442125Y-22656480D02*
X71457368Y-22702619D01*
X133000000Y-15012272D02*
X132999996Y-15012027D01*
X123284117Y-99944493D02*
X123284280Y-99944299D01*
X123808648Y-99053443D02*
X123817268Y-99030166D01*
X77023318Y-22116900D02*
X77066721Y-22095053D01*
X123698702Y-99309671D02*
X123751584Y-99194578D01*
X23058576Y-65001195D02*
X23107036Y-65004770D01*
X25276190Y-24545060D02*
X25275984Y-24545207D01*
X123985547Y-98291125D02*
X123985569Y-98290873D01*
X24620327Y-25173690D02*
X24620174Y-25173893D01*
X125638047Y-102775278D02*
X125599740Y-102805173D01*
X25055506Y-24715882D02*
X25036672Y-24732050D01*
X22166847Y-59560012D02*
X22140851Y-59518960D01*
X26090163Y-100858399D02*
X26113847Y-100865830D01*
X124166847Y-65439987D02*
X124194826Y-65400259D01*
X123539098Y-25402743D02*
X123538961Y-25402530D01*
X23518960Y-59859148D02*
X23476681Y-59883099D01*
X24191351Y-25946556D02*
X24182731Y-25969833D01*
X24545207Y-99724015D02*
X24620174Y-99826106D01*
X23518960Y-65140851D02*
X23560012Y-65166847D01*
X76666847Y-102560012D02*
X76640851Y-102518960D01*
X71495229Y-102107036D02*
X71489281Y-102155262D01*
X23250549Y-59970328D02*
X23203138Y-59980974D01*
X123698594Y-99309899D02*
X123698702Y-99309671D01*
X132994874Y-109998646D02*
X132995295Y-109998394D01*
X15008344Y-109999798D02*
X15008830Y-109999870D01*
X132987972Y-109999996D02*
X132990190Y-109999942D01*
X22095053Y-59433278D02*
X22075362Y-59388855D01*
X22796861Y-65019025D02*
X22844737Y-65010718D01*
X23942125Y-59343519D02*
X23924637Y-59388855D01*
X123687548Y-99332411D02*
X123687662Y-99332185D01*
X125995229Y-59107036D02*
X125989281Y-59155262D01*
X124400259Y-65194826D02*
X124439987Y-65166847D01*
X125957368Y-102297380D02*
X125942125Y-102343519D01*
X76500000Y-23009877D02*
X76500000Y-22990122D01*
X23297380Y-65042631D02*
X23343519Y-65057874D01*
X123999841Y-26993794D02*
X123999839Y-26993668D01*
X25828696Y-24238427D02*
X25828462Y-24238524D01*
X76504770Y-102107036D02*
X76501195Y-102058576D01*
X124001195Y-59058576D02*
X124000000Y-59009877D01*
X125924637Y-65611144D02*
X125942125Y-65656480D01*
X24238524Y-25828462D02*
X24238427Y-25828696D01*
X15001122Y-15005558D02*
X15000912Y-15006002D01*
X15006917Y-15000559D02*
X15006455Y-15000724D01*
X121290873Y-100985569D02*
X121291125Y-100985547D01*
X76500000Y-22990122D02*
X76501195Y-22941423D01*
X132999798Y-109991655D02*
X132999870Y-109991169D01*
X76501195Y-102058576D02*
X76500000Y-102009877D01*
X71500000Y-102009877D02*
X71498804Y-102058576D01*
X123364479Y-25154062D02*
X123364321Y-25153863D01*
X76616900Y-102476681D02*
X76595053Y-102433278D01*
X76789966Y-101289966D02*
X76825158Y-101256460D01*
X71333152Y-102560012D02*
X71305173Y-102599740D01*
X70607036Y-101004770D02*
X70655262Y-101010718D01*
X22194826Y-65400259D02*
X22224721Y-65361952D01*
X123182698Y-100057686D02*
X123182871Y-100057500D01*
X22116900Y-102476681D02*
X22095053Y-102433278D01*
X23859148Y-59518960D02*
X23833152Y-59560012D01*
X125775278Y-59638047D02*
X125743539Y-59674841D01*
X70703138Y-102980974D02*
X70655262Y-102989281D01*
X125343519Y-65057874D02*
X125388855Y-65075362D01*
X22439987Y-102833152D02*
X22400259Y-102805173D01*
X77392963Y-22004770D02*
X77441423Y-22001195D01*
X22361952Y-102775278D02*
X22325158Y-102743539D01*
X22325158Y-22256460D02*
X22361952Y-22224721D01*
X124749450Y-59970328D02*
X124702619Y-59957368D01*
X24238427Y-99171303D02*
X24238524Y-99171537D01*
X76939987Y-101166847D02*
X76981039Y-101140851D01*
X122194578Y-100751584D02*
X122309671Y-100698702D01*
X24000000Y-97993666D02*
X24000000Y-97993792D01*
X124256460Y-65325158D02*
X124289966Y-65289966D01*
X24301297Y-25690328D02*
X24248415Y-25805421D01*
X25533176Y-100616613D02*
X25533396Y-100616738D01*
X123966970Y-26558032D02*
X123963211Y-26533496D01*
X123284280Y-99944299D02*
X123364321Y-99846136D01*
X24817301Y-100057686D02*
X24834402Y-100075677D01*
X24182731Y-99030166D02*
X24191351Y-99053443D01*
X125297380Y-65042631D02*
X125343519Y-65057874D01*
X25690100Y-24301405D02*
X25667814Y-24312337D01*
X70703138Y-23980974D02*
X70655262Y-23989281D01*
X125942125Y-65656480D02*
X125957368Y-65702619D01*
X122846136Y-100364321D02*
X122944299Y-100284280D01*
X23674841Y-59743539D02*
X23638047Y-59775278D01*
X70750549Y-102970328D02*
X70703138Y-102980974D01*
X123865902Y-98885909D02*
X123900746Y-98764137D01*
X123628785Y-25555099D02*
X123616738Y-25533396D01*
X121591674Y-24059223D02*
X121591425Y-24059175D01*
X132999702Y-15007863D02*
X132999583Y-15007387D01*
X121164579Y-24004812D02*
X121164326Y-24004796D01*
X23560012Y-59833152D02*
X23518960Y-59859148D01*
X22941423Y-59998804D02*
X22892963Y-59995229D01*
X26835420Y-24004812D02*
X26709126Y-24014430D01*
X25533176Y-24383386D02*
X25424025Y-24447640D01*
X121316071Y-24016992D02*
X121315820Y-24016963D01*
X25402530Y-24461038D02*
X25296773Y-24530738D01*
X22796861Y-102980974D02*
X22749450Y-102970328D01*
X22001195Y-22941423D02*
X22004770Y-22892963D01*
X24016963Y-98315820D02*
X24016992Y-98316071D01*
X22611144Y-22075362D02*
X22656480Y-22057874D01*
X123687662Y-99332185D02*
X123698594Y-99309899D01*
X71060012Y-102833152D02*
X71018960Y-102859148D01*
X15007863Y-15000297D02*
X15007387Y-15000416D01*
X123996470Y-98139283D02*
X123999839Y-98006331D01*
X25946556Y-100808648D02*
X25969833Y-100817268D01*
X22194826Y-102599740D02*
X22166847Y-102560012D01*
X71060012Y-22166847D02*
X71099740Y-22194826D01*
X125107036Y-65004770D02*
X125155262Y-65010718D01*
X122466603Y-24383261D02*
X122444900Y-24371214D01*
X22042631Y-22702619D02*
X22057874Y-22656480D01*
X70655262Y-22010718D02*
X70703138Y-22019025D01*
X76557874Y-102343519D02*
X76542631Y-102297380D01*
X120993792Y-100999999D02*
X121006205Y-100999841D01*
X77202619Y-102957368D02*
X77156480Y-102942125D01*
X124029671Y-59250549D02*
X124019025Y-59203138D01*
X123999839Y-98006331D02*
X123999841Y-98006205D01*
X122963517Y-100267781D02*
X123057500Y-100182871D01*
X125989281Y-22844737D02*
X125995229Y-22892963D01*
X77066721Y-102904946D02*
X77023318Y-102883099D01*
X132998121Y-15004296D02*
X132997829Y-15003902D01*
X22019025Y-59203138D02*
X22010718Y-59155262D01*
X121315820Y-24016963D02*
X121291125Y-24014452D01*
X71275278Y-22361952D02*
X71305173Y-22400259D01*
X70509877Y-101000000D02*
X70558576Y-101001195D01*
X132996840Y-15002811D02*
X132996477Y-15002482D01*
X71495229Y-101892963D02*
X71498804Y-101941423D01*
X71305173Y-23599740D02*
X71275278Y-23638047D01*
X25946556Y-24191351D02*
X25946319Y-24191442D01*
X76501195Y-101941423D02*
X76504770Y-101892963D01*
X125859148Y-102518960D02*
X125833152Y-102560012D01*
X125924637Y-22611144D02*
X125942125Y-22656480D01*
X76756460Y-23674841D02*
X76724721Y-23638047D01*
X24817128Y-100057500D02*
X24817301Y-100057686D01*
X70843519Y-22057874D02*
X70888855Y-22075362D01*
X77441423Y-23998804D02*
X77392963Y-23995229D01*
X15004704Y-15001605D02*
X15004296Y-15001878D01*
X15000057Y-15009809D02*
X15000003Y-15012027D01*
X123267949Y-25036672D02*
X123267781Y-25036482D01*
X70558576Y-101001195D02*
X70607036Y-101004770D01*
X24732050Y-25036672D02*
X24715882Y-25055506D01*
X25805421Y-24248415D02*
X25690328Y-24301297D01*
X124000000Y-97993666D02*
X124000000Y-65990122D01*
X124075362Y-59388855D02*
X124057874Y-59343519D01*
X125203138Y-22019025D02*
X125250549Y-22029671D01*
X123858320Y-26089923D02*
X123817353Y-25970071D01*
X22000000Y-102009877D02*
X22000000Y-65990122D01*
X23995229Y-59107036D02*
X23989281Y-59155262D01*
X22439987Y-65166847D02*
X22481039Y-65140851D01*
X25969833Y-100817268D02*
X25970071Y-100817353D01*
X71210033Y-101289966D02*
X71243539Y-101325158D01*
X125107036Y-22004770D02*
X125155262Y-22010718D01*
X124990122Y-60000000D02*
X124990122Y-60000000D01*
X76789966Y-23710033D02*
X76756460Y-23674841D01*
X15007387Y-109999583D02*
X15007863Y-109999702D01*
X24191442Y-25946319D02*
X24191351Y-25946556D01*
X123907034Y-98739863D02*
X123907095Y-98739617D01*
X26408325Y-100940776D02*
X26408574Y-100940824D01*
X76825158Y-23743539D02*
X76789966Y-23710033D01*
X70558576Y-102998804D02*
X70509877Y-103000000D01*
X70509877Y-103000000D02*
X22990122Y-103000000D01*
X77066721Y-22095053D02*
X77111144Y-22075362D01*
X77156480Y-102942125D02*
X77111144Y-102924637D01*
X24032994Y-98441716D02*
X24033029Y-98441967D01*
X22057874Y-65656480D02*
X22075362Y-65611144D01*
X22140851Y-102518960D02*
X22116900Y-102476681D01*
X132999583Y-109992612D02*
X132999702Y-109992136D01*
X24942313Y-100182698D02*
X24942499Y-100182871D01*
X123858320Y-98910076D02*
X123858399Y-98909836D01*
X24715719Y-25055700D02*
X24635678Y-25153863D01*
X76694826Y-22400259D02*
X76724721Y-22361952D01*
X22611144Y-59924637D02*
X22566721Y-59904946D01*
X22566721Y-65095053D02*
X22611144Y-65075362D01*
X77249450Y-22029671D02*
X77296861Y-22019025D01*
X125518960Y-65140851D02*
X125560012Y-65166847D01*
X15005558Y-15001122D02*
X15005125Y-15001353D01*
X70797380Y-22042631D02*
X70843519Y-22057874D01*
X15000297Y-15007863D02*
X15000201Y-15008344D01*
X125942125Y-22656480D02*
X125957368Y-22702619D01*
X132996840Y-109997188D02*
X132997188Y-109996840D01*
X70509877Y-24000000D02*
X27006333Y-24000000D01*
X77156480Y-101057874D02*
X77202619Y-101042631D01*
X125599740Y-65194826D02*
X125638047Y-65224721D01*
X121139283Y-100996470D02*
X121139536Y-100996460D01*
X76575362Y-22611144D02*
X76595053Y-22566721D01*
X122576191Y-24447771D02*
X122575974Y-24447640D01*
X70750549Y-22029671D02*
X70797380Y-22042631D01*
X24383261Y-99466603D02*
X24383386Y-99466823D01*
X122575974Y-24447640D02*
X122466823Y-24383386D01*
X125433278Y-65095053D02*
X125476681Y-65116900D01*
X23710033Y-59710033D02*
X23674841Y-59743539D01*
X24059223Y-26408325D02*
X24059175Y-26408574D01*
X125970328Y-22749450D02*
X125980974Y-22796861D01*
X125107036Y-102995229D02*
X125058576Y-102998804D01*
X26993794Y-100999841D02*
X27006207Y-100999999D01*
X123616738Y-99466603D02*
X123628785Y-99444900D01*
X15009809Y-15000057D02*
X15009318Y-15000081D01*
X76724721Y-22361952D02*
X76756460Y-22325158D01*
X123751584Y-25805421D02*
X123698702Y-25690328D01*
X24000158Y-26993794D02*
X24000000Y-27006207D01*
X22256460Y-22325158D02*
X22289966Y-22289966D01*
X15000201Y-15008344D02*
X15000129Y-15008830D01*
X132997188Y-15003159D02*
X132996840Y-15002811D01*
X22224721Y-22361952D02*
X22256460Y-22325158D01*
X24248312Y-25805652D02*
X24238524Y-25828462D01*
X123983036Y-26684179D02*
X123983007Y-26683928D01*
X123963170Y-26533246D02*
X123940824Y-26408574D01*
X132999702Y-109992136D02*
X132999798Y-109991655D01*
X26236107Y-100900812D02*
X26260136Y-100907034D01*
X121139536Y-24003539D02*
X121139283Y-24003529D01*
X76666847Y-101439987D02*
X76694826Y-101400259D01*
X23599740Y-59805173D02*
X23560012Y-59833152D01*
X76500000Y-101990122D02*
X76501195Y-101941423D01*
X22439987Y-59833152D02*
X22400259Y-59805173D01*
X22000000Y-59009877D02*
X22000000Y-22990122D01*
X26684179Y-100983036D02*
X26708874Y-100985547D01*
X124057874Y-59343519D02*
X124042631Y-59297380D01*
X125859148Y-65481039D02*
X125883099Y-65523318D01*
X123267949Y-99963327D02*
X123284117Y-99944493D01*
X76500000Y-101990122D02*
X76500000Y-101990122D01*
X26235862Y-100900746D02*
X26236107Y-100900812D01*
X121006331Y-100999839D02*
X121139283Y-100996470D01*
X121441716Y-100967005D02*
X121441967Y-100966970D01*
X125009877Y-65000000D02*
X125058576Y-65001195D01*
X76981039Y-101140851D02*
X77023318Y-101116900D01*
X124325158Y-59743539D02*
X124289966Y-59710033D01*
X24000000Y-59009877D02*
X23998804Y-59058576D01*
X22523318Y-22116900D02*
X22566721Y-22095053D01*
X125833152Y-102560012D02*
X125805173Y-102599740D01*
X25828462Y-24238524D02*
X25805652Y-24248312D01*
X71275278Y-23638047D02*
X71243539Y-23674841D01*
X23980974Y-65796861D02*
X23989281Y-65844737D01*
X24000000Y-27006333D02*
X24000000Y-59009877D01*
X77441423Y-22001195D02*
X77490122Y-22000000D01*
X24036829Y-98466753D02*
X24059175Y-98591425D01*
X22990122Y-22000000D02*
X70509877Y-22000000D01*
X132999087Y-109993997D02*
X132999275Y-109993544D01*
X132990681Y-109999918D02*
X132991169Y-109999870D01*
X22361952Y-59775278D02*
X22325158Y-59743539D01*
X26835420Y-100995187D02*
X26835673Y-100995203D01*
X24064273Y-98616236D02*
X24092904Y-98739617D01*
X22702619Y-59957368D02*
X22656480Y-59942125D01*
X25402743Y-24460901D02*
X25402530Y-24461038D01*
X24033029Y-26558032D02*
X24032994Y-26558283D01*
X15005125Y-109998646D02*
X15005558Y-109998877D01*
X120993792Y-24000000D02*
X120993666Y-24000000D01*
X132992612Y-109999583D02*
X132993082Y-109999440D01*
X121615988Y-24064219D02*
X121591674Y-24059223D01*
X125859148Y-59518960D02*
X125833152Y-59560012D01*
X123999999Y-27006207D02*
X123999841Y-26993794D01*
X77202619Y-23957368D02*
X77156480Y-23942125D01*
X23297380Y-59957368D02*
X23250549Y-59970328D01*
X22029671Y-102250549D02*
X22019025Y-102203138D01*
X122826309Y-100379672D02*
X122845937Y-100364479D01*
X25296773Y-100469261D02*
X25402530Y-100538961D01*
X124749450Y-65029671D02*
X124796861Y-65019025D01*
X132998121Y-109995703D02*
X132998394Y-109995295D01*
X25667588Y-24312451D02*
X25555322Y-24371094D01*
X25970071Y-100817353D02*
X26089923Y-100858320D01*
X24715719Y-99944299D02*
X24715882Y-99944493D01*
X15000129Y-109991169D02*
X15000201Y-109991655D01*
X123761475Y-99171537D02*
X123761572Y-99171303D01*
X124001195Y-65941423D02*
X124004770Y-65892963D01*
X125518960Y-22140851D02*
X125560012Y-22166847D01*
X76529671Y-23250549D02*
X76519025Y-23203138D01*
X132998877Y-15005558D02*
X132998646Y-15005125D01*
X76510718Y-101844737D02*
X76519025Y-101796861D01*
X122332185Y-100687662D02*
X122332411Y-100687548D01*
X23343519Y-59942125D02*
X23297380Y-59957368D01*
X132999087Y-15006002D02*
X132998877Y-15005558D01*
X24447771Y-99576191D02*
X24460901Y-99597256D01*
X71333152Y-101439987D02*
X71359148Y-101481039D01*
X26235862Y-24099253D02*
X26114090Y-24134097D01*
X122309671Y-24301297D02*
X122194578Y-24248415D01*
X132997188Y-109996840D02*
X132997517Y-109996477D01*
X121139536Y-100996460D02*
X121164326Y-100995203D01*
X123057686Y-100182698D02*
X123075677Y-100165597D01*
X124941423Y-65001195D02*
X124990122Y-65000000D01*
X71498804Y-22941423D02*
X71500000Y-22990122D01*
X23942125Y-65656480D02*
X23957368Y-65702619D01*
X22400259Y-22194826D02*
X22439987Y-22166847D01*
X77066721Y-23904946D02*
X77023318Y-23883099D01*
X24371094Y-99444677D02*
X24371214Y-99444900D01*
X71480974Y-102203138D02*
X71470328Y-102250549D01*
X123808557Y-25946319D02*
X123761572Y-25828696D01*
X123940776Y-98591674D02*
X123940824Y-98591425D01*
X76504770Y-101892963D02*
X76510718Y-101844737D01*
X24248312Y-99194347D02*
X24248415Y-99194578D01*
X26408325Y-24059223D02*
X26384011Y-24064219D01*
X125476681Y-65116900D02*
X125518960Y-65140851D01*
X123057500Y-100182871D02*
X123057686Y-100182698D01*
X24016992Y-26683928D02*
X24016963Y-26684179D01*
X123967005Y-98441716D02*
X123983007Y-98316071D01*
X123963211Y-26533496D02*
X123963170Y-26533246D01*
X70888855Y-23924637D02*
X70843519Y-23942125D01*
X24141600Y-98909836D02*
X24141679Y-98910076D01*
X24635520Y-25154062D02*
X24620327Y-25173690D01*
X23203138Y-65019025D02*
X23250549Y-65029671D01*
X122826309Y-24620327D02*
X122826106Y-24620174D01*
X123983007Y-98316071D02*
X123983036Y-98315820D01*
X22095053Y-22566721D02*
X22116900Y-22523318D01*
X15000081Y-109990681D02*
X15000129Y-109991169D01*
X15012272Y-15000000D02*
X15012027Y-15000003D01*
X71305173Y-22400259D02*
X71333152Y-22439987D01*
X125998804Y-102058576D02*
X125995229Y-102107036D01*
X15006455Y-15000724D02*
X15006002Y-15000912D01*
X76616900Y-23476681D02*
X76595053Y-23433278D01*
X123996460Y-26860463D02*
X123995203Y-26835673D01*
X26708874Y-24014452D02*
X26684179Y-24016963D01*
X123996460Y-98139536D02*
X123996470Y-98139283D01*
X70655262Y-23989281D02*
X70607036Y-23995229D01*
X122444900Y-24371214D02*
X122444677Y-24371094D01*
X24014430Y-98290873D02*
X24014452Y-98291125D01*
X125883099Y-65523318D02*
X125904946Y-65566721D01*
X125980974Y-22796861D02*
X125989281Y-22844737D01*
X24312451Y-99332411D02*
X24371094Y-99444677D01*
X15001353Y-109994874D02*
X15001605Y-109995295D01*
X22000000Y-65990122D02*
X22001195Y-65941423D01*
X26384011Y-100935780D02*
X26408325Y-100940776D01*
X122171537Y-24238524D02*
X122171303Y-24238427D01*
X123284117Y-25055506D02*
X123267949Y-25036672D01*
X125009877Y-60000000D02*
X124990122Y-60000000D01*
X122723809Y-100454939D02*
X122724015Y-100454792D01*
X122466603Y-100616738D02*
X122466823Y-100616613D01*
X22075362Y-65611144D02*
X22095053Y-65566721D01*
X24000158Y-98006205D02*
X24000160Y-98006331D01*
X25946319Y-100808557D02*
X25946556Y-100808648D01*
X15004296Y-15001878D02*
X15003902Y-15002170D01*
X24924141Y-100165420D02*
X24924322Y-100165597D01*
X121885909Y-24134097D02*
X121764137Y-24099253D01*
X124019025Y-65796861D02*
X124029671Y-65749450D01*
X15000201Y-109991655D02*
X15000297Y-109992136D01*
X76575362Y-101611144D02*
X76595053Y-101566721D01*
X26683928Y-100983007D02*
X26684179Y-100983036D01*
X123907034Y-26260136D02*
X123900812Y-26236107D01*
X26260382Y-24092904D02*
X26260136Y-24092965D01*
X122703226Y-100469261D02*
X122703436Y-100469119D01*
X25055700Y-24715719D02*
X25055506Y-24715882D01*
X22116900Y-65523318D02*
X22140851Y-65481039D01*
X25667814Y-100687662D02*
X25690100Y-100698594D01*
X15001605Y-109995295D02*
X15001878Y-109995703D01*
X124224721Y-65361952D02*
X124256460Y-65325158D01*
X124000000Y-65990122D02*
X124001195Y-65941423D01*
X71174841Y-102743539D02*
X71138047Y-102775278D01*
X24191351Y-99053443D02*
X24191442Y-99053680D01*
X132993544Y-15000724D02*
X132993082Y-15000559D01*
X24530738Y-99703226D02*
X24530880Y-99703436D01*
X24942499Y-24817128D02*
X24942313Y-24817301D01*
X22140851Y-59518960D02*
X22116900Y-59476681D01*
X122309899Y-100698594D02*
X122332185Y-100687662D01*
X124990122Y-60000000D02*
X124941423Y-59998804D01*
X70976681Y-102883099D02*
X70933278Y-102904946D01*
X15012027Y-109999996D02*
X15012272Y-110000000D01*
X122724015Y-100454792D02*
X122826106Y-100379825D01*
X76504770Y-22892963D02*
X76510718Y-22844737D01*
X24732218Y-99963517D02*
X24817128Y-100057500D01*
X70509877Y-22000000D02*
X70558576Y-22001195D01*
X122444900Y-100628785D02*
X122466603Y-100616738D01*
X22256460Y-59674841D02*
X22224721Y-59638047D01*
X76666847Y-23560012D02*
X76640851Y-23518960D01*
X15000559Y-15006917D02*
X15000416Y-15007387D01*
X121441716Y-24032994D02*
X121316071Y-24016992D01*
X26558283Y-24032994D02*
X26558032Y-24033029D01*
X124892963Y-59995229D02*
X124844737Y-59989281D01*
X26533496Y-100963211D02*
X26558032Y-100966970D01*
X15000081Y-15009318D02*
X15000057Y-15009809D01*
X22523318Y-65116900D02*
X22566721Y-65095053D01*
X121139283Y-24003529D02*
X121006331Y-24000160D01*
X124042631Y-65702619D02*
X124057874Y-65656480D01*
X23476681Y-59883099D02*
X23433278Y-59904946D01*
X122194578Y-24248415D02*
X122194347Y-24248312D01*
X76861952Y-102775278D02*
X76825158Y-102743539D01*
X76861952Y-101224721D02*
X76900259Y-101194826D01*
X15012027Y-15000003D02*
X15009809Y-15000057D01*
X132990681Y-15000081D02*
X132990190Y-15000057D01*
X26089923Y-24141679D02*
X25970071Y-24182646D01*
X122576191Y-100552228D02*
X122597256Y-100539098D01*
X132999798Y-15008344D02*
X132999702Y-15007863D01*
X132991169Y-15000129D02*
X132990681Y-15000081D01*
X125989281Y-102155262D02*
X125980974Y-102203138D01*
X132992136Y-15000297D02*
X132991655Y-15000201D01*
X123865902Y-26114090D02*
X123865830Y-26113847D01*
X121616236Y-100935726D02*
X121739617Y-100907095D01*
X26260136Y-100907034D02*
X26260382Y-100907095D01*
X125775278Y-65361952D02*
X125805173Y-65400259D01*
X15007863Y-109999702D02*
X15008344Y-109999798D01*
X125476681Y-102883099D02*
X125433278Y-102904946D01*
X123761475Y-25828462D02*
X123751687Y-25805652D01*
X70750549Y-23970328D02*
X70703138Y-23980974D01*
X71243539Y-101325158D02*
X71275278Y-101361952D01*
X26090163Y-24141600D02*
X26089923Y-24141679D01*
X124166847Y-59560012D02*
X124140851Y-59518960D01*
X70655262Y-101010718D02*
X70703138Y-101019025D01*
X76939987Y-22166847D02*
X76981039Y-22140851D01*
X22702619Y-102957368D02*
X22656480Y-102942125D01*
X71060012Y-23833152D02*
X71018960Y-23859148D01*
X71099740Y-23805173D02*
X71060012Y-23833152D01*
X22481039Y-102859148D02*
X22439987Y-102833152D01*
X124000000Y-59009877D02*
X124000000Y-27006333D01*
M02*
