G04 #@! TF.GenerationSoftware,KiCad,Pcbnew,(6.99.0-5015-g618347ef50)*
G04 #@! TF.CreationDate,2023-01-08T20:33:57+01:00*
G04 #@! TF.ProjectId,TinyLlama,54696e79-4c6c-4616-9d61-2e6b69636164,2.1*
G04 #@! TF.SameCoordinates,Original*
G04 #@! TF.FileFunction,Soldermask,Bot*
G04 #@! TF.FilePolarity,Negative*
%FSLAX46Y46*%
G04 Gerber Fmt 4.6, Leading zero omitted, Abs format (unit mm)*
G04 Created by KiCad (PCBNEW (6.99.0-5015-g618347ef50)) date 2023-01-08 20:33:57*
%MOMM*%
%LPD*%
G01*
G04 APERTURE LIST*
G04 Aperture macros list*
%AMRoundRect*
0 Rectangle with rounded corners*
0 $1 Rounding radius*
0 $2 $3 $4 $5 $6 $7 $8 $9 X,Y pos of 4 corners*
0 Add a 4 corners polygon primitive as box body*
4,1,4,$2,$3,$4,$5,$6,$7,$8,$9,$2,$3,0*
0 Add four circle primitives for the rounded corners*
1,1,$1+$1,$2,$3*
1,1,$1+$1,$4,$5*
1,1,$1+$1,$6,$7*
1,1,$1+$1,$8,$9*
0 Add four rect primitives between the rounded corners*
20,1,$1+$1,$2,$3,$4,$5,0*
20,1,$1+$1,$4,$5,$6,$7,0*
20,1,$1+$1,$6,$7,$8,$9,0*
20,1,$1+$1,$8,$9,$2,$3,0*%
G04 Aperture macros list end*
%ADD10C,0.500000*%
%ADD11R,1.397000X1.397000*%
%ADD12C,1.397000*%
%ADD13C,1.500000*%
%ADD14C,3.000000*%
%ADD15C,4.064000*%
%ADD16C,1.000000*%
%ADD17C,0.600000*%
%ADD18O,0.900000X2.000000*%
%ADD19O,0.900000X1.700000*%
%ADD20C,0.800000*%
%ADD21C,1.700000*%
%ADD22C,1.600000*%
%ADD23C,5.000000*%
%ADD24RoundRect,0.218750X-0.256250X0.218750X-0.256250X-0.218750X0.256250X-0.218750X0.256250X0.218750X0*%
%ADD25R,0.700000X0.700000*%
%ADD26C,2.000000*%
%ADD27RoundRect,0.225000X0.250000X-0.225000X0.250000X0.225000X-0.250000X0.225000X-0.250000X-0.225000X0*%
%ADD28R,0.500000X0.500000*%
%ADD29RoundRect,0.200000X-0.275000X0.200000X-0.275000X-0.200000X0.275000X-0.200000X0.275000X0.200000X0*%
%ADD30RoundRect,0.225000X-0.250000X0.225000X-0.250000X-0.225000X0.250000X-0.225000X0.250000X0.225000X0*%
%ADD31RoundRect,0.250000X-0.650000X0.325000X-0.650000X-0.325000X0.650000X-0.325000X0.650000X0.325000X0*%
%ADD32R,0.450000X1.750000*%
%ADD33RoundRect,0.250000X0.650000X-0.325000X0.650000X0.325000X-0.650000X0.325000X-0.650000X-0.325000X0*%
%ADD34RoundRect,0.225000X0.225000X0.250000X-0.225000X0.250000X-0.225000X-0.250000X0.225000X-0.250000X0*%
%ADD35RoundRect,0.200000X0.200000X0.275000X-0.200000X0.275000X-0.200000X-0.275000X0.200000X-0.275000X0*%
%ADD36R,0.600000X1.200000*%
%ADD37R,1.600000X1.400000*%
%ADD38O,0.300000X1.400000*%
%ADD39O,1.400000X0.300000*%
%ADD40C,1.400000*%
%ADD41C,2.600000*%
%ADD42C,0.900000*%
%ADD43R,2.400000X0.600000*%
%ADD44R,3.200000X1.900000*%
%ADD45R,4.200000X3.900000*%
%ADD46C,1.800000*%
G04 APERTURE END LIST*
D10*
X132125000Y-101000000D03*
X127750000Y-24000000D03*
D11*
X82999999Y-26749999D03*
D12*
X85540000Y-26750000D03*
D11*
X84749999Y-36329999D03*
D12*
X84750000Y-33790000D03*
X84750000Y-31250000D03*
D10*
X17625000Y-24000000D03*
X128625000Y-101000000D03*
D13*
X77000000Y-36000000D03*
X74500000Y-36000000D03*
X72500000Y-36000000D03*
X70000000Y-36000000D03*
X77000000Y-33400000D03*
X74500000Y-33400000D03*
X72500000Y-33400000D03*
X70000000Y-33400000D03*
D14*
X80050000Y-36350000D03*
X80000000Y-30550000D03*
X67000000Y-30550000D03*
X66950000Y-36350000D03*
D10*
X24000000Y-65000000D03*
X15000000Y-24000000D03*
D11*
X116999999Y-26999999D03*
D12*
X119540000Y-27000000D03*
D10*
X76500000Y-101000000D03*
X131250000Y-101000000D03*
X126000000Y-101000000D03*
D15*
X119000000Y-96000000D03*
D10*
X124000000Y-63333333D03*
D16*
X28000000Y-81310000D03*
X28000000Y-89310000D03*
D10*
X24000000Y-64166666D03*
D17*
X39890000Y-28930000D03*
X34110000Y-28930000D03*
D18*
X41324999Y-29429999D03*
D19*
X41324999Y-25249999D03*
D18*
X32674999Y-29429999D03*
D19*
X32674999Y-25249999D03*
D10*
X24000000Y-60000000D03*
D11*
X40749999Y-70749989D03*
D12*
X40750000Y-73289990D03*
X40750000Y-75829990D03*
D11*
X26249999Y-42079999D03*
D12*
X26250000Y-39540000D03*
X26250000Y-37000000D03*
X26250000Y-34460000D03*
X26250000Y-31920000D03*
D10*
X19375000Y-24000000D03*
X18500000Y-24000000D03*
X132125000Y-24000000D03*
X126875000Y-101000000D03*
X21125000Y-101000000D03*
X75666666Y-101000000D03*
X20250000Y-101000000D03*
D15*
X27000000Y-27000000D03*
D10*
X16750000Y-24000000D03*
X15000000Y-101000000D03*
X75666666Y-24000000D03*
D20*
X48000000Y-57000000D03*
X48000000Y-95100000D03*
X70000000Y-57000000D03*
X70000000Y-95100000D03*
D10*
X130375000Y-101000000D03*
X17625000Y-101000000D03*
X72333334Y-101000000D03*
D11*
X114499999Y-31499999D03*
D12*
X117040000Y-31500000D03*
X119580000Y-31500000D03*
X122120000Y-31500000D03*
D15*
X119000000Y-38000000D03*
D10*
X15875000Y-24000000D03*
X73166667Y-101000000D03*
X133000000Y-101000000D03*
X126875000Y-24000000D03*
X22000000Y-24000000D03*
X72333334Y-24000000D03*
X24000000Y-60833334D03*
X19375000Y-101000000D03*
X128625000Y-24000000D03*
X131250000Y-24000000D03*
X74000000Y-24000000D03*
X22000000Y-101000000D03*
X129500000Y-24000000D03*
D13*
X58000000Y-36000000D03*
X55500000Y-36000000D03*
X53500000Y-36000000D03*
X51000000Y-36000000D03*
X58000000Y-33400000D03*
X55500000Y-33400000D03*
X53500000Y-33400000D03*
X51000000Y-33400000D03*
D14*
X61050000Y-36350000D03*
X61000000Y-30550000D03*
X48000000Y-30550000D03*
X47950000Y-36350000D03*
D10*
X15875000Y-101000000D03*
X127750000Y-101000000D03*
X74833333Y-101000000D03*
X24000000Y-62500000D03*
X129500000Y-101000000D03*
X124000000Y-64166666D03*
X71500000Y-24000000D03*
X124000000Y-61666667D03*
X20250000Y-24000000D03*
X126000000Y-24000000D03*
D21*
X113500000Y-61700000D03*
X113500000Y-59160000D03*
X113500000Y-56620000D03*
X113500000Y-54080000D03*
X113500000Y-51540000D03*
X113500000Y-49000000D03*
X86830000Y-62335000D03*
X89370000Y-62335000D03*
X91910000Y-62335000D03*
D10*
X124000000Y-60833334D03*
X76500000Y-24000000D03*
D11*
X64249999Y-48499999D03*
D12*
X66790000Y-48500000D03*
D10*
X133000000Y-24000000D03*
X16750000Y-101000000D03*
X74833333Y-24000000D03*
D22*
X35420000Y-56955000D03*
X35420000Y-59725000D03*
X35420000Y-62495000D03*
X35420000Y-65265000D03*
X35420000Y-68035000D03*
X32580000Y-58340000D03*
X32580000Y-61110000D03*
X32580000Y-63880000D03*
X32580000Y-66650000D03*
D23*
X34000000Y-74990000D03*
X34000000Y-50000000D03*
D22*
X103950000Y-26950000D03*
X103950000Y-32950000D03*
D10*
X124000000Y-62500000D03*
D12*
X92700000Y-33751200D03*
X92700000Y-27248800D03*
D10*
X124000000Y-60000000D03*
X24000000Y-63333333D03*
X74000000Y-101000000D03*
X73166667Y-24000000D03*
D15*
X27000000Y-98000000D03*
D10*
X71500000Y-101000000D03*
X24000000Y-61666667D03*
X18500000Y-101000000D03*
X130375000Y-24000000D03*
X21125000Y-24000000D03*
X124000000Y-65000000D03*
D24*
X55500000Y-29212500D03*
X55500000Y-30787500D03*
D25*
X50699999Y-40149999D03*
X52299999Y-40149999D03*
X52299999Y-38849999D03*
X50699999Y-38849999D03*
D26*
X18350000Y-106650000D03*
D24*
X69999994Y-29174001D03*
X69999994Y-30749001D03*
D27*
X27250000Y-78274995D03*
X27250000Y-76724995D03*
D28*
X92899999Y-31249999D03*
X95099999Y-31249999D03*
D29*
X46000000Y-51175000D03*
X46000000Y-52825000D03*
D30*
X31250000Y-91725000D03*
X31250000Y-93275000D03*
D26*
X18350000Y-18350000D03*
D31*
X114250000Y-35025000D03*
X114250000Y-37975000D03*
D32*
X29274999Y-81899999D03*
X29924999Y-81899999D03*
X30574999Y-81899999D03*
X31224999Y-81899999D03*
X31874999Y-81899999D03*
X32524999Y-81899999D03*
X33174999Y-81899999D03*
X33824999Y-81899999D03*
X34474999Y-81899999D03*
X35124999Y-81899999D03*
X35774999Y-81899999D03*
X36424999Y-81899999D03*
X37074999Y-81899999D03*
X37724999Y-81899999D03*
X37724999Y-89099999D03*
X37074999Y-89099999D03*
X36424999Y-89099999D03*
X35774999Y-89099999D03*
X35124999Y-89099999D03*
X34474999Y-89099999D03*
X33824999Y-89099999D03*
X33174999Y-89099999D03*
X32524999Y-89099999D03*
X31874999Y-89099999D03*
X31224999Y-89099999D03*
X30574999Y-89099999D03*
X29924999Y-89099999D03*
X29274999Y-89099999D03*
D33*
X57750000Y-30975000D03*
X57750000Y-28025000D03*
D34*
X62775000Y-45500000D03*
X61225000Y-45500000D03*
D24*
X74499994Y-29174001D03*
X74499994Y-30749001D03*
D35*
X91325000Y-33000000D03*
X89675000Y-33000000D03*
D36*
X95949999Y-37599999D03*
X94049999Y-37599999D03*
X94999999Y-35399999D03*
D29*
X90750000Y-35675000D03*
X90750000Y-37325000D03*
D37*
X44999999Y-44249999D03*
X36999999Y-44249999D03*
X44999999Y-39749999D03*
X36999999Y-39749999D03*
D38*
X56749999Y-51699999D03*
X56249999Y-51699999D03*
X55749999Y-51699999D03*
X55249999Y-51699999D03*
X54749999Y-51699999D03*
X54249999Y-51699999D03*
X53749999Y-51699999D03*
X53249999Y-51699999D03*
X52749999Y-51699999D03*
X52249999Y-51699999D03*
X51749999Y-51699999D03*
X51249999Y-51699999D03*
D39*
X49799999Y-50249999D03*
X49799999Y-49749999D03*
X49799999Y-49249999D03*
X49799999Y-48749999D03*
X49799999Y-48249999D03*
X49799999Y-47749999D03*
X49799999Y-47249999D03*
X49799999Y-46749999D03*
X49799999Y-46249999D03*
X49799999Y-45749999D03*
X49799999Y-45249999D03*
X49799999Y-44749999D03*
D38*
X51249999Y-43299999D03*
X51749999Y-43299999D03*
X52249999Y-43299999D03*
X52749999Y-43299999D03*
X53249999Y-43299999D03*
X53749999Y-43299999D03*
X54249999Y-43299999D03*
X54749999Y-43299999D03*
X55249999Y-43299999D03*
X55749999Y-43299999D03*
X56249999Y-43299999D03*
X56749999Y-43299999D03*
D39*
X58199999Y-44749999D03*
X58199999Y-45249999D03*
X58199999Y-45749999D03*
X58199999Y-46249999D03*
X58199999Y-46749999D03*
X58199999Y-47249999D03*
X58199999Y-47749999D03*
X58199999Y-48249999D03*
X58199999Y-48749999D03*
X58199999Y-49249999D03*
X58199999Y-49749999D03*
X58199999Y-50249999D03*
D40*
X59330500Y-92600000D03*
D41*
X107380500Y-92200000D03*
X107380500Y-68000000D03*
D42*
X59330500Y-67600000D03*
D43*
X55030499Y-91899999D03*
X63630499Y-91499999D03*
X55030499Y-91099999D03*
X63630499Y-90699999D03*
X55030499Y-90299999D03*
X63630499Y-89899999D03*
X55030499Y-89499999D03*
X63630499Y-89099999D03*
X55030499Y-88699999D03*
X63630499Y-88299999D03*
X55030499Y-87899999D03*
X63630499Y-87499999D03*
X55030499Y-87099999D03*
X63630499Y-86699999D03*
X55030499Y-86299999D03*
X63630499Y-85899999D03*
X55030499Y-82299999D03*
X63630499Y-81899999D03*
X55030499Y-81499999D03*
X63630499Y-81099999D03*
X55030499Y-80699999D03*
X63630499Y-80299999D03*
X55030499Y-79899999D03*
X63630499Y-79499999D03*
X55030499Y-79099999D03*
X63630499Y-78699999D03*
X55030499Y-78299999D03*
X63630499Y-77899999D03*
X55030499Y-77499999D03*
X63630499Y-77099999D03*
X55030499Y-76699999D03*
X63630499Y-76299999D03*
X55030499Y-75899999D03*
X63630499Y-75499999D03*
X55030499Y-75099999D03*
X63630499Y-74699999D03*
X55030499Y-74299999D03*
X63630499Y-73899999D03*
X55030499Y-73499999D03*
X63630499Y-73099999D03*
X55030499Y-72699999D03*
X63630499Y-72299999D03*
X55030499Y-71899999D03*
X63630499Y-71499999D03*
X55030499Y-71099999D03*
X63630499Y-70699999D03*
X55030499Y-70299999D03*
X63630499Y-69899999D03*
X55030499Y-69499999D03*
X63630499Y-69099999D03*
X55030499Y-68699999D03*
X63630499Y-68299999D03*
D44*
X55830499Y-94549999D03*
X55830499Y-65649999D03*
D45*
X117999999Y-86049999D03*
X117999999Y-70949999D03*
D23*
X118000000Y-78500000D03*
D35*
X91325000Y-31500000D03*
X89675000Y-31500000D03*
D30*
X29250000Y-76725000D03*
X29250000Y-78275000D03*
D33*
X53250000Y-30975000D03*
X53250000Y-28025000D03*
D27*
X26575000Y-88050000D03*
X26575000Y-86500000D03*
D24*
X51000000Y-29212500D03*
X51000000Y-30787500D03*
D26*
X129650000Y-106650000D03*
D30*
X92250000Y-35725000D03*
X92250000Y-37275000D03*
X29250000Y-91725000D03*
X29250000Y-93275000D03*
D29*
X47500000Y-51175000D03*
X47500000Y-52825000D03*
D37*
X75499999Y-44749999D03*
X83499999Y-44749999D03*
X75499999Y-49249999D03*
X83499999Y-49249999D03*
D33*
X72249994Y-30936501D03*
X72249994Y-27986501D03*
D25*
X54699999Y-40149999D03*
X56299999Y-40149999D03*
X56299999Y-38849999D03*
X54699999Y-38849999D03*
D46*
X87640000Y-53530000D03*
X87640000Y-50990000D03*
X87640000Y-48450000D03*
X87640000Y-45910000D03*
X87640000Y-43370000D03*
X87640000Y-40830000D03*
X87640000Y-38290000D03*
X87640000Y-35750000D03*
X110500000Y-35750000D03*
X110500000Y-38290000D03*
X110500000Y-40830000D03*
X110500000Y-43370000D03*
X110500000Y-45910000D03*
X110500000Y-48450000D03*
X110500000Y-50990000D03*
X110500000Y-53530000D03*
D26*
X129650000Y-18350000D03*
D27*
X58500000Y-53775000D03*
X58500000Y-52225000D03*
D33*
X76749994Y-30936501D03*
X76749994Y-27986501D03*
M02*
