M48
; DRILL file {KiCad (6.99.0-5015-g618347ef50)} date Sunday, 08 January 2023 at 20:34:50
; FORMAT={-:-/ absolute / metric / decimal}
; #@! TF.CreationDate,2023-01-08T20:34:50+01:00
; #@! TF.GenerationSoftware,Kicad,Pcbnew,(6.99.0-5015-g618347ef50)
; #@! TF.FileFunction,NonPlated,1,4,NPTH
FMAT,2
METRIC
; #@! TA.AperFunction,NonPlated,NPTH,ComponentDrill
T1C0.500
; #@! TA.AperFunction,NonPlated,NPTH,ComponentDrill
T2C0.600
; #@! TA.AperFunction,NonPlated,NPTH,ComponentDrill
T3C0.800
; #@! TA.AperFunction,NonPlated,NPTH,ComponentDrill
T4C0.900
; #@! TA.AperFunction,NonPlated,NPTH,ComponentDrill
T5C1.000
; #@! TA.AperFunction,NonPlated,NPTH,ComponentDrill
T6C1.400
; #@! TA.AperFunction,NonPlated,NPTH,ComponentDrill
T7C1.600
; #@! TA.AperFunction,NonPlated,NPTH,ComponentDrill
T8C2.600
%
G90
G05
T1
X15.0Y-24.0
X15.0Y-101.0
X15.875Y-24.0
X15.875Y-101.0
X16.75Y-24.0
X16.75Y-101.0
X17.625Y-24.0
X17.625Y-101.0
X18.5Y-24.0
X18.5Y-101.0
X19.375Y-24.0
X19.375Y-101.0
X20.25Y-24.0
X20.25Y-101.0
X21.125Y-24.0
X21.125Y-101.0
X22.0Y-24.0
X22.0Y-101.0
X24.0Y-60.0
X24.0Y-60.833
X24.0Y-61.667
X24.0Y-62.5
X24.0Y-63.333
X24.0Y-64.167
X24.0Y-65.0
X71.5Y-24.0
X71.5Y-101.0
X72.333Y-24.0
X72.333Y-101.0
X73.167Y-24.0
X73.167Y-101.0
X74.0Y-24.0
X74.0Y-101.0
X74.833Y-24.0
X74.833Y-101.0
X75.667Y-24.0
X75.667Y-101.0
X76.5Y-24.0
X76.5Y-101.0
X124.0Y-60.0
X124.0Y-60.833
X124.0Y-61.667
X124.0Y-62.5
X124.0Y-63.333
X124.0Y-64.167
X124.0Y-65.0
X126.0Y-24.0
X126.0Y-101.0
X126.875Y-24.0
X126.875Y-101.0
X127.75Y-24.0
X127.75Y-101.0
X128.625Y-24.0
X128.625Y-101.0
X129.5Y-24.0
X129.5Y-101.0
X130.375Y-24.0
X130.375Y-101.0
X131.25Y-24.0
X131.25Y-101.0
X132.125Y-24.0
X132.125Y-101.0
X133.0Y-24.0
X133.0Y-101.0
T2
X34.11Y-28.93
X39.89Y-28.93
T3
X48.0Y-57.0
X48.0Y-95.1
X70.0Y-57.0
X70.0Y-95.1
T4
X59.331Y-67.6
T5
X28.0Y-81.31
X28.0Y-89.31
T6
X59.331Y-92.6
T7
X103.95Y-26.95
X103.95Y-32.95
T8
X107.38Y-68.0
X107.38Y-92.2
T0
M30
