G04 #@! TF.GenerationSoftware,KiCad,Pcbnew,(6.99.0-5015-g618347ef50)*
G04 #@! TF.CreationDate,2023-01-08T20:33:57+01:00*
G04 #@! TF.ProjectId,TinyLlama,54696e79-4c6c-4616-9d61-2e6b69636164,2.1*
G04 #@! TF.SameCoordinates,Original*
G04 #@! TF.FileFunction,Copper,L1,Top*
G04 #@! TF.FilePolarity,Positive*
%FSLAX46Y46*%
G04 Gerber Fmt 4.6, Leading zero omitted, Abs format (unit mm)*
G04 Created by KiCad (PCBNEW (6.99.0-5015-g618347ef50)) date 2023-01-08 20:33:57*
%MOMM*%
%LPD*%
G01*
G04 APERTURE LIST*
G04 Aperture macros list*
%AMRoundRect*
0 Rectangle with rounded corners*
0 $1 Rounding radius*
0 $2 $3 $4 $5 $6 $7 $8 $9 X,Y pos of 4 corners*
0 Add a 4 corners polygon primitive as box body*
4,1,4,$2,$3,$4,$5,$6,$7,$8,$9,$2,$3,0*
0 Add four circle primitives for the rounded corners*
1,1,$1+$1,$2,$3*
1,1,$1+$1,$4,$5*
1,1,$1+$1,$6,$7*
1,1,$1+$1,$8,$9*
0 Add four rect primitives between the rounded corners*
20,1,$1+$1,$2,$3,$4,$5,0*
20,1,$1+$1,$4,$5,$6,$7,0*
20,1,$1+$1,$6,$7,$8,$9,0*
20,1,$1+$1,$8,$9,$2,$3,0*%
G04 Aperture macros list end*
G04 #@! TA.AperFunction,SMDPad,CuDef*
%ADD10RoundRect,0.200000X-0.200000X-0.275000X0.200000X-0.275000X0.200000X0.275000X-0.200000X0.275000X0*%
G04 #@! TD*
G04 #@! TA.AperFunction,SMDPad,CuDef*
%ADD11RoundRect,0.225000X0.250000X-0.225000X0.250000X0.225000X-0.250000X0.225000X-0.250000X-0.225000X0*%
G04 #@! TD*
G04 #@! TA.AperFunction,SMDPad,CuDef*
%ADD12RoundRect,0.225000X-0.250000X0.225000X-0.250000X-0.225000X0.250000X-0.225000X0.250000X0.225000X0*%
G04 #@! TD*
G04 #@! TA.AperFunction,ComponentPad*
%ADD13R,1.397000X1.397000*%
G04 #@! TD*
G04 #@! TA.AperFunction,ComponentPad*
%ADD14C,1.397000*%
G04 #@! TD*
G04 #@! TA.AperFunction,SMDPad,CuDef*
%ADD15RoundRect,0.225000X-0.225000X-0.250000X0.225000X-0.250000X0.225000X0.250000X-0.225000X0.250000X0*%
G04 #@! TD*
G04 #@! TA.AperFunction,SMDPad,CuDef*
%ADD16R,2.000000X3.800000*%
G04 #@! TD*
G04 #@! TA.AperFunction,SMDPad,CuDef*
%ADD17R,2.000000X1.500000*%
G04 #@! TD*
G04 #@! TA.AperFunction,ComponentPad*
%ADD18C,1.500000*%
G04 #@! TD*
G04 #@! TA.AperFunction,ComponentPad*
%ADD19C,3.000000*%
G04 #@! TD*
G04 #@! TA.AperFunction,SMDPad,CuDef*
%ADD20RoundRect,0.200000X0.275000X-0.200000X0.275000X0.200000X-0.275000X0.200000X-0.275000X-0.200000X0*%
G04 #@! TD*
G04 #@! TA.AperFunction,SMDPad,CuDef*
%ADD21RoundRect,0.200000X0.200000X0.275000X-0.200000X0.275000X-0.200000X-0.275000X0.200000X-0.275000X0*%
G04 #@! TD*
G04 #@! TA.AperFunction,SMDPad,CuDef*
%ADD22RoundRect,0.250000X-0.262500X-0.450000X0.262500X-0.450000X0.262500X0.450000X-0.262500X0.450000X0*%
G04 #@! TD*
G04 #@! TA.AperFunction,SMDPad,CuDef*
%ADD23RoundRect,0.250000X0.475000X-0.250000X0.475000X0.250000X-0.475000X0.250000X-0.475000X-0.250000X0*%
G04 #@! TD*
G04 #@! TA.AperFunction,ComponentPad*
%ADD24C,4.064000*%
G04 #@! TD*
G04 #@! TA.AperFunction,SMDPad,CuDef*
%ADD25R,1.300000X0.700000*%
G04 #@! TD*
G04 #@! TA.AperFunction,SMDPad,CuDef*
%ADD26R,2.000000X1.200000*%
G04 #@! TD*
G04 #@! TA.AperFunction,SMDPad,CuDef*
%ADD27R,1.400000X1.200000*%
G04 #@! TD*
G04 #@! TA.AperFunction,SMDPad,CuDef*
%ADD28R,0.600000X1.440000*%
G04 #@! TD*
G04 #@! TA.AperFunction,SMDPad,CuDef*
%ADD29R,0.300000X1.500000*%
G04 #@! TD*
G04 #@! TA.AperFunction,ComponentPad*
%ADD30O,0.900000X2.000000*%
G04 #@! TD*
G04 #@! TA.AperFunction,ComponentPad*
%ADD31O,0.900000X1.700000*%
G04 #@! TD*
G04 #@! TA.AperFunction,SMDPad,CuDef*
%ADD32RoundRect,0.075000X-1.162500X-0.075000X1.162500X-0.075000X1.162500X0.075000X-1.162500X0.075000X0*%
G04 #@! TD*
G04 #@! TA.AperFunction,SMDPad,CuDef*
%ADD33RoundRect,0.075000X-0.075000X-1.162500X0.075000X-1.162500X0.075000X1.162500X-0.075000X1.162500X0*%
G04 #@! TD*
G04 #@! TA.AperFunction,SMDPad,CuDef*
%ADD34RoundRect,0.250000X0.325000X0.650000X-0.325000X0.650000X-0.325000X-0.650000X0.325000X-0.650000X0*%
G04 #@! TD*
G04 #@! TA.AperFunction,SMDPad,CuDef*
%ADD35C,1.000000*%
G04 #@! TD*
G04 #@! TA.AperFunction,SMDPad,CuDef*
%ADD36R,0.600000X1.200000*%
G04 #@! TD*
G04 #@! TA.AperFunction,SMDPad,CuDef*
%ADD37RoundRect,0.225000X0.225000X0.250000X-0.225000X0.250000X-0.225000X-0.250000X0.225000X-0.250000X0*%
G04 #@! TD*
G04 #@! TA.AperFunction,SMDPad,CuDef*
%ADD38R,2.600000X0.630000*%
G04 #@! TD*
G04 #@! TA.AperFunction,SMDPad,CuDef*
%ADD39R,0.700000X0.700000*%
G04 #@! TD*
G04 #@! TA.AperFunction,SMDPad,CuDef*
%ADD40R,1.600000X1.400000*%
G04 #@! TD*
G04 #@! TA.AperFunction,SMDPad,CuDef*
%ADD41RoundRect,0.250000X0.250000X0.475000X-0.250000X0.475000X-0.250000X-0.475000X0.250000X-0.475000X0*%
G04 #@! TD*
G04 #@! TA.AperFunction,SMDPad,CuDef*
%ADD42RoundRect,0.250000X-0.650000X0.325000X-0.650000X-0.325000X0.650000X-0.325000X0.650000X0.325000X0*%
G04 #@! TD*
G04 #@! TA.AperFunction,SMDPad,CuDef*
%ADD43R,0.600000X2.800000*%
G04 #@! TD*
G04 #@! TA.AperFunction,SMDPad,CuDef*
%ADD44RoundRect,0.250000X-0.250000X-0.475000X0.250000X-0.475000X0.250000X0.475000X-0.250000X0.475000X0*%
G04 #@! TD*
G04 #@! TA.AperFunction,SMDPad,CuDef*
%ADD45RoundRect,0.218750X-0.218750X-0.256250X0.218750X-0.256250X0.218750X0.256250X-0.218750X0.256250X0*%
G04 #@! TD*
G04 #@! TA.AperFunction,SMDPad,CuDef*
%ADD46R,2.300000X1.020000*%
G04 #@! TD*
G04 #@! TA.AperFunction,ComponentPad*
%ADD47C,1.700000*%
G04 #@! TD*
G04 #@! TA.AperFunction,SMDPad,CuDef*
%ADD48RoundRect,0.243750X-0.243750X-0.456250X0.243750X-0.456250X0.243750X0.456250X-0.243750X0.456250X0*%
G04 #@! TD*
G04 #@! TA.AperFunction,SMDPad,CuDef*
%ADD49R,1.200000X0.600000*%
G04 #@! TD*
G04 #@! TA.AperFunction,ComponentPad*
%ADD50C,1.600000*%
G04 #@! TD*
G04 #@! TA.AperFunction,ComponentPad*
%ADD51C,5.000000*%
G04 #@! TD*
G04 #@! TA.AperFunction,SMDPad,CuDef*
%ADD52R,2.200000X1.600000*%
G04 #@! TD*
G04 #@! TA.AperFunction,SMDPad,CuDef*
%ADD53RoundRect,0.250000X-0.325000X-0.650000X0.325000X-0.650000X0.325000X0.650000X-0.325000X0.650000X0*%
G04 #@! TD*
G04 #@! TA.AperFunction,ComponentPad*
%ADD54C,1.800000*%
G04 #@! TD*
G04 #@! TA.AperFunction,ViaPad*
%ADD55C,0.460000*%
G04 #@! TD*
G04 #@! TA.AperFunction,Conductor*
%ADD56C,0.500000*%
G04 #@! TD*
G04 #@! TA.AperFunction,Conductor*
%ADD57C,0.360000*%
G04 #@! TD*
G04 #@! TA.AperFunction,Conductor*
%ADD58C,0.180000*%
G04 #@! TD*
G04 #@! TA.AperFunction,Conductor*
%ADD59C,0.127000*%
G04 #@! TD*
G04 #@! TA.AperFunction,Conductor*
%ADD60C,0.152400*%
G04 #@! TD*
G04 #@! TA.AperFunction,Conductor*
%ADD61C,0.300000*%
G04 #@! TD*
G04 #@! TA.AperFunction,Conductor*
%ADD62C,1.000000*%
G04 #@! TD*
G04 APERTURE END LIST*
D10*
X40675001Y-81500012D03*
X42325001Y-81500012D03*
D11*
X83000000Y-71525000D03*
X83000000Y-69975000D03*
D12*
X83000000Y-72975000D03*
X83000000Y-74525000D03*
D13*
X82999999Y-26749999D03*
D14*
X85540000Y-26750000D03*
D13*
X84749999Y-36329999D03*
D14*
X84750000Y-33790000D03*
X84750000Y-31250000D03*
D15*
X36225000Y-32500000D03*
X37775000Y-32500000D03*
D16*
X62149999Y-94999999D03*
D17*
X55849999Y-92699999D03*
X55849999Y-94999999D03*
X55849999Y-97299999D03*
D10*
X114175000Y-95500000D03*
X115825000Y-95500000D03*
D12*
X99000000Y-92725000D03*
X99000000Y-94275000D03*
D18*
X77000000Y-36000000D03*
X74500000Y-36000000D03*
X72500000Y-36000000D03*
X70000000Y-36000000D03*
X77000000Y-33400000D03*
X74500000Y-33400000D03*
X72500000Y-33400000D03*
X70000000Y-33400000D03*
D19*
X80050000Y-36350000D03*
X80000000Y-30550000D03*
X67000000Y-30550000D03*
X66950000Y-36350000D03*
D20*
X40500000Y-97825006D03*
X40500000Y-96175006D03*
D10*
X40675001Y-79999990D03*
X42325001Y-79999990D03*
D21*
X80825000Y-87000000D03*
X79175000Y-87000000D03*
D20*
X37800000Y-35825000D03*
X37800000Y-34175000D03*
D22*
X92940000Y-68000000D03*
X94765000Y-68000000D03*
D13*
X116999999Y-26999999D03*
D14*
X119540000Y-27000000D03*
D23*
X97500000Y-64700000D03*
X97500000Y-62800000D03*
D15*
X105175000Y-37500000D03*
X106725000Y-37500000D03*
D24*
X119000000Y-96000000D03*
D11*
X61249989Y-90525008D03*
X61249989Y-88975008D03*
D25*
X38549999Y-88819999D03*
X38549999Y-87719999D03*
X38549999Y-86619999D03*
X38549999Y-85519999D03*
X38549999Y-84419999D03*
X38549999Y-83319999D03*
X38549999Y-82219999D03*
X38549999Y-81119999D03*
X38549999Y-80019999D03*
D26*
X27999999Y-78499999D03*
D27*
X37699999Y-78919999D03*
X37699999Y-93599999D03*
D26*
X27999999Y-94019999D03*
D10*
X54175000Y-49500000D03*
X55825000Y-49500000D03*
D28*
X40199999Y-30209999D03*
X39399999Y-30209999D03*
D29*
X38249999Y-30179999D03*
X37249999Y-30179999D03*
X36749999Y-30179999D03*
X35749999Y-30179999D03*
D28*
X34599999Y-30209999D03*
X33799999Y-30209999D03*
D29*
X35249999Y-30179999D03*
X36249999Y-30179999D03*
X37749999Y-30179999D03*
X38749999Y-30179999D03*
D30*
X41324999Y-29429999D03*
D31*
X41324999Y-25249999D03*
D30*
X32674999Y-29429999D03*
D31*
X32674999Y-25249999D03*
D21*
X101824998Y-61000002D03*
X100174998Y-61000002D03*
D13*
X40749999Y-70749989D03*
D14*
X40750000Y-73289990D03*
X40750000Y-75829990D03*
D20*
X35999999Y-97825006D03*
X35999999Y-96175006D03*
D10*
X40675001Y-88999997D03*
X42325001Y-88999997D03*
D13*
X26249999Y-42079999D03*
D14*
X26250000Y-39540000D03*
X26250000Y-37000000D03*
X26250000Y-34460000D03*
X26250000Y-31920000D03*
D32*
X86499995Y-76000011D03*
X86499995Y-76500011D03*
X86499995Y-77000011D03*
X86499995Y-77500011D03*
X86499995Y-78000011D03*
X86499995Y-78500011D03*
X86499995Y-79000011D03*
X86499995Y-79500011D03*
X86499995Y-80000011D03*
X86499995Y-80500011D03*
X86499995Y-81000011D03*
X86499995Y-81500011D03*
X86499995Y-82000011D03*
X86499995Y-82500011D03*
X86499995Y-83000011D03*
X86499995Y-83500011D03*
X86499995Y-84000011D03*
X86499995Y-84500011D03*
X86499995Y-85000011D03*
X86499995Y-85500011D03*
X86499995Y-86000011D03*
X86499995Y-86500011D03*
X86499995Y-87000011D03*
X86499995Y-87500011D03*
X86499995Y-88000011D03*
D33*
X88662495Y-90162511D03*
X89162495Y-90162511D03*
X89662495Y-90162511D03*
X90162495Y-90162511D03*
X90662495Y-90162511D03*
X91162495Y-90162511D03*
X91662495Y-90162511D03*
X92162495Y-90162511D03*
X92662495Y-90162511D03*
X93162495Y-90162511D03*
X93662495Y-90162511D03*
X94162495Y-90162511D03*
X94662495Y-90162511D03*
X95162495Y-90162511D03*
X95662495Y-90162511D03*
X96162495Y-90162511D03*
X96662495Y-90162511D03*
X97162495Y-90162511D03*
X97662495Y-90162511D03*
X98162495Y-90162511D03*
X98662495Y-90162511D03*
X99162495Y-90162511D03*
X99662495Y-90162511D03*
X100162495Y-90162511D03*
X100662495Y-90162511D03*
D32*
X102824995Y-88000011D03*
X102824995Y-87500011D03*
X102824995Y-87000011D03*
X102824995Y-86500011D03*
X102824995Y-86000011D03*
X102824995Y-85500011D03*
X102824995Y-85000011D03*
X102824995Y-84500011D03*
X102824995Y-84000011D03*
X102824995Y-83500011D03*
X102824995Y-83000011D03*
X102824995Y-82500011D03*
X102824995Y-82000011D03*
X102824995Y-81500011D03*
X102824995Y-81000011D03*
X102824995Y-80500011D03*
X102824995Y-80000011D03*
X102824995Y-79500011D03*
X102824995Y-79000011D03*
X102824995Y-78500011D03*
X102824995Y-78000011D03*
X102824995Y-77500011D03*
X102824995Y-77000011D03*
X102824995Y-76500011D03*
X102824995Y-76000011D03*
D33*
X100662495Y-73837511D03*
X100162495Y-73837511D03*
X99662495Y-73837511D03*
X99162495Y-73837511D03*
X98662495Y-73837511D03*
X98162495Y-73837511D03*
X97662495Y-73837511D03*
X97162495Y-73837511D03*
X96662495Y-73837511D03*
X96162495Y-73837511D03*
X95662495Y-73837511D03*
X95162495Y-73837511D03*
X94662495Y-73837511D03*
X94162495Y-73837511D03*
X93662495Y-73837511D03*
X93162495Y-73837511D03*
X92662495Y-73837511D03*
X92162495Y-73837511D03*
X91662495Y-73837511D03*
X91162495Y-73837511D03*
X90662495Y-73837511D03*
X90162495Y-73837511D03*
X89662495Y-73837511D03*
X89162495Y-73837511D03*
X88662495Y-73837511D03*
D34*
X57500006Y-89999995D03*
X54550006Y-89999995D03*
D15*
X102249988Y-73000004D03*
X103799988Y-73000004D03*
D35*
X129650000Y-106650000D03*
D36*
X41349999Y-31951499D03*
X40399999Y-34151499D03*
X39449999Y-31951499D03*
D37*
X102225000Y-37500000D03*
X100675000Y-37500000D03*
D24*
X27000000Y-27000000D03*
D37*
X89025000Y-59500000D03*
X87475000Y-59500000D03*
D21*
X31575000Y-32500000D03*
X29925000Y-32500000D03*
D12*
X75000000Y-56725000D03*
X75000000Y-58275000D03*
X114000000Y-44475000D03*
X114000000Y-46025000D03*
D36*
X79049989Y-83100010D03*
X79999989Y-83100010D03*
X80949989Y-83100010D03*
X80949989Y-80900010D03*
X79049989Y-80900010D03*
D38*
X45949999Y-56364999D03*
X50049999Y-56364999D03*
X45949999Y-57634999D03*
X50049999Y-57634999D03*
X45949999Y-58904999D03*
X50049999Y-58904999D03*
X45949999Y-60174999D03*
X50049999Y-60174999D03*
X45949999Y-61444999D03*
X50049999Y-61444999D03*
X45949999Y-62714999D03*
X50049999Y-62714999D03*
X45949999Y-63984999D03*
X50049999Y-63984999D03*
X45949999Y-65254999D03*
X50049999Y-65254999D03*
X45949999Y-66524999D03*
X50049999Y-66524999D03*
X45949999Y-67794999D03*
X50049999Y-67794999D03*
X45949999Y-69064999D03*
X50049999Y-69064999D03*
X45949999Y-70334999D03*
X50049999Y-70334999D03*
X45949999Y-71604999D03*
X50049999Y-71604999D03*
X45949999Y-72874999D03*
X50049999Y-72874999D03*
X45949999Y-74144999D03*
X50049999Y-74144999D03*
X45949999Y-75414999D03*
X50049999Y-75414999D03*
X45949999Y-76684999D03*
X50049999Y-76684999D03*
X45949999Y-77954999D03*
X50049999Y-77954999D03*
X45949999Y-79224999D03*
X50049999Y-79224999D03*
X45949999Y-80494999D03*
X50049999Y-80494999D03*
X45949999Y-81764999D03*
X50049999Y-81764999D03*
X45949999Y-83034999D03*
X50049999Y-83034999D03*
X45949999Y-84304999D03*
X50049999Y-84304999D03*
X45949999Y-85574999D03*
X50049999Y-85574999D03*
X45949999Y-86844999D03*
X50049999Y-86844999D03*
X45949999Y-88114999D03*
X50049999Y-88114999D03*
X45949999Y-89384999D03*
X50049999Y-89384999D03*
X45949999Y-90654999D03*
X50049999Y-90654999D03*
X45949999Y-91924999D03*
X50049999Y-91924999D03*
X45949999Y-93194999D03*
X50049999Y-93194999D03*
X45949999Y-94464999D03*
X50049999Y-94464999D03*
X45949999Y-95734999D03*
X50049999Y-95734999D03*
X67949999Y-56364999D03*
X72049999Y-56364999D03*
X67949999Y-57634999D03*
X72049999Y-57634999D03*
X67949999Y-58904999D03*
X72049999Y-58904999D03*
X67949999Y-60174999D03*
X72049999Y-60174999D03*
X67949999Y-61444999D03*
X72049999Y-61444999D03*
X67949999Y-62714999D03*
X72049999Y-62714999D03*
X67949999Y-63984999D03*
X72049999Y-63984999D03*
X67949999Y-65254999D03*
X72049999Y-65254999D03*
X67949999Y-66524999D03*
X72049999Y-66524999D03*
X67949999Y-67794999D03*
X72049999Y-67804999D03*
X67949999Y-69064999D03*
X72049999Y-69064999D03*
X67949999Y-70334999D03*
X72049999Y-70334999D03*
X67949999Y-71604999D03*
X72049999Y-71604999D03*
X67949999Y-72874999D03*
X72049999Y-72874999D03*
X67949999Y-74144999D03*
X72049999Y-74144999D03*
X67949999Y-75414999D03*
X72049999Y-75414999D03*
X67949999Y-76684999D03*
X72049999Y-76684999D03*
X67949999Y-77954999D03*
X72049999Y-77954999D03*
X67949999Y-79224999D03*
X72049999Y-79224999D03*
X67949999Y-80494999D03*
X72049999Y-80494999D03*
X67949999Y-81764999D03*
X72049999Y-81764999D03*
X67949999Y-83034999D03*
X72049999Y-83034999D03*
X67949999Y-84304999D03*
X72049999Y-84304999D03*
X67949999Y-85574999D03*
X72049999Y-85574999D03*
X67949999Y-86844999D03*
X72049999Y-86844999D03*
X67949999Y-88114999D03*
X72049999Y-88114999D03*
X67949999Y-89384999D03*
X72049999Y-89384999D03*
X67949999Y-90654999D03*
X72049999Y-90654999D03*
X67949999Y-91924999D03*
X72049999Y-91924999D03*
X67949999Y-93194999D03*
X72049999Y-93194999D03*
X67949999Y-94464999D03*
X72049999Y-94464999D03*
X67949999Y-95734999D03*
X72049999Y-95734999D03*
D39*
X73849999Y-40136500D03*
X72249999Y-40136500D03*
X72249999Y-38836500D03*
X73849999Y-38836500D03*
D13*
X114499999Y-31499999D03*
D14*
X117040000Y-31500000D03*
X119580000Y-31500000D03*
X122120000Y-31500000D03*
D24*
X119000000Y-38000000D03*
D21*
X41325000Y-67750000D03*
X39675000Y-67750000D03*
D39*
X77849999Y-40136500D03*
X76249999Y-40136500D03*
X76249999Y-38836500D03*
X77849999Y-38836500D03*
D40*
X39499999Y-44249999D03*
X47499999Y-44249999D03*
X39499999Y-39749999D03*
X47499999Y-39749999D03*
D12*
X61249989Y-68225012D03*
X61249989Y-69775012D03*
D41*
X42950000Y-51500000D03*
X41050000Y-51500000D03*
D10*
X40675001Y-86000003D03*
X42325001Y-86000003D03*
D20*
X37500001Y-97825006D03*
X37500001Y-96175006D03*
X39000000Y-97825006D03*
X39000000Y-96175006D03*
D11*
X106000000Y-87275000D03*
X106000000Y-85725000D03*
D15*
X97000000Y-71000000D03*
X98550000Y-71000000D03*
D10*
X84224992Y-56500000D03*
X85874992Y-56500000D03*
D37*
X80775000Y-78999992D03*
X79225000Y-78999992D03*
D23*
X101000000Y-64700000D03*
X101000000Y-62800000D03*
D18*
X58000000Y-36000000D03*
X55500000Y-36000000D03*
X53500000Y-36000000D03*
X51000000Y-36000000D03*
X58000000Y-33400000D03*
X55500000Y-33400000D03*
X53500000Y-33400000D03*
X51000000Y-33400000D03*
D19*
X61050000Y-36350000D03*
X61000000Y-30550000D03*
X48000000Y-30550000D03*
X47950000Y-36350000D03*
D11*
X84000007Y-85049987D03*
X84000007Y-83499987D03*
D22*
X87175000Y-69250000D03*
X89000000Y-69250000D03*
D42*
X77000000Y-56775000D03*
X77000000Y-59725000D03*
D43*
X78749999Y-69674999D03*
X78749999Y-74824999D03*
D10*
X40675001Y-83000009D03*
X42325001Y-83000009D03*
D12*
X61500000Y-62225000D03*
X61500000Y-63775000D03*
D10*
X96675005Y-61000002D03*
X98325005Y-61000002D03*
X100174998Y-59249993D03*
X101824998Y-59249993D03*
D15*
X40725001Y-84500006D03*
X42275001Y-84500006D03*
D40*
X28499999Y-44249999D03*
X36499999Y-44249999D03*
X28499999Y-39749999D03*
X36499999Y-39749999D03*
D35*
X129650000Y-18350000D03*
D10*
X39675000Y-63500000D03*
X41325000Y-63500000D03*
X39675000Y-56000000D03*
X41325000Y-56000000D03*
D44*
X105000000Y-39500000D03*
X106900000Y-39500000D03*
D35*
X18350000Y-106650000D03*
D45*
X39712500Y-66000000D03*
X41287500Y-66000000D03*
D20*
X61249989Y-81166493D03*
X61249989Y-79516493D03*
D23*
X53499992Y-95999998D03*
X53499992Y-94099998D03*
D12*
X106000000Y-79993000D03*
X106000000Y-81543000D03*
D46*
X116099999Y-42869999D03*
X121899999Y-42869999D03*
X116099999Y-45409999D03*
X121899999Y-45409999D03*
X116099999Y-47949999D03*
X121899999Y-47949999D03*
X116099999Y-50489999D03*
X121899999Y-50489999D03*
X116099999Y-53029999D03*
X121899999Y-53029999D03*
X116099999Y-55569999D03*
X121899999Y-55569999D03*
X116099999Y-58109999D03*
X121899999Y-58109999D03*
X116099999Y-60649999D03*
X121899999Y-60649999D03*
X116099999Y-63189999D03*
X121899999Y-63189999D03*
X116099999Y-65729999D03*
X121899999Y-65729999D03*
X116099999Y-68269999D03*
X121899999Y-68269999D03*
X116099999Y-70809999D03*
X121899999Y-70809999D03*
X116099999Y-73349999D03*
X121899999Y-73349999D03*
X116099999Y-75889999D03*
X121899999Y-75889999D03*
X116099999Y-78429999D03*
X121899999Y-78429999D03*
X116099999Y-80969999D03*
X121899999Y-80969999D03*
X116099999Y-83509999D03*
X121899999Y-83509999D03*
X116099999Y-86049999D03*
X121899999Y-86049999D03*
X116099999Y-88589999D03*
X121899999Y-88589999D03*
X116099999Y-91129999D03*
X121899999Y-91129999D03*
D47*
X113500000Y-61700000D03*
X113500000Y-59160000D03*
X113500000Y-56620000D03*
X113500000Y-54080000D03*
X113500000Y-51540000D03*
X113500000Y-49000000D03*
X86830000Y-62335000D03*
X89370000Y-62335000D03*
X91910000Y-62335000D03*
D48*
X39562500Y-61500000D03*
X41437500Y-61500000D03*
D10*
X40675001Y-87500000D03*
X42325001Y-87500000D03*
D13*
X64249999Y-48499999D03*
D14*
X66790000Y-48500000D03*
D37*
X90550000Y-71000000D03*
X89000000Y-71000000D03*
D48*
X39625000Y-58000000D03*
X41500000Y-58000000D03*
D35*
X18350000Y-18350000D03*
D41*
X100150000Y-67500000D03*
X98250000Y-67500000D03*
D49*
X33899999Y-34049999D03*
X33899999Y-34999999D03*
X33899999Y-35949999D03*
X36099999Y-35949999D03*
X36099999Y-34999999D03*
X36099999Y-34049999D03*
D10*
X96675005Y-59249993D03*
X98325005Y-59249993D03*
D40*
X50499999Y-44249999D03*
X58499999Y-44249999D03*
X50499999Y-39749999D03*
X58499999Y-39749999D03*
D21*
X31575000Y-34000000D03*
X29925000Y-34000000D03*
D20*
X33000000Y-97825006D03*
X33000000Y-96175006D03*
D50*
X35420000Y-56955000D03*
X35420000Y-59725000D03*
X35420000Y-62495000D03*
X35420000Y-65265000D03*
X35420000Y-68035000D03*
X32580000Y-58340000D03*
X32580000Y-61110000D03*
X32580000Y-63880000D03*
X32580000Y-66650000D03*
D51*
X34000000Y-74990000D03*
X34000000Y-50000000D03*
D52*
X100399999Y-29449999D03*
X107499999Y-29449999D03*
X100399999Y-26249999D03*
X107499999Y-26249999D03*
X100399999Y-32949999D03*
X107499999Y-32949999D03*
D10*
X54175000Y-48000000D03*
X55825000Y-48000000D03*
X114175000Y-93500000D03*
X115825000Y-93500000D03*
D15*
X87475000Y-56500000D03*
X89025000Y-56500000D03*
D37*
X100050000Y-69500000D03*
X98500000Y-69500000D03*
D21*
X42825000Y-49500000D03*
X41175000Y-49500000D03*
D10*
X41175000Y-48000000D03*
X42825000Y-48000000D03*
D14*
X92700000Y-33751200D03*
X92700000Y-27248800D03*
D41*
X102400000Y-39500000D03*
X100500000Y-39500000D03*
D15*
X102249988Y-71500007D03*
X103799988Y-71500007D03*
D24*
X27000000Y-98000000D03*
D20*
X34499999Y-97825006D03*
X34499999Y-96175006D03*
D53*
X42425000Y-35500000D03*
X45375000Y-35500000D03*
D10*
X87425000Y-58000000D03*
X89075000Y-58000000D03*
D21*
X80825000Y-85000004D03*
X79175000Y-85000004D03*
D40*
X61499999Y-44249999D03*
X69499999Y-44249999D03*
X61499999Y-39749999D03*
X69499999Y-39749999D03*
D36*
X63049999Y-62849999D03*
X63999999Y-62849999D03*
X64949999Y-62849999D03*
X64949999Y-60649999D03*
X63049999Y-60649999D03*
D54*
X87640000Y-53530000D03*
X87640000Y-50990000D03*
X87640000Y-48450000D03*
X87640000Y-45910000D03*
X87640000Y-43370000D03*
X87640000Y-40830000D03*
X87640000Y-38290000D03*
X87640000Y-35750000D03*
X110500000Y-35750000D03*
X110500000Y-38290000D03*
X110500000Y-40830000D03*
X110500000Y-43370000D03*
X110500000Y-45910000D03*
X110500000Y-48450000D03*
X110500000Y-50990000D03*
X110500000Y-53530000D03*
D55*
X92830000Y-69620000D03*
X64950000Y-59640000D03*
X44170000Y-62720000D03*
X89550000Y-36270000D03*
X82880000Y-56480000D03*
X104350000Y-94530000D03*
X101330000Y-96630000D03*
X53392061Y-76631600D03*
X53397401Y-79831600D03*
X53392061Y-75968400D03*
X53397401Y-79168400D03*
X53423980Y-87831600D03*
X58580000Y-80300000D03*
X64000000Y-64000000D03*
X53423980Y-87168400D03*
X42950000Y-52830000D03*
X42950000Y-60610000D03*
X51710000Y-91290000D03*
X43200000Y-92690000D03*
X43190000Y-86030000D03*
X69710000Y-57940000D03*
X86980000Y-89770000D03*
X70430000Y-58270000D03*
X86460000Y-90150000D03*
X85960000Y-90530000D03*
X69690000Y-58900000D03*
X85450000Y-90900000D03*
X70300000Y-59500000D03*
X84960000Y-91265500D03*
X69700000Y-60200000D03*
X84460000Y-91610000D03*
X70300000Y-60800000D03*
X69700000Y-61400000D03*
X83960000Y-91960000D03*
X83460000Y-92300000D03*
X70300000Y-62100000D03*
X82950000Y-92625500D03*
X69700000Y-62700000D03*
X70300000Y-63400000D03*
X82440000Y-92955500D03*
X81940000Y-93320000D03*
X69700000Y-64000000D03*
X81420000Y-93638434D03*
X70300000Y-64600000D03*
X75200000Y-68030000D03*
X69630000Y-65820000D03*
X76165000Y-67575000D03*
X73870000Y-65280000D03*
X96000000Y-31250000D03*
X70150000Y-69070000D03*
X80560000Y-90750000D03*
X69750000Y-70330000D03*
X80140000Y-90290000D03*
X70400000Y-71010000D03*
X79720000Y-89830000D03*
X79300000Y-89370000D03*
X69730000Y-71610000D03*
X102350000Y-90050000D03*
X80809996Y-93638443D03*
X104390000Y-85510000D03*
X80200000Y-93638443D03*
X69750000Y-80750000D03*
X78980000Y-93640000D03*
X70310000Y-80310000D03*
X79590000Y-93640000D03*
X41500000Y-97800000D03*
X39705000Y-85520000D03*
X62100000Y-79516500D03*
X60250000Y-89785000D03*
X98360000Y-94930000D03*
X62100000Y-68316500D03*
X62100000Y-81116500D03*
X71000000Y-41040000D03*
X115740000Y-54560000D03*
X71000000Y-39810000D03*
X116370000Y-56770000D03*
X100520000Y-86040000D03*
X88910000Y-83400000D03*
X100510000Y-81440000D03*
X89000000Y-76250000D03*
X94770000Y-69280000D03*
X97400000Y-70090000D03*
X38740000Y-58840000D03*
X51740000Y-60540000D03*
X102890000Y-94190000D03*
X101770000Y-94330000D03*
X120310000Y-55700000D03*
X90150000Y-39920000D03*
X102840000Y-96100000D03*
X121900000Y-54000000D03*
X114170000Y-88580000D03*
X44170000Y-86830000D03*
X37320000Y-83290000D03*
X98500000Y-66250000D03*
X57400000Y-53770000D03*
X98650000Y-87970000D03*
X62040000Y-89750000D03*
X103900000Y-70500000D03*
X99240000Y-61000000D03*
X38760000Y-78910000D03*
X48150000Y-71630000D03*
X62100000Y-69116500D03*
X28000000Y-92500000D03*
X78220000Y-79370000D03*
X51780000Y-56360000D03*
X98662500Y-76000000D03*
X52370000Y-86300000D03*
X65430000Y-81886500D03*
X118100000Y-91100000D03*
X100750000Y-87000000D03*
X37500000Y-92500000D03*
X46580000Y-46010000D03*
X32009521Y-92480479D03*
X90162500Y-76000000D03*
X48020000Y-96340000D03*
X69510000Y-45500000D03*
X100750000Y-76000000D03*
X101525000Y-36650000D03*
X105433521Y-25806479D03*
X79000000Y-59700000D03*
X78400000Y-59300000D03*
X78400000Y-60100000D03*
X51590000Y-78550000D03*
X88750000Y-84500000D03*
X102493521Y-25806479D03*
X51600000Y-68390000D03*
X105875000Y-36650000D03*
X100750000Y-80500000D03*
X57000000Y-67256500D03*
X89040000Y-57250000D03*
X118005000Y-74865000D03*
X43200000Y-84490000D03*
X81020000Y-72230000D03*
X95950000Y-33850000D03*
X28250000Y-75740000D03*
X39700000Y-35600000D03*
X40400000Y-35600000D03*
X68500000Y-28250000D03*
X41100000Y-35600000D03*
X30250000Y-94090000D03*
X87940000Y-70280000D03*
X78400000Y-56400000D03*
X53000000Y-97000000D03*
X41100000Y-34900000D03*
X79000000Y-56800000D03*
X39700000Y-34900000D03*
X80770000Y-78000000D03*
X40400000Y-34900000D03*
X40190000Y-47990000D03*
X78220000Y-85990000D03*
X91970000Y-67990000D03*
X54000000Y-97000000D03*
X78400000Y-57200000D03*
X44190000Y-63985000D03*
X44180000Y-65260000D03*
X56250001Y-44860000D03*
X55795000Y-46145000D03*
X104420000Y-79500000D03*
X104420000Y-82000000D03*
X104420000Y-78100000D03*
X104420000Y-78800000D03*
X47760000Y-57880000D03*
X38310000Y-59240000D03*
X51740000Y-58910000D03*
X37870000Y-59690000D03*
X51740000Y-61150000D03*
X51740000Y-61750000D03*
X41970000Y-68910000D03*
D56*
X79050000Y-69975000D02*
X78750000Y-69675000D01*
X85940000Y-71940000D02*
X83975000Y-69975000D01*
X83000000Y-69975000D02*
X79050000Y-69975000D01*
X88650000Y-71940000D02*
X85940000Y-71940000D01*
X83975000Y-69975000D02*
X83000000Y-69975000D01*
X89100000Y-72390000D02*
X88650000Y-71940000D01*
D57*
X89162495Y-72492495D02*
X89162495Y-72642495D01*
D56*
X83000000Y-74525000D02*
X86875000Y-74525000D01*
X87700000Y-73700000D02*
X88560000Y-73700000D01*
X83000000Y-74525000D02*
X79050000Y-74525000D01*
X86875000Y-74525000D02*
X87700000Y-73700000D01*
X79050000Y-74525000D02*
X78750000Y-74825000D01*
D58*
X100800000Y-72200000D02*
X101362500Y-72200000D01*
X100662500Y-72337500D02*
X100800000Y-72200000D01*
X100662500Y-73837500D02*
X100662500Y-72337500D01*
X101362500Y-72200000D02*
X102162500Y-73000000D01*
X92830000Y-69620000D02*
X93662500Y-70452500D01*
X64950000Y-59640000D02*
X64950000Y-60650000D01*
X93662500Y-70452500D02*
X93662500Y-74337500D01*
X82900000Y-56500000D02*
X82880000Y-56480000D01*
X82880000Y-56480000D02*
X82880000Y-41160000D01*
X44175000Y-62715000D02*
X44170000Y-62720000D01*
X88790000Y-37030000D02*
X89550000Y-36270000D01*
X84224992Y-56500000D02*
X82900000Y-56500000D01*
X82880000Y-41160000D02*
X87010000Y-37030000D01*
X45950000Y-62715000D02*
X44175000Y-62715000D01*
X87010000Y-37030000D02*
X88790000Y-37030000D01*
D59*
X100723501Y-98296499D02*
X102120000Y-96900000D01*
X72050000Y-91925000D02*
X71185000Y-91925000D01*
X103690000Y-94530000D02*
X104350000Y-94530000D01*
X102120000Y-96900000D02*
X102120000Y-96100000D01*
X69260000Y-93850000D02*
X66560000Y-93850000D01*
X102120000Y-96100000D02*
X103690000Y-94530000D01*
X66010000Y-96300000D02*
X68006499Y-98296499D01*
X66010000Y-94400000D02*
X66010000Y-96300000D01*
X71185000Y-91925000D02*
X69260000Y-93850000D01*
X68006499Y-98296499D02*
X100723501Y-98296499D01*
X66560000Y-93850000D02*
X66010000Y-94400000D01*
X99917002Y-98042998D02*
X101330000Y-96630000D01*
X66350000Y-95080000D02*
X66350000Y-96220000D01*
X66965000Y-94465000D02*
X66350000Y-95080000D01*
X68172998Y-98042998D02*
X99917002Y-98042998D01*
X67950000Y-94465000D02*
X66965000Y-94465000D01*
X66350000Y-96220000D02*
X68172998Y-98042998D01*
D60*
X48430000Y-64897600D02*
X48607600Y-64720000D01*
X72872206Y-43966346D02*
X72872206Y-39743648D01*
X47392200Y-69522200D02*
X47496352Y-69522200D01*
X47902200Y-65926352D02*
X48430000Y-65398552D01*
X47708374Y-66616175D02*
X47708375Y-66616175D01*
X48430000Y-65398552D02*
X48430000Y-64897600D01*
X47514549Y-67022350D02*
X47514549Y-66810000D01*
X72872206Y-39743648D02*
X72736358Y-39607800D01*
X47902200Y-67622450D02*
X47902200Y-67410000D01*
X47496352Y-69522200D02*
X47902200Y-69116352D01*
X47514649Y-68222450D02*
X47514649Y-68010000D01*
X45950000Y-69065000D02*
X46935000Y-69065000D01*
X47708425Y-68416225D02*
X47708424Y-68416225D01*
X52118552Y-64720000D02*
X72872206Y-43966346D01*
X47708424Y-67816225D02*
X47708425Y-67816225D01*
X47708375Y-67216175D02*
X47708374Y-67216175D01*
X47902200Y-66422350D02*
X47902200Y-65926352D01*
X72736358Y-39607800D02*
X72652205Y-39607801D01*
X47902200Y-69116352D02*
X47902200Y-68610000D01*
X72652205Y-39607801D02*
X72180006Y-40080000D01*
X48607600Y-64720000D02*
X52118552Y-64720000D01*
X46935000Y-69065000D02*
X47392200Y-69522200D01*
X47708375Y-66616200D02*
G75*
G03*
X47902200Y-66422350I25J193800D01*
G01*
X47708374Y-66616149D02*
G75*
G03*
X47514549Y-66810000I26J-193851D01*
G01*
X47514625Y-67022350D02*
G75*
G03*
X47708374Y-67216175I193775J-50D01*
G01*
X47514675Y-68222450D02*
G75*
G03*
X47708424Y-68416225I193725J-50D01*
G01*
X47902225Y-67410000D02*
G75*
G03*
X47708375Y-67216175I-193825J0D01*
G01*
X47708425Y-67816300D02*
G75*
G03*
X47902200Y-67622450I-25J193800D01*
G01*
X47902175Y-68610000D02*
G75*
G03*
X47708425Y-68416225I-193775J0D01*
G01*
X47708424Y-67816249D02*
G75*
G03*
X47514649Y-68010000I-24J-193751D01*
G01*
X52834112Y-67521317D02*
X53008543Y-67695748D01*
X52584276Y-68120012D02*
X52409846Y-67945582D01*
X51492200Y-69522200D02*
X51606352Y-69522200D01*
X51606352Y-69522200D02*
X52584276Y-68544276D01*
X53432807Y-67695748D02*
X53432806Y-67695747D01*
X76642205Y-39677801D02*
X76170006Y-40150000D01*
X76726358Y-39677800D02*
X76642205Y-39677801D01*
X53432806Y-67695747D02*
X76862206Y-44266346D01*
X50050000Y-69065000D02*
X51035000Y-69065000D01*
X76862206Y-39813648D02*
X76726358Y-39677800D01*
X51035000Y-69065000D02*
X51492200Y-69522200D01*
X76862206Y-44266346D02*
X76862206Y-39813648D01*
X52409846Y-67521318D02*
X52409848Y-67521317D01*
X52584231Y-68544231D02*
G75*
G03*
X52584275Y-68120013I-212131J212131D01*
G01*
X52409896Y-67521368D02*
G75*
G03*
X52409846Y-67945582I212104J-212132D01*
G01*
X53008544Y-67695747D02*
G75*
G03*
X53432806Y-67695747I212131J212131D01*
G01*
X52834111Y-67521318D02*
G75*
G03*
X52409849Y-67521318I-212131J-212131D01*
G01*
X72652205Y-39252199D02*
X72180006Y-38780000D01*
X47392200Y-69877800D02*
X47643648Y-69877800D01*
X72883654Y-39252200D02*
X72652205Y-39252199D01*
X45950000Y-70335000D02*
X46935000Y-70335000D01*
X51561448Y-65780000D02*
X73227806Y-44113642D01*
X73227806Y-44113642D02*
X73227806Y-39596352D01*
X47643648Y-69877800D02*
X48257800Y-69263648D01*
X46935000Y-70335000D02*
X47392200Y-69877800D01*
X48551448Y-65780000D02*
X51561448Y-65780000D01*
X48257800Y-69263648D02*
X48257800Y-66073648D01*
X73227806Y-39596352D02*
X72883654Y-39252200D01*
X48257800Y-66073648D02*
X48551448Y-65780000D01*
X76873654Y-39322200D02*
X76642205Y-39322199D01*
X76642205Y-39322199D02*
X76170006Y-38850000D01*
X51035000Y-70335000D02*
X51492200Y-69877800D01*
X51753648Y-69877800D02*
X77217806Y-44413642D01*
X51492200Y-69877800D02*
X51753648Y-69877800D01*
X77217806Y-39666352D02*
X76873654Y-39322200D01*
X77217806Y-44413642D02*
X77217806Y-39666352D01*
X50050000Y-70335000D02*
X51035000Y-70335000D01*
D58*
X100162500Y-72037500D02*
X100700000Y-71500000D01*
X100700000Y-71500000D02*
X102162500Y-71500000D01*
X100162500Y-73837500D02*
X100162500Y-72037500D01*
D57*
X102400000Y-39500000D02*
X102400000Y-37675000D01*
X102400000Y-37675000D02*
X102225000Y-37500000D01*
X102400000Y-39820000D02*
X104920000Y-42340000D01*
X102400000Y-39500000D02*
X102400000Y-39820000D01*
X104920000Y-76310000D02*
X104229989Y-77000011D01*
X104229989Y-77000011D02*
X104040000Y-77000011D01*
X104920000Y-42340000D02*
X104920000Y-76310000D01*
X105000000Y-41550000D02*
X105000000Y-39500000D01*
X104500000Y-77510000D02*
X105530000Y-76480000D01*
X105000000Y-37675000D02*
X105175000Y-37500000D01*
X105000000Y-39500000D02*
X105000000Y-37675000D01*
X105530000Y-42080000D02*
X105000000Y-41550000D01*
X105530000Y-76480000D02*
X105530000Y-42080000D01*
X104050000Y-77510000D02*
X104500000Y-77510000D01*
D58*
X99160000Y-72600000D02*
X99160000Y-73835016D01*
D57*
X100050000Y-69500000D02*
X100050000Y-71270000D01*
X99160000Y-72160000D02*
X99160000Y-72600000D01*
X100050000Y-71270000D02*
X99160000Y-72160000D01*
D58*
X99160000Y-73835016D02*
X99162495Y-73837511D01*
D57*
X100050000Y-69500000D02*
X100050000Y-67600000D01*
D58*
X94662500Y-74337500D02*
X94662500Y-70197500D01*
X95730000Y-65800000D02*
X93400000Y-63470000D01*
X93400000Y-63470000D02*
X86420000Y-63470000D01*
X87265000Y-61260000D02*
X89025000Y-59500000D01*
X95730000Y-69130000D02*
X95730000Y-65800000D01*
X85740000Y-61890000D02*
X86370000Y-61260000D01*
X86370000Y-61260000D02*
X87265000Y-61260000D01*
X85740000Y-62790000D02*
X85740000Y-61890000D01*
X94662500Y-70197500D02*
X95730000Y-69130000D01*
X86420000Y-63470000D02*
X85740000Y-62790000D01*
D59*
X52851612Y-75054900D02*
X51726512Y-76180000D01*
X47534900Y-82111612D02*
X47411612Y-82234900D01*
X46935000Y-81765000D02*
X45950000Y-81765000D01*
X47404900Y-82234900D02*
X46935000Y-81765000D01*
X53808388Y-75054900D02*
X52851612Y-75054900D01*
X54245100Y-76098388D02*
X54245100Y-75491612D01*
X53878388Y-76465100D02*
X54245100Y-76098388D01*
X48550000Y-76180000D02*
X48550000Y-76867808D01*
X51726512Y-76180000D02*
X48550000Y-76180000D01*
X54245100Y-75491612D02*
X53808388Y-75054900D01*
X48550000Y-76867808D02*
X47534900Y-77882908D01*
X47534900Y-77882908D02*
X47534900Y-82111612D01*
X53558561Y-76465100D02*
X53878388Y-76465100D01*
X53392061Y-76631600D02*
X53558561Y-76465100D01*
X47411612Y-82234900D02*
X47404900Y-82234900D01*
X53604900Y-79992412D02*
X53604900Y-79942412D01*
X53032014Y-80297212D02*
X53300100Y-80297212D01*
X53593627Y-79831600D02*
X53397401Y-79831600D01*
X51035000Y-81765000D02*
X51504900Y-82234900D01*
X51504900Y-82234900D02*
X52581612Y-82234900D01*
X50050000Y-81765000D02*
X51035000Y-81765000D01*
X53604900Y-79942412D02*
X53604900Y-79842873D01*
X52581612Y-82234900D02*
X53604900Y-81211612D01*
X53604900Y-79842873D02*
X53593627Y-79831600D01*
X53300100Y-80906812D02*
X53032014Y-80906812D01*
X53300100Y-80297200D02*
G75*
G03*
X53604900Y-79992412I0J304800D01*
G01*
X53604888Y-81211612D02*
G75*
G03*
X53300100Y-80906812I-304788J12D01*
G01*
X52727188Y-80602012D02*
G75*
G03*
X53032014Y-80906812I304812J12D01*
G01*
X53032014Y-80297214D02*
G75*
G03*
X52727214Y-80602012I-14J-304786D01*
G01*
X47404900Y-82565100D02*
X47548388Y-82565100D01*
X52988388Y-75385100D02*
X53671612Y-75385100D01*
X47548388Y-82565100D02*
X47865100Y-82248388D01*
X48375876Y-81204124D02*
X48375876Y-81155300D01*
X53558561Y-76134900D02*
X53392061Y-75968400D01*
X46935000Y-83035000D02*
X47404900Y-82565100D01*
X53914900Y-75961612D02*
X53741612Y-76134900D01*
X47865100Y-79476500D02*
X47865100Y-78019684D01*
X48375876Y-80084924D02*
X48375876Y-80036100D01*
X51550000Y-76535100D02*
X51838388Y-76535100D01*
X47865100Y-82248388D02*
X47865100Y-81714900D01*
X48694784Y-77190000D02*
X51550000Y-77190000D01*
X47865100Y-78019684D02*
X48694784Y-77190000D01*
X53671612Y-75385100D02*
X53914900Y-75628388D01*
X45950000Y-83035000D02*
X46935000Y-83035000D01*
X47865100Y-80644524D02*
X47865100Y-80595700D01*
X51550000Y-77190000D02*
X51550000Y-76535100D01*
X51838388Y-76535100D02*
X52988388Y-75385100D01*
X53914900Y-75628388D02*
X53914900Y-75961612D01*
X53741612Y-76134900D02*
X53558561Y-76134900D01*
X47865100Y-79525324D02*
X47865100Y-79476500D01*
X48375888Y-80036100D02*
G75*
G03*
X48120488Y-79780712I-255388J0D01*
G01*
X48120488Y-81459500D02*
G75*
G03*
X47865100Y-81714900I12J-255400D01*
G01*
X47865088Y-80644524D02*
G75*
G03*
X48120488Y-80899912I255412J24D01*
G01*
X48120488Y-81459476D02*
G75*
G03*
X48375876Y-81204124I12J255376D01*
G01*
X48375888Y-81155300D02*
G75*
G03*
X48120488Y-80899912I-255388J0D01*
G01*
X48120488Y-80340300D02*
G75*
G03*
X47865100Y-80595700I12J-255400D01*
G01*
X47865088Y-79525324D02*
G75*
G03*
X48120488Y-79780712I255412J24D01*
G01*
X48120488Y-80340276D02*
G75*
G03*
X48375876Y-80084924I12J255376D01*
G01*
X53935100Y-79706099D02*
X53397401Y-79168400D01*
X51035000Y-83035000D02*
X51504900Y-82565100D01*
X50050000Y-83035000D02*
X51035000Y-83035000D01*
X53935100Y-81348388D02*
X53935100Y-79706099D01*
X52718388Y-82565100D02*
X53935100Y-81348388D01*
X51504900Y-82565100D02*
X52718388Y-82565100D01*
X53561612Y-88274900D02*
X53744900Y-88091612D01*
X47975100Y-86991612D02*
X48583488Y-87600000D01*
X51550000Y-88274900D02*
X53561612Y-88274900D01*
X48154900Y-86443900D02*
X48241508Y-86443900D01*
X46935000Y-84305000D02*
X47404900Y-84774900D01*
X53744900Y-87956294D02*
X53620206Y-87831600D01*
X47975100Y-85181612D02*
X47975100Y-85544900D01*
X51550000Y-87600000D02*
X51550000Y-88274900D01*
X53744900Y-88091612D02*
X53744900Y-87956294D01*
X47568388Y-84774900D02*
X47975100Y-85181612D01*
X47404900Y-84774900D02*
X47568388Y-84774900D01*
X48583488Y-87600000D02*
X51550000Y-87600000D01*
X48241508Y-86084300D02*
X48154900Y-86084300D01*
X47975100Y-86983300D02*
X47975100Y-86991612D01*
X48241508Y-86803500D02*
X48154900Y-86803500D01*
X48154900Y-85724700D02*
X48241508Y-85724700D01*
X45950000Y-84305000D02*
X46935000Y-84305000D01*
X53620206Y-87831600D02*
X53423980Y-87831600D01*
X48154900Y-86803500D02*
G75*
G03*
X47975100Y-86983300I0J-179800D01*
G01*
X48241508Y-86803508D02*
G75*
G03*
X48421308Y-86623700I-8J179808D01*
G01*
X48154900Y-86084300D02*
G75*
G03*
X47975100Y-86264100I0J-179800D01*
G01*
X47975100Y-86264100D02*
G75*
G03*
X48154900Y-86443900I179800J0D01*
G01*
X48241508Y-86084308D02*
G75*
G03*
X48421308Y-85904500I-8J179808D01*
G01*
X48421300Y-85904500D02*
G75*
G03*
X48241508Y-85724700I-179800J0D01*
G01*
X48421300Y-86623700D02*
G75*
G03*
X48241508Y-86443900I-179800J0D01*
G01*
X47975100Y-85544900D02*
G75*
G03*
X48154900Y-85724700I179800J0D01*
G01*
D57*
X50050000Y-84305000D02*
X54575000Y-84305000D01*
X64000000Y-64000000D02*
X64000000Y-62850000D01*
X54575000Y-84305000D02*
X58580000Y-80300000D01*
D59*
X53673488Y-88630000D02*
X54075100Y-88228388D01*
X45950000Y-85575000D02*
X46935000Y-85575000D01*
X47644900Y-87128388D02*
X48550000Y-88033488D01*
X48550000Y-88630000D02*
X53673488Y-88630000D01*
X48550000Y-88033488D02*
X48550000Y-88630000D01*
X47644900Y-85318388D02*
X47644900Y-87128388D01*
X54075100Y-87819520D02*
X53423980Y-87168400D01*
X54075100Y-88228388D02*
X54075100Y-87819520D01*
X47431612Y-85105100D02*
X47644900Y-85318388D01*
X46935000Y-85575000D02*
X47404900Y-85105100D01*
X47404900Y-85105100D02*
X47431612Y-85105100D01*
D58*
X42950000Y-49625000D02*
X42825000Y-49500000D01*
D57*
X42950000Y-51500000D02*
X42950000Y-49625000D01*
D59*
X42950000Y-65740000D02*
X42950000Y-60610000D01*
D57*
X42950000Y-52830000D02*
X42950000Y-51500000D01*
D59*
X44110000Y-83290000D02*
X44110000Y-66900000D01*
X49145000Y-85575000D02*
X47260000Y-83690000D01*
X47260000Y-83690000D02*
X44510000Y-83690000D01*
X44110000Y-66900000D02*
X42950000Y-65740000D01*
X50050000Y-85575000D02*
X49145000Y-85575000D01*
X44510000Y-83690000D02*
X44110000Y-83290000D01*
D58*
X56325000Y-48500000D02*
X64250000Y-48500000D01*
X55825000Y-49500000D02*
X55825000Y-48000000D01*
X55825000Y-48000000D02*
X56325000Y-48500000D01*
D57*
X96300000Y-69370000D02*
X95170000Y-70500000D01*
D58*
X95162495Y-73837511D02*
X95162495Y-72627505D01*
D57*
X95170000Y-70500000D02*
X95170000Y-72620000D01*
X97500000Y-64700000D02*
X96300000Y-65900000D01*
X96300000Y-65900000D02*
X96300000Y-69370000D01*
D58*
X95162495Y-72627505D02*
X95170000Y-72620000D01*
D57*
X96960000Y-66900000D02*
X96960000Y-69620000D01*
D61*
X95662500Y-73837500D02*
X95662500Y-72622500D01*
D57*
X96960000Y-69620000D02*
X95660000Y-70920000D01*
D61*
X95662500Y-72622500D02*
X95660000Y-72620000D01*
D57*
X95660000Y-70920000D02*
X95660000Y-72620000D01*
X101000000Y-64700000D02*
X99160000Y-64700000D01*
X99160000Y-64700000D02*
X96960000Y-66900000D01*
D59*
X47440000Y-91160000D02*
X51580000Y-91160000D01*
X45950000Y-90655000D02*
X46935000Y-90655000D01*
X51580000Y-91160000D02*
X51710000Y-91290000D01*
X46935000Y-90655000D02*
X47440000Y-91160000D01*
D57*
X108950000Y-33880000D02*
X107600000Y-35230000D01*
X107600000Y-35230000D02*
X107600000Y-38800000D01*
X107500000Y-29450000D02*
X107610000Y-29450000D01*
X107600000Y-38800000D02*
X106900000Y-39500000D01*
X107610000Y-29450000D02*
X108950000Y-30790000D01*
X108950000Y-30790000D02*
X108950000Y-33880000D01*
X100400000Y-29450000D02*
X107500000Y-29450000D01*
D59*
X42325000Y-89000000D02*
X42325000Y-90625000D01*
X42325000Y-90625000D02*
X43625000Y-91925000D01*
X43625000Y-91925000D02*
X45950000Y-91925000D01*
X43260000Y-88435000D02*
X42325000Y-87500000D01*
X49055000Y-91925000D02*
X48550000Y-91420000D01*
X43850000Y-91420000D02*
X43260000Y-90830000D01*
X50050000Y-91925000D02*
X49055000Y-91925000D01*
X48550000Y-91420000D02*
X43850000Y-91420000D01*
X43260000Y-90830000D02*
X43260000Y-88435000D01*
X43705000Y-93195000D02*
X45950000Y-93195000D01*
X43200000Y-92690000D02*
X43705000Y-93195000D01*
X43160003Y-86000003D02*
X42325001Y-86000003D01*
X43190000Y-86030000D02*
X43160003Y-86000003D01*
X42325000Y-83000000D02*
X42325000Y-83387540D01*
X42325000Y-83387540D02*
X41630000Y-84082540D01*
X49065000Y-93195000D02*
X50050000Y-93195000D01*
X43390000Y-93720000D02*
X48540000Y-93720000D01*
X41630000Y-84082540D02*
X41630000Y-91960000D01*
X48540000Y-93720000D02*
X49065000Y-93195000D01*
X41630000Y-91960000D02*
X43390000Y-93720000D01*
X41370000Y-92220000D02*
X43615000Y-94465000D01*
X43615000Y-94465000D02*
X45950000Y-94465000D01*
X41370000Y-83870000D02*
X41370000Y-92220000D01*
X42325000Y-81500000D02*
X41580000Y-82245000D01*
X41580000Y-83660000D02*
X41370000Y-83870000D01*
X41580000Y-82245000D02*
X41580000Y-83660000D01*
X52160000Y-93340000D02*
X51035000Y-94465000D01*
X43620000Y-89250000D02*
X44390000Y-90020000D01*
X43620000Y-81295000D02*
X43620000Y-89250000D01*
X52160000Y-90730000D02*
X52160000Y-93340000D01*
X51035000Y-94465000D02*
X50050000Y-94465000D01*
X51450000Y-90020000D02*
X52160000Y-90730000D01*
X42325000Y-80000000D02*
X43620000Y-81295000D01*
X44390000Y-90020000D02*
X51450000Y-90020000D01*
X87000000Y-88000000D02*
X87000000Y-89750000D01*
X69710000Y-57940000D02*
X69405000Y-57635000D01*
X69405000Y-57635000D02*
X67950000Y-57635000D01*
X70430000Y-58270000D02*
X71065000Y-57635000D01*
X71065000Y-57635000D02*
X72050000Y-57635000D01*
X86520000Y-90210000D02*
X88615000Y-90210000D01*
X67950000Y-58905000D02*
X69685000Y-58905000D01*
X69685000Y-58905000D02*
X69690000Y-58900000D01*
X85960000Y-90530000D02*
X87369980Y-91939980D01*
X87369980Y-91939980D02*
X88700020Y-91939980D01*
X88700020Y-91939980D02*
X89162500Y-91477500D01*
X89162500Y-91477500D02*
X89162500Y-90162500D01*
X88966519Y-92193481D02*
X89662500Y-91497500D01*
X85450000Y-90900000D02*
X86743481Y-92193481D01*
X71065000Y-58905000D02*
X70470000Y-59500000D01*
X70470000Y-59500000D02*
X70300000Y-59500000D01*
X86743481Y-92193481D02*
X88966519Y-92193481D01*
X72050000Y-58905000D02*
X71065000Y-58905000D01*
X89662500Y-91497500D02*
X89662500Y-90162500D01*
X67950000Y-60175000D02*
X69675000Y-60175000D01*
X90162500Y-91487500D02*
X89203018Y-92446982D01*
X69675000Y-60175000D02*
X69700000Y-60200000D01*
X90162500Y-90162500D02*
X90162500Y-91487500D01*
X89203018Y-92446982D02*
X86141482Y-92446982D01*
X86141482Y-92446982D02*
X84960000Y-91265500D01*
X85550483Y-92700483D02*
X89669517Y-92700483D01*
X90662500Y-91707500D02*
X90662500Y-90162500D01*
X84460000Y-91610000D02*
X85550483Y-92700483D01*
X72050000Y-60175000D02*
X71055000Y-60175000D01*
X89669517Y-92700483D02*
X90662500Y-91707500D01*
X71055000Y-60175000D02*
X70430000Y-60800000D01*
X70430000Y-60800000D02*
X70300000Y-60800000D01*
X84953984Y-92953984D02*
X90036016Y-92953984D01*
X83960000Y-91960000D02*
X84953984Y-92953984D01*
X90036016Y-92953984D02*
X91162500Y-91827500D01*
X91162500Y-91827500D02*
X91162500Y-90162500D01*
X67995000Y-61400000D02*
X69700000Y-61400000D01*
X67950000Y-61445000D02*
X67995000Y-61400000D01*
X91662500Y-91987500D02*
X91662500Y-90162500D01*
X83460000Y-92300000D02*
X84367485Y-93207485D01*
X90442515Y-93207485D02*
X91662500Y-91987500D01*
X70420000Y-62100000D02*
X70300000Y-62100000D01*
X71075000Y-61445000D02*
X70420000Y-62100000D01*
X84367485Y-93207485D02*
X90442515Y-93207485D01*
X72050000Y-61445000D02*
X71075000Y-61445000D01*
X92162500Y-92167500D02*
X90869014Y-93460986D01*
X90869014Y-93460986D02*
X83785486Y-93460986D01*
X69685000Y-62715000D02*
X69700000Y-62700000D01*
X92162500Y-90162500D02*
X92162500Y-92167500D01*
X67950000Y-62715000D02*
X69685000Y-62715000D01*
X83785486Y-93460986D02*
X82950000Y-92625500D01*
X70390000Y-63400000D02*
X70300000Y-63400000D01*
X92662500Y-90162500D02*
X92662500Y-92433634D01*
X83198987Y-93714487D02*
X82440000Y-92955500D01*
X91381647Y-93714487D02*
X83198987Y-93714487D01*
X92662500Y-92433634D02*
X91381647Y-93714487D01*
X72050000Y-62715000D02*
X71075000Y-62715000D01*
X71075000Y-62715000D02*
X70390000Y-63400000D01*
X67950000Y-63985000D02*
X69685000Y-63985000D01*
X91862012Y-93967988D02*
X93162500Y-92667500D01*
X82587988Y-93967988D02*
X91862012Y-93967988D01*
X81940000Y-93320000D02*
X82587988Y-93967988D01*
X93162500Y-92667500D02*
X93162500Y-90162500D01*
X69685000Y-63985000D02*
X69700000Y-64000000D01*
X71065000Y-63985000D02*
X70450000Y-64600000D01*
X93662500Y-90162500D02*
X93662500Y-92957500D01*
X72050000Y-63985000D02*
X71065000Y-63985000D01*
X92398511Y-94221489D02*
X82003055Y-94221489D01*
X82003055Y-94221489D02*
X81420000Y-93638434D01*
X70450000Y-64600000D02*
X70300000Y-64600000D01*
X93662500Y-92957500D02*
X92398511Y-94221489D01*
X89370000Y-68030000D02*
X75200000Y-68030000D01*
X69630000Y-65820000D02*
X69560000Y-65820000D01*
X68995000Y-65255000D02*
X67950000Y-65255000D01*
X91662500Y-73837500D02*
X91662500Y-70322500D01*
X69560000Y-65820000D02*
X68995000Y-65255000D01*
X91662500Y-70322500D02*
X89370000Y-68030000D01*
X76165000Y-67575000D02*
X76210000Y-67620000D01*
X92162500Y-70402500D02*
X92162500Y-74337500D01*
X72075000Y-65280000D02*
X72050000Y-65255000D01*
X89380000Y-67620000D02*
X92162500Y-70402500D01*
X76210000Y-67620000D02*
X89380000Y-67620000D01*
X73870000Y-65280000D02*
X72075000Y-65280000D01*
X92662500Y-70462500D02*
X92662500Y-74337500D01*
X68935000Y-66525000D02*
X69540000Y-67130000D01*
X67950000Y-66525000D02*
X68935000Y-66525000D01*
X89330000Y-67130000D02*
X92662500Y-70462500D01*
X69540000Y-67130000D02*
X89330000Y-67130000D01*
X93162500Y-70582500D02*
X89140000Y-66560000D01*
X93162500Y-74337500D02*
X93162500Y-70582500D01*
X72085000Y-66560000D02*
X72050000Y-66525000D01*
X89140000Y-66560000D02*
X72085000Y-66560000D01*
D57*
X99480000Y-38480000D02*
X99480000Y-33660000D01*
X100400000Y-32950000D02*
X100712464Y-32950000D01*
X100500000Y-39500000D02*
X99480000Y-38480000D01*
X100190000Y-32950000D02*
X100400000Y-32950000D01*
X107197706Y-32950000D02*
X107500000Y-32950000D01*
X105861822Y-34285884D02*
X107197706Y-32950000D01*
X100712464Y-32950000D02*
X102048348Y-34285884D01*
X99480000Y-33660000D02*
X100190000Y-32950000D01*
X102048348Y-34285884D02*
X105861822Y-34285884D01*
D58*
X87475000Y-59500000D02*
X87475000Y-58050000D01*
X87475000Y-58050000D02*
X87425000Y-58000000D01*
X87425000Y-56550000D02*
X87475000Y-56500000D01*
X85874992Y-56500000D02*
X87475000Y-56500000D01*
X87425000Y-58000000D02*
X87425000Y-56550000D01*
D57*
X92700000Y-27248800D02*
X96000000Y-30548800D01*
X96000000Y-30548800D02*
X96000000Y-31250000D01*
D59*
X84790000Y-87000000D02*
X81040000Y-90750000D01*
X87000000Y-87000000D02*
X84790000Y-87000000D01*
X67950000Y-69065000D02*
X70145000Y-69065000D01*
X81040000Y-90750000D02*
X80560000Y-90750000D01*
X70145000Y-69065000D02*
X70150000Y-69070000D01*
D58*
X39675000Y-67750000D02*
X39675000Y-67612500D01*
X39675000Y-67612500D02*
X41287500Y-66000000D01*
D59*
X87000000Y-86000000D02*
X85290000Y-86000000D01*
X85290000Y-86000000D02*
X81000000Y-90290000D01*
X81000000Y-90290000D02*
X80140000Y-90290000D01*
X69750000Y-70330000D02*
X69745000Y-70335000D01*
X69745000Y-70335000D02*
X67950000Y-70335000D01*
X87000000Y-85500000D02*
X85290000Y-85500000D01*
X71075000Y-70335000D02*
X70400000Y-71010000D01*
X80960000Y-89830000D02*
X79720000Y-89830000D01*
X72050000Y-70335000D02*
X71075000Y-70335000D01*
X85290000Y-85500000D02*
X80960000Y-89830000D01*
X87000000Y-85000000D02*
X85310000Y-85000000D01*
X85310000Y-85000000D02*
X80940000Y-89370000D01*
X69730000Y-71610000D02*
X69725000Y-71605000D01*
X69725000Y-71605000D02*
X67950000Y-71605000D01*
X80940000Y-89370000D02*
X79300000Y-89370000D01*
D57*
X34600000Y-29480000D02*
X34600000Y-30180000D01*
X39400000Y-30180000D02*
X39400000Y-29490000D01*
X39400000Y-29490000D02*
X38910000Y-29000000D01*
X38323500Y-31951500D02*
X37775000Y-32500000D01*
X38910000Y-29000000D02*
X35080000Y-29000000D01*
X36100000Y-34050000D02*
X37675000Y-34050000D01*
X39450000Y-31951500D02*
X38323500Y-31951500D01*
D56*
X39400000Y-30210000D02*
X39400000Y-31901500D01*
X39400000Y-31901500D02*
X39450000Y-31951500D01*
D57*
X37675000Y-34050000D02*
X37800000Y-34175000D01*
X37800000Y-32525000D02*
X37775000Y-32500000D01*
X37800000Y-34175000D02*
X37800000Y-32525000D01*
X35080000Y-29000000D02*
X34600000Y-29480000D01*
D59*
X76660000Y-75480000D02*
X76660000Y-89488447D01*
X67950000Y-72875000D02*
X68935000Y-72875000D01*
X102825000Y-89575000D02*
X102350000Y-90050000D01*
X76660000Y-89488447D02*
X80809996Y-93638443D01*
X69560000Y-72250000D02*
X73430000Y-72250000D01*
X73430000Y-72250000D02*
X76660000Y-75480000D01*
X102825000Y-88000000D02*
X102825000Y-89575000D01*
X68935000Y-72875000D02*
X69560000Y-72250000D01*
X76406499Y-89844942D02*
X80200000Y-93638443D01*
X72050000Y-72875000D02*
X73035000Y-72875000D01*
X73035000Y-72875000D02*
X76406499Y-76246499D01*
X76406499Y-76246499D02*
X76406499Y-89844942D01*
X104380000Y-85500000D02*
X104390000Y-85510000D01*
X102325000Y-85500000D02*
X104380000Y-85500000D01*
D58*
X41325000Y-57825000D02*
X41500000Y-58000000D01*
X41325000Y-56000000D02*
X41325000Y-57825000D01*
X41437500Y-63387500D02*
X41325000Y-63500000D01*
X41437500Y-61500000D02*
X41437500Y-63387500D01*
X31575000Y-33825000D02*
X33810000Y-31590000D01*
X31575000Y-34000000D02*
X31575000Y-33825000D01*
X33810000Y-31590000D02*
X37850000Y-31590000D01*
X37850000Y-31590000D02*
X38250000Y-31190000D01*
X38250000Y-31190000D02*
X38250000Y-30000000D01*
D59*
X69520000Y-76100000D02*
X73540000Y-76100000D01*
X76150000Y-78710000D02*
X76150000Y-91504960D01*
X95162500Y-93737500D02*
X95162500Y-90162500D01*
X68935000Y-76685000D02*
X69520000Y-76100000D01*
X67950000Y-76685000D02*
X68935000Y-76685000D01*
X79627032Y-94981992D02*
X93918008Y-94981992D01*
X93918008Y-94981992D02*
X95162500Y-93737500D01*
X76150000Y-91504960D02*
X79627032Y-94981992D01*
X73540000Y-76100000D02*
X76150000Y-78710000D01*
X79522029Y-95235493D02*
X75896499Y-91609963D01*
X94284507Y-95235493D02*
X79522029Y-95235493D01*
X75896499Y-79546499D02*
X73035000Y-76685000D01*
X95662500Y-90162500D02*
X95662500Y-93857500D01*
X73035000Y-76685000D02*
X72050000Y-76685000D01*
X95662500Y-93857500D02*
X94284507Y-95235493D01*
X75896499Y-91609963D02*
X75896499Y-79546499D01*
X94662500Y-93507500D02*
X93441509Y-94728491D01*
X68205000Y-80750000D02*
X67950000Y-80495000D01*
X94662500Y-90162500D02*
X94662500Y-93507500D01*
X93441509Y-94728491D02*
X80068491Y-94728491D01*
X80068491Y-94728491D02*
X78980000Y-93640000D01*
X69750000Y-80750000D02*
X68205000Y-80750000D01*
X72050000Y-80495000D02*
X71865000Y-80310000D01*
X92905010Y-94474990D02*
X80424990Y-94474990D01*
X94162500Y-93217500D02*
X92905010Y-94474990D01*
X94162500Y-90162500D02*
X94162500Y-93217500D01*
X80424990Y-94474990D02*
X79620000Y-93670000D01*
X71865000Y-80310000D02*
X70310000Y-80310000D01*
D58*
X35090000Y-31250000D02*
X33610000Y-31250000D01*
X31575000Y-32500000D02*
X32360000Y-32500000D01*
X35250000Y-30000000D02*
X35250000Y-31090000D01*
X32360000Y-32500000D02*
X33610000Y-31250000D01*
X35250000Y-31090000D02*
X35090000Y-31250000D01*
D59*
X73490000Y-84970000D02*
X68555000Y-84970000D01*
X94751006Y-95488994D02*
X79417026Y-95488994D01*
X75642998Y-87122998D02*
X73490000Y-84970000D01*
X75642998Y-91714966D02*
X75642998Y-87122998D01*
X96162500Y-94077500D02*
X94751006Y-95488994D01*
X96162500Y-90162500D02*
X96162500Y-94077500D01*
X68555000Y-84970000D02*
X67950000Y-85575000D01*
X79417026Y-95488994D02*
X75642998Y-91714966D01*
X72050000Y-85575000D02*
X73477000Y-85575000D01*
X75389497Y-87487497D02*
X75389497Y-91819969D01*
X95237505Y-95742495D02*
X96662500Y-94317500D01*
X79312023Y-95742495D02*
X95237505Y-95742495D01*
X75389497Y-91819969D02*
X79312023Y-95742495D01*
X73477000Y-85575000D02*
X75389497Y-87487497D01*
X96662500Y-94317500D02*
X96662500Y-90162500D01*
X67950000Y-86845000D02*
X68935000Y-86845000D01*
X73520000Y-86340000D02*
X75135996Y-87955996D01*
X97162500Y-94527500D02*
X97162500Y-90162500D01*
X95694004Y-95995996D02*
X97162500Y-94527500D01*
X79207020Y-95995996D02*
X95694004Y-95995996D01*
X75135996Y-87955996D02*
X75135996Y-91924972D01*
X69440000Y-86340000D02*
X73520000Y-86340000D01*
X68935000Y-86845000D02*
X69440000Y-86340000D01*
X75135996Y-91924972D02*
X79207020Y-95995996D01*
X96190503Y-96249497D02*
X97662500Y-94777500D01*
X79102017Y-96249497D02*
X96190503Y-96249497D01*
X97662500Y-94777500D02*
X97662500Y-90162500D01*
X74882495Y-92029975D02*
X79102017Y-96249497D01*
X72050000Y-86845000D02*
X73477000Y-86845000D01*
X74882495Y-88250495D02*
X74882495Y-92029975D01*
X73477000Y-86845000D02*
X74882495Y-88250495D01*
X99162500Y-91572500D02*
X99940000Y-92350000D01*
X69530000Y-87520000D02*
X68935000Y-88115000D01*
X99940000Y-94490000D02*
X97927002Y-96502998D01*
X74628994Y-88779972D02*
X73369022Y-87520000D01*
X99162500Y-90162500D02*
X99162500Y-91572500D01*
X97927002Y-96502998D02*
X78997014Y-96502998D01*
X68935000Y-88115000D02*
X67950000Y-88115000D01*
X99940000Y-92350000D02*
X99940000Y-94490000D01*
X78997014Y-96502998D02*
X74628994Y-92134978D01*
X74628994Y-92134978D02*
X74628994Y-88779972D01*
X73369022Y-87520000D02*
X69530000Y-87520000D01*
X99662500Y-91692500D02*
X100230000Y-92260000D01*
X74375493Y-92239981D02*
X74375493Y-89455493D01*
X74375493Y-89455493D02*
X73035000Y-88115000D01*
X78892011Y-96756499D02*
X74375493Y-92239981D01*
X100230000Y-94590000D02*
X98063501Y-96756499D01*
X99662500Y-90162500D02*
X99662500Y-91692500D01*
X73035000Y-88115000D02*
X72050000Y-88115000D01*
X98063501Y-96756499D02*
X78892011Y-96756499D01*
X100230000Y-92260000D02*
X100230000Y-94590000D01*
X98267505Y-97282495D02*
X78700999Y-97282495D01*
X100295489Y-88734511D02*
X100864511Y-88734511D01*
X100162500Y-90162500D02*
X100162500Y-88867500D01*
X101002995Y-88872995D02*
X101002995Y-91434985D01*
X101002995Y-91434985D02*
X100990000Y-91447980D01*
X100990000Y-91447980D02*
X100990000Y-94560000D01*
X100864511Y-88734511D02*
X101002995Y-88872995D01*
X100162500Y-88867500D02*
X100295489Y-88734511D01*
X100990000Y-94560000D02*
X98267505Y-97282495D01*
X69600000Y-90020000D02*
X68965000Y-89385000D01*
X73860000Y-90530000D02*
X73350000Y-90020000D01*
X78700999Y-97282495D02*
X73860000Y-92441496D01*
X68965000Y-89385000D02*
X67950000Y-89385000D01*
X73350000Y-90020000D02*
X69600000Y-90020000D01*
X73860000Y-92441496D02*
X73860000Y-90530000D01*
X74120000Y-90028000D02*
X73477000Y-89385000D01*
X74120000Y-92342992D02*
X74120000Y-90028000D01*
X100662500Y-90162500D02*
X100662500Y-94527500D01*
X73477000Y-89385000D02*
X72050000Y-89385000D01*
X100662500Y-94527500D02*
X98180000Y-97010000D01*
X78787008Y-97010000D02*
X74120000Y-92342992D01*
X98180000Y-97010000D02*
X78787008Y-97010000D01*
D60*
X74593648Y-37582200D02*
X73963648Y-37582200D01*
X75157800Y-39320149D02*
X75157800Y-38146352D01*
X73963648Y-37582200D02*
X73677795Y-37296347D01*
X73850000Y-40136501D02*
X74322199Y-39664302D01*
X73677795Y-37296347D02*
X73677795Y-36808700D01*
X74322199Y-39664302D02*
X74813648Y-39664301D01*
X75157800Y-38146352D02*
X74593648Y-37582200D01*
X74813648Y-39664301D02*
X75157800Y-39320149D01*
X73677795Y-36808700D02*
X74499994Y-35986501D01*
X73850000Y-38836501D02*
X74322199Y-39308700D01*
X74802200Y-39172853D02*
X74802200Y-38293648D01*
X74802200Y-38293648D02*
X74446352Y-37937800D01*
X73322193Y-37443641D02*
X73322193Y-36808700D01*
X74446352Y-37937800D02*
X73816352Y-37937800D01*
X73816352Y-37937800D02*
X73322193Y-37443641D01*
X74666352Y-39308701D02*
X74802200Y-39172853D01*
X73322193Y-36808700D02*
X72499994Y-35986501D01*
X74322199Y-39308700D02*
X74666352Y-39308701D01*
X75927794Y-36792853D02*
X76597141Y-37462200D01*
X76597141Y-37462200D02*
X78263648Y-37462200D01*
X74499994Y-33386501D02*
X73677795Y-34208700D01*
X73903642Y-34638701D02*
X75453642Y-34638701D01*
X77850000Y-40136501D02*
X78322199Y-39664302D01*
X75453642Y-34638701D02*
X75927794Y-35112853D01*
X75927794Y-35112853D02*
X75927794Y-36792853D01*
X78322199Y-39664302D02*
X78683648Y-39664301D01*
X79107800Y-38306352D02*
X79107800Y-39240149D01*
X78263648Y-37462200D02*
X79107800Y-38306352D01*
X73677795Y-34208700D02*
X73677795Y-34412854D01*
X73677795Y-34412854D02*
X73903642Y-34638701D01*
X78683648Y-39664301D02*
X79107800Y-39240149D01*
X77850000Y-38836501D02*
X78322199Y-39308700D01*
X78116352Y-37817800D02*
X78752200Y-38453648D01*
X75306346Y-34994301D02*
X75572194Y-35260149D01*
X75572194Y-35260149D02*
X75572194Y-36940149D01*
X73756346Y-34994301D02*
X75306346Y-34994301D01*
X76449845Y-37817800D02*
X78116352Y-37817800D01*
X78752200Y-38453648D02*
X78752200Y-39092853D01*
X78322199Y-39308700D02*
X78536352Y-39308701D01*
X72499994Y-33386501D02*
X73322193Y-34208700D01*
X75572194Y-36940149D02*
X76449845Y-37817800D01*
X78536352Y-39308701D02*
X78752200Y-39092853D01*
X73322193Y-34560148D02*
X73756346Y-34994301D01*
X73322193Y-34208700D02*
X73322193Y-34560148D01*
D58*
X40675001Y-88999997D02*
X40675001Y-96000005D01*
X38550000Y-88820000D02*
X40495004Y-88820000D01*
X40675001Y-96000005D02*
X40500000Y-96175006D01*
X40495004Y-88820000D02*
X40675001Y-88999997D01*
X37630000Y-89510000D02*
X37630000Y-88240000D01*
X39000000Y-90880000D02*
X37630000Y-89510000D01*
X38550000Y-87720000D02*
X40455001Y-87720000D01*
X39000000Y-96175006D02*
X39000000Y-90880000D01*
X38150000Y-87720000D02*
X38550000Y-87720000D01*
X37630000Y-88240000D02*
X38150000Y-87720000D01*
X40455001Y-87720000D02*
X40675001Y-87500000D01*
X38550000Y-86620000D02*
X40055004Y-86620000D01*
X36530000Y-87470000D02*
X36530000Y-95205000D01*
X36530000Y-95205000D02*
X37500000Y-96175000D01*
X37380000Y-86620000D02*
X36530000Y-87470000D01*
X40055004Y-86620000D02*
X40675001Y-86000003D01*
X38550000Y-86620000D02*
X37380000Y-86620000D01*
X40725001Y-84500006D02*
X40725001Y-84110223D01*
D57*
X37310000Y-58365000D02*
X39675000Y-56000000D01*
D56*
X61250000Y-79516500D02*
X60266500Y-79516500D01*
X60250000Y-79500000D02*
X60250000Y-69225000D01*
X60250000Y-69225000D02*
X61250000Y-68225000D01*
X57540000Y-96210000D02*
X56330000Y-95000000D01*
D57*
X99000000Y-94275000D02*
X98170000Y-93445000D01*
D56*
X60250000Y-89785000D02*
X60250000Y-79500000D01*
D57*
X42530000Y-74049990D02*
X42530000Y-65990000D01*
D58*
X61341500Y-68316500D02*
X61250000Y-68225000D01*
D56*
X60250000Y-89785000D02*
X60990000Y-90525000D01*
D58*
X62100000Y-68316500D02*
X61341500Y-68316500D01*
D57*
X61555000Y-62225000D02*
X63050000Y-60730000D01*
X98360000Y-94930000D02*
X98360000Y-94915000D01*
D58*
X41300000Y-76379990D02*
X40750000Y-75829990D01*
D57*
X61250000Y-68225000D02*
X61250000Y-65900000D01*
X41475000Y-97825000D02*
X41500000Y-97800000D01*
X40500000Y-97825000D02*
X39000000Y-97825000D01*
X39000000Y-97825000D02*
X37500000Y-97825000D01*
X34500000Y-97825000D02*
X33000000Y-97825000D01*
X61250000Y-65900000D02*
X60590000Y-65240000D01*
D56*
X41500000Y-97800000D02*
X42530000Y-98830000D01*
D57*
X37310000Y-61135000D02*
X37310000Y-58365000D01*
D56*
X61250000Y-79516500D02*
X62100000Y-79516500D01*
D58*
X40725001Y-84110223D02*
X41300000Y-83535224D01*
D56*
X56330000Y-95000000D02*
X55850000Y-95000000D01*
X57540000Y-98350000D02*
X57540000Y-96210000D01*
X57500000Y-93820000D02*
X56320000Y-95000000D01*
D57*
X42530000Y-65990000D02*
X40040000Y-63500000D01*
D56*
X56320000Y-95000000D02*
X55850000Y-95000000D01*
X57500000Y-90000000D02*
X57500000Y-93820000D01*
D57*
X36000000Y-97825000D02*
X34500000Y-97825000D01*
D56*
X39705007Y-85520000D02*
X40725001Y-84500006D01*
X39705000Y-85520000D02*
X39705007Y-85520000D01*
D58*
X41300000Y-83535224D02*
X41300000Y-76379990D01*
D56*
X60990000Y-90525000D02*
X61250000Y-90525000D01*
D57*
X40500000Y-97825000D02*
X41475000Y-97825000D01*
X61500000Y-62225000D02*
X61555000Y-62225000D01*
X37500000Y-97825000D02*
X36000000Y-97825000D01*
X98360000Y-94915000D02*
X99000000Y-94275000D01*
D56*
X60266500Y-79516500D02*
X60250000Y-79500000D01*
D57*
X39675000Y-63500000D02*
X37310000Y-61135000D01*
D56*
X42530000Y-98830000D02*
X57060000Y-98830000D01*
D57*
X60590000Y-65240000D02*
X60590000Y-63135000D01*
X98170000Y-93445000D02*
X98170000Y-91360000D01*
X60590000Y-63135000D02*
X61500000Y-62225000D01*
X63050000Y-60730000D02*
X63050000Y-60650000D01*
X40040000Y-63500000D02*
X39675000Y-63500000D01*
D56*
X57715000Y-89785000D02*
X60250000Y-89785000D01*
D57*
X40750000Y-75829990D02*
X42530000Y-74049990D01*
D56*
X38550000Y-85520000D02*
X39705000Y-85520000D01*
X57500000Y-90000000D02*
X57715000Y-89785000D01*
X57060000Y-98830000D02*
X57540000Y-98350000D01*
D59*
X38550000Y-84420000D02*
X39255000Y-84420000D01*
X39255000Y-84420000D02*
X40675000Y-83000000D01*
D58*
X39955000Y-82220000D02*
X40675000Y-81500000D01*
X38550000Y-82220000D02*
X39955000Y-82220000D01*
X38550000Y-82220000D02*
X36790000Y-82220000D01*
X36000000Y-83010000D02*
X36000000Y-96175000D01*
X36790000Y-82220000D02*
X36000000Y-83010000D01*
X34500000Y-82980000D02*
X34500000Y-96175000D01*
X39555000Y-81120000D02*
X40675000Y-80000000D01*
X38550000Y-81120000D02*
X39555000Y-81120000D01*
X36360000Y-81120000D02*
X34500000Y-82980000D01*
X38550000Y-81120000D02*
X36360000Y-81120000D01*
D57*
X61250000Y-81166500D02*
X62050000Y-81166500D01*
X62050000Y-81166500D02*
X62100000Y-81116500D01*
X116100000Y-55570000D02*
X115740000Y-55210000D01*
D58*
X48140000Y-28090000D02*
X49720000Y-29670000D01*
X32120000Y-28090000D02*
X48140000Y-28090000D01*
D57*
X50500000Y-39750000D02*
X58500000Y-39750000D01*
D58*
X28400000Y-34850000D02*
X28400000Y-31810000D01*
D57*
X59790000Y-41040000D02*
X71000000Y-41040000D01*
D58*
X28400000Y-31810000D02*
X32120000Y-28090000D01*
D57*
X58500000Y-39750000D02*
X59790000Y-41040000D01*
D58*
X49720000Y-38970000D02*
X50500000Y-39750000D01*
D57*
X115740000Y-55210000D02*
X115740000Y-54560000D01*
D58*
X26250000Y-37000000D02*
X28400000Y-34850000D01*
X49720000Y-29670000D02*
X49720000Y-38970000D01*
D57*
X116370000Y-57840000D02*
X116370000Y-56770000D01*
D58*
X26250000Y-33450000D02*
X26250000Y-34460000D01*
X61500000Y-39750000D02*
X59572155Y-37822155D01*
X50030000Y-36470000D02*
X50030000Y-29515000D01*
D57*
X116100000Y-58110000D02*
X116370000Y-57840000D01*
D58*
X48265000Y-27750000D02*
X31950000Y-27750000D01*
D57*
X71000000Y-39810000D02*
X69560000Y-39810000D01*
D58*
X31950000Y-27750000D02*
X26250000Y-33450000D01*
D57*
X69500000Y-39750000D02*
X61500000Y-39750000D01*
D58*
X50030000Y-29515000D02*
X48265000Y-27750000D01*
D57*
X69560000Y-39810000D02*
X69500000Y-39750000D01*
D58*
X59572155Y-37822155D02*
X51382155Y-37822155D01*
X51382155Y-37822155D02*
X50030000Y-36470000D01*
X100510000Y-81440000D02*
X100940000Y-81010000D01*
D57*
X105467000Y-81010000D02*
X104070000Y-81010000D01*
X89662500Y-75587500D02*
X89662500Y-73837500D01*
X105225000Y-86500000D02*
X104040000Y-86500000D01*
X106000000Y-81543000D02*
X105467000Y-81010000D01*
D58*
X100940000Y-81010000D02*
X104070000Y-81010000D01*
X88910000Y-83400000D02*
X88910000Y-83460000D01*
X88910000Y-83460000D02*
X88370000Y-84000000D01*
D57*
X89662500Y-71662500D02*
X89000000Y-71000000D01*
D58*
X100520000Y-86040000D02*
X100980000Y-86500000D01*
D57*
X89662500Y-73837500D02*
X89662500Y-71662500D01*
D58*
X88370000Y-84000000D02*
X85240000Y-84000000D01*
D57*
X89000000Y-76250000D02*
X89662500Y-75587500D01*
X84000000Y-83500000D02*
X84500000Y-84000000D01*
X89000000Y-71000000D02*
X89000000Y-69250000D01*
D58*
X100980000Y-86500000D02*
X104040000Y-86500000D01*
D57*
X106000000Y-85725000D02*
X105225000Y-86500000D01*
X84500000Y-84000000D02*
X85240000Y-84000000D01*
X98162500Y-72162500D02*
X97000000Y-71000000D01*
D56*
X94765000Y-68000000D02*
X94765000Y-69275000D01*
X97000000Y-70490000D02*
X97000000Y-71000000D01*
X97400000Y-70090000D02*
X97000000Y-70490000D01*
X94765000Y-69275000D02*
X94770000Y-69280000D01*
D57*
X98162500Y-72610000D02*
X98162500Y-72162500D01*
X96675005Y-61000002D02*
X96675005Y-62205005D01*
X98325005Y-59604995D02*
X98325005Y-59249993D01*
X97270000Y-62800000D02*
X97500000Y-62800000D01*
X96675005Y-62205005D02*
X97270000Y-62800000D01*
X97220000Y-60710000D02*
X98325005Y-59604995D01*
X96675005Y-61000002D02*
X96965007Y-60710000D01*
X96965007Y-60710000D02*
X97220000Y-60710000D01*
X101824998Y-62235002D02*
X101260000Y-62800000D01*
X101260000Y-62800000D02*
X101000000Y-62800000D01*
X101824998Y-61000002D02*
X101824998Y-62235002D01*
X101825000Y-59250000D02*
X101825000Y-61000000D01*
X97020000Y-60140000D02*
X94105000Y-60140000D01*
X99345000Y-58420000D02*
X97890000Y-58420000D01*
X97500000Y-59660000D02*
X97020000Y-60140000D01*
X97500000Y-58810000D02*
X97500000Y-59660000D01*
X94105000Y-60140000D02*
X91910000Y-62335000D01*
X100175000Y-59250000D02*
X99345000Y-58420000D01*
X97890000Y-58420000D02*
X97500000Y-58810000D01*
X96675000Y-59250000D02*
X90700000Y-59250000D01*
X90700000Y-59250000D02*
X87615000Y-62335000D01*
X87615000Y-62335000D02*
X86830000Y-62335000D01*
D59*
X48400000Y-58350000D02*
X42700000Y-58350000D01*
X42070000Y-58980000D02*
X40430000Y-58980000D01*
X40430000Y-58980000D02*
X39625000Y-58175000D01*
X42700000Y-58350000D02*
X42070000Y-58980000D01*
D58*
X38785000Y-58840000D02*
X38740000Y-58840000D01*
D59*
X39625000Y-58175000D02*
X39625000Y-58000000D01*
X50050000Y-57635000D02*
X49115000Y-57635000D01*
X49115000Y-57635000D02*
X48400000Y-58350000D01*
D58*
X39625000Y-58000000D02*
X38785000Y-58840000D01*
X45950000Y-60175000D02*
X45865000Y-60090000D01*
D59*
X51599500Y-60680500D02*
X47400500Y-60680500D01*
X47400500Y-60680500D02*
X46895000Y-60175000D01*
X51740000Y-60540000D02*
X51599500Y-60680500D01*
D58*
X40972500Y-60090000D02*
X39562500Y-61500000D01*
X45865000Y-60090000D02*
X40972500Y-60090000D01*
D59*
X46895000Y-60175000D02*
X45950000Y-60175000D01*
D57*
X107710000Y-95500000D02*
X114175000Y-95500000D01*
D58*
X102824995Y-83500011D02*
X104049989Y-83500011D01*
D57*
X105500000Y-83500000D02*
X107000000Y-85000000D01*
D58*
X104049989Y-83500011D02*
X104050000Y-83500000D01*
D57*
X107000000Y-85000000D02*
X107000000Y-89620000D01*
X105500000Y-93290000D02*
X107710000Y-95500000D01*
X104050000Y-83500000D02*
X105500000Y-83500000D01*
X107000000Y-89620000D02*
X105500000Y-91120000D01*
X105500000Y-91120000D02*
X105500000Y-93290000D01*
D59*
X99300503Y-97789497D02*
X102890000Y-94200000D01*
X72050000Y-95735000D02*
X73035000Y-95735000D01*
X102890000Y-94200000D02*
X102890000Y-94190000D01*
X75089497Y-97789497D02*
X99300503Y-97789497D01*
X73035000Y-95735000D02*
X75089497Y-97789497D01*
X73606499Y-91506499D02*
X73606499Y-92546499D01*
X70580000Y-91280000D02*
X73380000Y-91280000D01*
X69800000Y-92330000D02*
X69800000Y-92060000D01*
X98564004Y-97535996D02*
X101770000Y-94330000D01*
X67950000Y-93195000D02*
X68935000Y-93195000D01*
X78595996Y-97535996D02*
X98564004Y-97535996D01*
X68935000Y-93195000D02*
X69800000Y-92330000D01*
X73606499Y-92546499D02*
X78595996Y-97535996D01*
X73380000Y-91280000D02*
X73606499Y-91506499D01*
X69800000Y-92060000D02*
X70580000Y-91280000D01*
D57*
X122300000Y-55700000D02*
X120310000Y-55700000D01*
D58*
X114635000Y-85005000D02*
X114635000Y-55215000D01*
X115680000Y-86050000D02*
X114635000Y-85005000D01*
X114635000Y-55215000D02*
X113500000Y-54080000D01*
X116100000Y-86050000D02*
X115680000Y-86050000D01*
X121580000Y-91260000D02*
X117760000Y-87440000D01*
X113900000Y-86170000D02*
X113900000Y-65520000D01*
X121690000Y-91260000D02*
X121580000Y-91260000D01*
X113900000Y-65520000D02*
X112300000Y-63920000D01*
X117760000Y-87440000D02*
X115170000Y-87440000D01*
X115170000Y-87440000D02*
X113900000Y-86170000D01*
X112300000Y-63920000D02*
X112300000Y-57820000D01*
X112300000Y-57820000D02*
X113500000Y-56620000D01*
D59*
X66965000Y-91925000D02*
X65640000Y-93250000D01*
D58*
X85540000Y-26750000D02*
X90150000Y-31360000D01*
D59*
X65640000Y-93250000D02*
X65640000Y-96330000D01*
D58*
X90150000Y-31360000D02*
X90150000Y-39920000D01*
D59*
X101340000Y-98550000D02*
X102840000Y-97050000D01*
X102840000Y-97050000D02*
X102840000Y-96100000D01*
X65640000Y-96330000D02*
X67860000Y-98550000D01*
X67860000Y-98550000D02*
X101340000Y-98550000D01*
X67950000Y-91925000D02*
X66965000Y-91925000D01*
D58*
X33000000Y-96175000D02*
X33000000Y-82870000D01*
X42825000Y-95735000D02*
X41560000Y-97000000D01*
X33000000Y-82870000D02*
X35850000Y-80020000D01*
X45950000Y-95735000D02*
X42825000Y-95735000D01*
X35850000Y-80020000D02*
X38550000Y-80020000D01*
X33825000Y-97000000D02*
X33000000Y-96175000D01*
X41560000Y-97000000D02*
X33825000Y-97000000D01*
D57*
X114175000Y-88585000D02*
X114170000Y-88580000D01*
X121900000Y-53030000D02*
X121900000Y-54000000D01*
X114175000Y-93500000D02*
X114175000Y-88585000D01*
D56*
X115825000Y-95500000D02*
X115825000Y-95150000D01*
X115825000Y-95150000D02*
X114175000Y-93500000D01*
X103900000Y-71487500D02*
X103887500Y-71500000D01*
D58*
X103750000Y-73000000D02*
X103800000Y-73000000D01*
X45950000Y-77955000D02*
X46815000Y-77955000D01*
D57*
X37500000Y-92500000D02*
X37500000Y-93400000D01*
X37700000Y-78920000D02*
X38750000Y-78920000D01*
X106000000Y-87275000D02*
X105725000Y-87000000D01*
D56*
X33900000Y-35950000D02*
X31875000Y-35950000D01*
D57*
X62921500Y-68295000D02*
X62921500Y-66188500D01*
D62*
X75550000Y-58275000D02*
X77000000Y-59725000D01*
D57*
X37500000Y-93400000D02*
X37700000Y-93600000D01*
D56*
X29925000Y-34000000D02*
X29925000Y-32500000D01*
D58*
X51775000Y-56365000D02*
X51780000Y-56360000D01*
D56*
X55260000Y-92700000D02*
X55850000Y-92700000D01*
D58*
X44400000Y-68460000D02*
X45065000Y-67795000D01*
D57*
X102493521Y-25806479D02*
X100843521Y-25806479D01*
X62025000Y-89750000D02*
X62040000Y-89750000D01*
X79050000Y-79174992D02*
X79225000Y-78999992D01*
D58*
X48020000Y-96340000D02*
X48570000Y-96340000D01*
D56*
X47100000Y-35500000D02*
X47950000Y-36350000D01*
X32820000Y-33410000D02*
X33730000Y-32500000D01*
D57*
X54660000Y-89650000D02*
X54660000Y-90390000D01*
X61500000Y-64760000D02*
X61500000Y-63775000D01*
D58*
X48150000Y-71630000D02*
X48140000Y-71630000D01*
D57*
X72050000Y-67805000D02*
X67960000Y-67805000D01*
X54660000Y-90390000D02*
X54550000Y-90500000D01*
D58*
X48175000Y-71605000D02*
X48150000Y-71630000D01*
D56*
X121770000Y-65860000D02*
X121900000Y-65730000D01*
D58*
X46815000Y-77955000D02*
X47550000Y-77220000D01*
X50050000Y-56365000D02*
X51775000Y-56365000D01*
D57*
X28250000Y-75740000D02*
X28250000Y-78250000D01*
X105493000Y-80500000D02*
X104050000Y-80500000D01*
D56*
X50500000Y-44250000D02*
X49180000Y-42930000D01*
D57*
X84000000Y-85050000D02*
X84540000Y-84510000D01*
D56*
X41325000Y-29430000D02*
X40770000Y-29430000D01*
X40770000Y-29430000D02*
X40200000Y-30000000D01*
D57*
X84540000Y-84510000D02*
X85250000Y-84510000D01*
D56*
X119030000Y-68280000D02*
X119030000Y-70740000D01*
D62*
X78400000Y-59300000D02*
X78600000Y-59300000D01*
X77375000Y-60100000D02*
X77000000Y-59725000D01*
D56*
X103887500Y-73000000D02*
X103887500Y-71500000D01*
D57*
X101525000Y-36650000D02*
X105875000Y-36650000D01*
D56*
X54550000Y-91400000D02*
X55850000Y-92700000D01*
D57*
X84040000Y-25710000D02*
X83000000Y-26750000D01*
X62921500Y-68295000D02*
X66235000Y-68295000D01*
D58*
X47550000Y-72220000D02*
X46935000Y-71605000D01*
X51005000Y-67795000D02*
X51600000Y-68390000D01*
D56*
X116490000Y-73350000D02*
X121570000Y-78430000D01*
X83000000Y-72230000D02*
X81020000Y-72230000D01*
X39712500Y-66000000D02*
X37677500Y-68035000D01*
X118100000Y-91100000D02*
X116130000Y-91100000D01*
X69500000Y-45490000D02*
X69510000Y-45500000D01*
X98550000Y-69550000D02*
X98500000Y-69500000D01*
X32820000Y-34560000D02*
X32820000Y-33410000D01*
D58*
X89040000Y-57965000D02*
X89075000Y-58000000D01*
D56*
X116100000Y-53030000D02*
X116480000Y-53030000D01*
X69500000Y-44250000D02*
X69500000Y-45490000D01*
D57*
X80000000Y-82170000D02*
X80000000Y-83100000D01*
D58*
X72050000Y-90655000D02*
X67950000Y-90655000D01*
D56*
X45375000Y-35675000D02*
X45630000Y-35930000D01*
X32675000Y-29430000D02*
X33229999Y-29430000D01*
X45375000Y-35500000D02*
X45375000Y-35495000D01*
X120170000Y-64320000D02*
X120170000Y-59480000D01*
X103900000Y-70500000D02*
X103900000Y-71487500D01*
D57*
X98662500Y-76000000D02*
X98662500Y-73837500D01*
D58*
X49175000Y-95735000D02*
X50050000Y-95735000D01*
D57*
X67960000Y-67805000D02*
X67950000Y-67795000D01*
D62*
X79000000Y-59700000D02*
X77025000Y-59700000D01*
D56*
X121570000Y-78430000D02*
X121900000Y-78430000D01*
X35500000Y-51500000D02*
X34000000Y-50000000D01*
D57*
X62945000Y-90655000D02*
X62040000Y-89750000D01*
X54550000Y-90500000D02*
X54550000Y-90000000D01*
D58*
X100750000Y-78150000D02*
X100750000Y-80500000D01*
D57*
X79050000Y-80900000D02*
X79050000Y-81220000D01*
X105875000Y-36650000D02*
X106725000Y-37500000D01*
X36500000Y-44250000D02*
X28500000Y-44250000D01*
D56*
X114010000Y-51540000D02*
X113500000Y-51540000D01*
D57*
X50050000Y-86845000D02*
X51825000Y-86845000D01*
D56*
X116420000Y-73350000D02*
X116100000Y-73350000D01*
X121560000Y-47950000D02*
X121900000Y-47950000D01*
X120200000Y-79800000D02*
X120200000Y-82110000D01*
X33260000Y-35000000D02*
X32820000Y-34560000D01*
D62*
X78400000Y-59300000D02*
X77425000Y-59300000D01*
D57*
X99240000Y-61000000D02*
X100175000Y-61000000D01*
D58*
X100750000Y-87000000D02*
X104020000Y-87000000D01*
D57*
X52370000Y-86300000D02*
X53770000Y-86300000D01*
D56*
X45375000Y-35500000D02*
X47100000Y-35500000D01*
D57*
X65430000Y-80210000D02*
X65430000Y-81886500D01*
D56*
X49180000Y-42930000D02*
X49180000Y-37580000D01*
X115629987Y-53159987D02*
X114010000Y-51540000D01*
X53500000Y-94100000D02*
X53860000Y-94100000D01*
D57*
X37350000Y-83320000D02*
X37320000Y-83290000D01*
D56*
X112240000Y-46235000D02*
X114000000Y-44475000D01*
D58*
X98662495Y-90162511D02*
X98662495Y-87982495D01*
D57*
X78590008Y-78999992D02*
X78220000Y-79370000D01*
D58*
X98662495Y-87982495D02*
X98650000Y-87970000D01*
D56*
X45630000Y-35930000D02*
X46930000Y-35930000D01*
X29925000Y-32500000D02*
X29925000Y-31535000D01*
D57*
X95950000Y-33850000D02*
X87810000Y-25710000D01*
X61441488Y-69775012D02*
X62100000Y-69116500D01*
X62100000Y-69116500D02*
X62921500Y-68295000D01*
D58*
X48570000Y-96340000D02*
X49175000Y-95735000D01*
D56*
X116100000Y-53030000D02*
X116450000Y-53030000D01*
X121580000Y-65730000D02*
X119030000Y-68280000D01*
D57*
X67950000Y-79225000D02*
X66415000Y-79225000D01*
D58*
X44185000Y-86845000D02*
X44170000Y-86830000D01*
D57*
X100675000Y-37500000D02*
X101525000Y-36650000D01*
X38550000Y-83320000D02*
X37350000Y-83320000D01*
D56*
X83000000Y-72230000D02*
X83000000Y-72975000D01*
D57*
X66735000Y-67795000D02*
X67950000Y-67795000D01*
D58*
X44400000Y-70910000D02*
X44400000Y-68460000D01*
D57*
X79050000Y-81220000D02*
X80000000Y-82170000D01*
X79050000Y-80900000D02*
X79050000Y-79174992D01*
D62*
X78400000Y-60100000D02*
X78600000Y-60100000D01*
D56*
X98550000Y-71000000D02*
X98550000Y-69550000D01*
X121600000Y-83510000D02*
X121900000Y-83510000D01*
X33900000Y-35000000D02*
X33260000Y-35000000D01*
X115825000Y-93500000D02*
X115825000Y-91405000D01*
D57*
X99000000Y-92725000D02*
X98660000Y-92385000D01*
X100843521Y-25806479D02*
X100400000Y-26250000D01*
D58*
X45950000Y-71605000D02*
X45095000Y-71605000D01*
D57*
X66415000Y-79225000D02*
X65430000Y-80210000D01*
D58*
X51590000Y-78550000D02*
X50995000Y-77955000D01*
D57*
X66235000Y-68295000D02*
X66735000Y-67795000D01*
D58*
X47550000Y-77220000D02*
X47550000Y-72220000D01*
D57*
X58500000Y-44250000D02*
X61500000Y-44250000D01*
D56*
X120170000Y-59480000D02*
X121540000Y-58110000D01*
X116130000Y-91100000D02*
X116100000Y-91130000D01*
D58*
X89040000Y-57250000D02*
X89040000Y-57965000D01*
D57*
X47500000Y-44250000D02*
X47500000Y-45090000D01*
D56*
X29925000Y-31535000D02*
X32030000Y-29430000D01*
D57*
X50500000Y-44250000D02*
X58500000Y-44250000D01*
D56*
X83000000Y-71525000D02*
X83000000Y-72230000D01*
D57*
X62921500Y-66181500D02*
X61500000Y-64760000D01*
D62*
X78600000Y-60100000D02*
X79000000Y-59700000D01*
D58*
X45065000Y-67795000D02*
X45950000Y-67795000D01*
X45950000Y-86845000D02*
X44185000Y-86845000D01*
D57*
X107056479Y-25806479D02*
X107500000Y-26250000D01*
D56*
X53860000Y-94100000D02*
X55260000Y-92700000D01*
X116100000Y-73350000D02*
X116490000Y-73350000D01*
X46750000Y-36110000D02*
X46940000Y-35920000D01*
X119030000Y-70740000D02*
X116420000Y-73350000D01*
X33900000Y-35950000D02*
X33900000Y-35000000D01*
D58*
X85260000Y-84500000D02*
X85250000Y-84510000D01*
D56*
X31875000Y-35950000D02*
X29925000Y-34000000D01*
X41050000Y-51500000D02*
X35500000Y-51500000D01*
D58*
X100900000Y-78000000D02*
X100750000Y-78150000D01*
D56*
X121900000Y-65730000D02*
X121580000Y-65730000D01*
D62*
X77425000Y-59300000D02*
X77000000Y-59725000D01*
D57*
X36500000Y-44250000D02*
X39500000Y-44250000D01*
X105187042Y-25560000D02*
X105433521Y-25806479D01*
D56*
X49180000Y-37580000D02*
X47950000Y-36350000D01*
D57*
X67950000Y-79225000D02*
X72050000Y-79225000D01*
D58*
X50050000Y-67795000D02*
X51005000Y-67795000D01*
D57*
X98325000Y-61000000D02*
X99240000Y-61000000D01*
X79225000Y-78999992D02*
X78590008Y-78999992D01*
X54720000Y-89540000D02*
X54550000Y-89710000D01*
D56*
X121580000Y-65730000D02*
X120170000Y-64320000D01*
D57*
X28250000Y-78250000D02*
X28000000Y-78500000D01*
X61249989Y-69775012D02*
X61441488Y-69775012D01*
D56*
X112240000Y-50280000D02*
X112240000Y-46235000D01*
D58*
X50050000Y-71605000D02*
X48175000Y-71605000D01*
D57*
X62921500Y-66188500D02*
X64950000Y-64160000D01*
X105433521Y-25806479D02*
X107056479Y-25806479D01*
D56*
X98500000Y-69500000D02*
X98500000Y-67750000D01*
X115825000Y-91405000D02*
X116100000Y-91130000D01*
D57*
X51825000Y-86845000D02*
X52370000Y-86300000D01*
X47500000Y-45090000D02*
X46580000Y-46010000D01*
X61250000Y-88975000D02*
X62025000Y-89750000D01*
D56*
X54550000Y-90000000D02*
X54550000Y-91400000D01*
D58*
X89025000Y-56500000D02*
X89025000Y-57235000D01*
D57*
X98660000Y-92385000D02*
X98660000Y-91370000D01*
X53770000Y-86300000D02*
X54720000Y-87250000D01*
D56*
X45750000Y-35120000D02*
X48030000Y-35120000D01*
X45375000Y-35500000D02*
X45375000Y-35675000D01*
X98500000Y-67250000D02*
X98500000Y-66250000D01*
X45640000Y-36110000D02*
X46750000Y-36110000D01*
X113500000Y-51540000D02*
X112240000Y-50280000D01*
D58*
X88750000Y-84500000D02*
X85260000Y-84500000D01*
D56*
X32030000Y-29430000D02*
X32675000Y-29430000D01*
D58*
X48140000Y-71630000D02*
X47550000Y-72220000D01*
D57*
X39500000Y-44250000D02*
X47500000Y-44250000D01*
D58*
X100900000Y-78000000D02*
X102825000Y-78000000D01*
D57*
X105725000Y-87000000D02*
X104020000Y-87000000D01*
D56*
X33730000Y-32500000D02*
X36225000Y-32500000D01*
D57*
X36500000Y-44250000D02*
X36499999Y-47500001D01*
D56*
X121570000Y-78430000D02*
X120200000Y-79800000D01*
D57*
X42275000Y-84500000D02*
X43190000Y-84500000D01*
D56*
X45375000Y-35495000D02*
X45750000Y-35120000D01*
X121530000Y-58110000D02*
X121900000Y-58110000D01*
D57*
X98662500Y-71112500D02*
X98550000Y-71000000D01*
X106000000Y-79993000D02*
X105493000Y-80500000D01*
X54720000Y-87250000D02*
X54720000Y-89540000D01*
X102493521Y-25806479D02*
X102740000Y-25560000D01*
X90162500Y-73837500D02*
X90162500Y-71387500D01*
D58*
X98650000Y-87970000D02*
X98662500Y-87982500D01*
D57*
X38750000Y-78920000D02*
X38760000Y-78910000D01*
X90162500Y-71387500D02*
X90550000Y-71000000D01*
D58*
X89025000Y-57235000D02*
X89040000Y-57250000D01*
X45095000Y-71605000D02*
X44400000Y-70910000D01*
D57*
X61500000Y-44250000D02*
X69500000Y-44250000D01*
D58*
X46935000Y-71605000D02*
X45950000Y-71605000D01*
D62*
X78400000Y-60100000D02*
X77375000Y-60100000D01*
D56*
X121540000Y-58110000D02*
X121900000Y-58110000D01*
D57*
X100750000Y-76000000D02*
X103750000Y-73000000D01*
X62921500Y-66188500D02*
X62921500Y-66181500D01*
D56*
X116450000Y-53030000D02*
X121530000Y-58110000D01*
D57*
X98662500Y-73837500D02*
X98662500Y-71112500D01*
D56*
X116500012Y-53159987D02*
X115629987Y-53159987D01*
X33229999Y-29430000D02*
X33799999Y-30000000D01*
D57*
X64950000Y-64160000D02*
X64950000Y-62850000D01*
D58*
X98500000Y-67750000D02*
X98250000Y-67500000D01*
D56*
X37677500Y-68035000D02*
X35420000Y-68035000D01*
X45375000Y-35895000D02*
X45630000Y-36150000D01*
X116480000Y-53030000D02*
X121560000Y-47950000D01*
X45375000Y-35500000D02*
X45375000Y-35895000D01*
X120200000Y-82110000D02*
X121600000Y-83510000D01*
D57*
X43190000Y-84500000D02*
X43200000Y-84490000D01*
X28000000Y-94020000D02*
X28000000Y-92500000D01*
X90162500Y-76000000D02*
X90162500Y-73837500D01*
X37500000Y-93500000D02*
X37600000Y-93500000D01*
D58*
X100750000Y-80500000D02*
X104050000Y-80500000D01*
D62*
X77025000Y-59700000D02*
X77000000Y-59725000D01*
X75000000Y-58275000D02*
X75550000Y-58275000D01*
D57*
X67950000Y-90655000D02*
X62945000Y-90655000D01*
X36499999Y-47500001D02*
X34000000Y-50000000D01*
X102740000Y-25560000D02*
X105187042Y-25560000D01*
X87810000Y-25710000D02*
X84040000Y-25710000D01*
D62*
X78600000Y-59300000D02*
X79000000Y-59700000D01*
D58*
X50995000Y-77955000D02*
X50050000Y-77955000D01*
D57*
X78225000Y-85985000D02*
X78220000Y-85990000D01*
D56*
X121900000Y-42870000D02*
X121900000Y-45410000D01*
X121490000Y-45410000D02*
X117900000Y-49000000D01*
X53000000Y-96499990D02*
X53499992Y-95999998D01*
X53750000Y-96250000D02*
X54230000Y-96730000D01*
D62*
X78400000Y-56400000D02*
X77375000Y-56400000D01*
D58*
X92940000Y-68000000D02*
X92930000Y-67990000D01*
D56*
X39700000Y-34900000D02*
X40400000Y-35600000D01*
D57*
X40200000Y-48000000D02*
X40190000Y-47990000D01*
X80775000Y-78999992D02*
X80775000Y-78005000D01*
D56*
X39700000Y-34900000D02*
X39700000Y-35600000D01*
D57*
X79175000Y-85000004D02*
X79175000Y-85985000D01*
D62*
X79000000Y-56800000D02*
X78800000Y-56800000D01*
X78975000Y-56775000D02*
X79000000Y-56800000D01*
D56*
X41100000Y-34900000D02*
X42150000Y-34900000D01*
D62*
X78800000Y-56800000D02*
X78400000Y-57200000D01*
D57*
X79175000Y-85985000D02*
X78225000Y-85985000D01*
D58*
X87175000Y-69250000D02*
X87175000Y-69515000D01*
D56*
X53000000Y-97000000D02*
X53750000Y-96250000D01*
X40400000Y-34151500D02*
X40400000Y-34900000D01*
X92930000Y-67990000D02*
X91970000Y-67990000D01*
X41100000Y-34900000D02*
X41250000Y-34900000D01*
X117900000Y-49000000D02*
X113500000Y-49000000D01*
X72050000Y-56365000D02*
X74640000Y-56365000D01*
D57*
X67950000Y-56365000D02*
X68248521Y-56066479D01*
D56*
X40400000Y-34200000D02*
X41100000Y-34900000D01*
X41250000Y-34900000D02*
X41700000Y-35350000D01*
D62*
X77375000Y-56400000D02*
X77000000Y-56775000D01*
D56*
X55550000Y-97000000D02*
X55850000Y-97300000D01*
X72050000Y-56365000D02*
X71975000Y-56290000D01*
X40400000Y-35600000D02*
X41100000Y-34900000D01*
D57*
X71751479Y-56066479D02*
X72050000Y-56365000D01*
X80950000Y-79174992D02*
X80775000Y-78999992D01*
D62*
X78800000Y-56800000D02*
X78400000Y-56400000D01*
D57*
X87175000Y-69515000D02*
X87940000Y-70280000D01*
D56*
X39700000Y-35600000D02*
X41100000Y-35600000D01*
X54000000Y-97000000D02*
X55550000Y-97000000D01*
D62*
X76950000Y-56725000D02*
X77000000Y-56775000D01*
D56*
X53000000Y-97000000D02*
X53000000Y-96499990D01*
X41175000Y-48000000D02*
X40200000Y-48000000D01*
D62*
X77000000Y-56775000D02*
X78975000Y-56775000D01*
D57*
X68248521Y-56066479D02*
X71751479Y-56066479D01*
D56*
X42325000Y-35600000D02*
X42425000Y-35500000D01*
X53250000Y-96750000D02*
X53750000Y-96750000D01*
X40400000Y-34200000D02*
X39700000Y-34900000D01*
X54230000Y-96730000D02*
X55280000Y-96730000D01*
X121900000Y-45410000D02*
X121490000Y-45410000D01*
D57*
X80775000Y-78005000D02*
X80770000Y-78000000D01*
D56*
X113500000Y-49000000D02*
X113500000Y-46525000D01*
X54000000Y-96500006D02*
X53499992Y-95999998D01*
X41100000Y-35600000D02*
X42325000Y-35600000D01*
X40400000Y-34151500D02*
X40400000Y-34200000D01*
X40400000Y-34900000D02*
X40400000Y-35600000D01*
D62*
X75000000Y-56725000D02*
X76950000Y-56725000D01*
X78400000Y-57200000D02*
X77425000Y-57200000D01*
D56*
X113500000Y-46525000D02*
X114000000Y-46025000D01*
X53000000Y-97000000D02*
X54000000Y-97000000D01*
X41100000Y-34900000D02*
X41100000Y-35600000D01*
X54000000Y-97000000D02*
X54000000Y-96500006D01*
D62*
X77425000Y-57200000D02*
X77000000Y-56775000D01*
D57*
X79175000Y-85985000D02*
X79175000Y-87000000D01*
D56*
X42425000Y-35175000D02*
X42425000Y-35500000D01*
X53000000Y-97000000D02*
X53250000Y-96750000D01*
D57*
X80950000Y-80900000D02*
X80950000Y-79174992D01*
D56*
X74640000Y-56365000D02*
X75000000Y-56725000D01*
X39700000Y-34900000D02*
X41100000Y-34900000D01*
X42150000Y-34900000D02*
X42425000Y-35175000D01*
X55280000Y-96730000D02*
X55850000Y-97300000D01*
D57*
X121640000Y-39870000D02*
X116100000Y-45410000D01*
X119150000Y-30460000D02*
X118550000Y-31060000D01*
X118550000Y-31970000D02*
X121640000Y-35060000D01*
X118550000Y-31060000D02*
X118550000Y-31970000D01*
X121640000Y-35060000D02*
X121640000Y-39870000D01*
X121080000Y-30460000D02*
X119150000Y-30460000D01*
X122120000Y-31500000D02*
X121080000Y-30460000D01*
X122400000Y-34320000D02*
X122400000Y-40010000D01*
X119959733Y-44090267D02*
X116100000Y-47950000D01*
X119959733Y-42450267D02*
X119959733Y-44090267D01*
X119580000Y-31500000D02*
X122400000Y-34320000D01*
X122400000Y-40010000D02*
X119959733Y-42450267D01*
D58*
X80950000Y-84875004D02*
X80950000Y-83100000D01*
X80950000Y-83100000D02*
X80950000Y-82900000D01*
X80950000Y-82900000D02*
X84350000Y-79500000D01*
X84350000Y-79500000D02*
X86500000Y-79500000D01*
X80825000Y-85000004D02*
X80950000Y-84875004D01*
X82500000Y-83640000D02*
X83640000Y-82500000D01*
X83640000Y-82500000D02*
X86500000Y-82500000D01*
X82500000Y-85325000D02*
X82500000Y-83640000D01*
X79050000Y-83100000D02*
X79050000Y-83440000D01*
X79970000Y-84360000D02*
X79970000Y-86145000D01*
X79970000Y-86145000D02*
X80825000Y-87000000D01*
X79050000Y-83440000D02*
X79970000Y-84360000D01*
X80825000Y-87000000D02*
X82500000Y-85325000D01*
D59*
X45950000Y-63985000D02*
X44190000Y-63985000D01*
X45950000Y-65255000D02*
X44185000Y-65255000D01*
X44185000Y-65255000D02*
X44180000Y-65260000D01*
X53580000Y-61060000D02*
X53580000Y-48595000D01*
X54175000Y-48000000D02*
X54175000Y-46935001D01*
X53580000Y-48595000D02*
X54175000Y-48000000D01*
X54175000Y-46935001D02*
X56250001Y-44860000D01*
X50050000Y-62715000D02*
X51925000Y-62715000D01*
X51925000Y-62715000D02*
X53580000Y-61060000D01*
X51725000Y-63985000D02*
X54015000Y-61695000D01*
X54175000Y-49500000D02*
X54910000Y-48765000D01*
X54175000Y-61535000D02*
X54015000Y-61695000D01*
X54175000Y-49500000D02*
X54175000Y-61535000D01*
X54910000Y-47030000D02*
X55795000Y-46145000D01*
X54910000Y-48765000D02*
X54910000Y-47030000D01*
X50050000Y-63985000D02*
X51725000Y-63985000D01*
D58*
X104419989Y-79500011D02*
X104420000Y-79500000D01*
X102824995Y-79500011D02*
X104419989Y-79500011D01*
X102824995Y-82000011D02*
X104419989Y-82000011D01*
X104419989Y-82000011D02*
X104420000Y-82000000D01*
X102824995Y-78500011D02*
X104019989Y-78500011D01*
X104019989Y-78500011D02*
X104420000Y-78100000D01*
X104069989Y-83000011D02*
X104070000Y-83000000D01*
D57*
X106500000Y-83000000D02*
X104070000Y-83000000D01*
D58*
X102824995Y-83000011D02*
X104069989Y-83000011D01*
D57*
X107050000Y-79300000D02*
X107050000Y-82450000D01*
X104430000Y-78790000D02*
X106540000Y-78790000D01*
X106540000Y-78790000D02*
X107050000Y-79300000D01*
D58*
X104430000Y-78790000D02*
X104420000Y-78800000D01*
D57*
X107050000Y-82450000D02*
X106500000Y-83000000D01*
D59*
X47515000Y-57635000D02*
X45950000Y-57635000D01*
X47760000Y-57880000D02*
X47515000Y-57635000D01*
X45925000Y-58880000D02*
X44920000Y-58880000D01*
X45950000Y-58905000D02*
X45925000Y-58880000D01*
X44920000Y-58880000D02*
X44540000Y-59260000D01*
X44540000Y-59260000D02*
X38330000Y-59260000D01*
X38330000Y-59260000D02*
X38310000Y-59240000D01*
X51740000Y-58910000D02*
X51735000Y-58905000D01*
X51735000Y-58905000D02*
X50050000Y-58905000D01*
X48550000Y-59660000D02*
X37900000Y-59660000D01*
X37900000Y-59660000D02*
X37870000Y-59690000D01*
X50050000Y-60175000D02*
X49065000Y-60175000D01*
X49065000Y-60175000D02*
X48550000Y-59660000D01*
X45950000Y-61445000D02*
X46865000Y-61445000D01*
X52180000Y-61920000D02*
X52180000Y-61530000D01*
X51800000Y-61150000D02*
X51740000Y-61150000D01*
X52180000Y-61530000D02*
X51800000Y-61150000D01*
X51930000Y-62170000D02*
X52180000Y-61920000D01*
X47590000Y-62170000D02*
X51930000Y-62170000D01*
X46865000Y-61445000D02*
X47590000Y-62170000D01*
X51740000Y-61750000D02*
X51435000Y-61445000D01*
X51435000Y-61445000D02*
X50050000Y-61445000D01*
D57*
X40630000Y-32380000D02*
X41340000Y-32380000D01*
X36100000Y-35950000D02*
X37675000Y-35950000D01*
X38760000Y-34250000D02*
X40630000Y-32380000D01*
X37800000Y-35825000D02*
X38760000Y-34865000D01*
X38760000Y-34865000D02*
X38760000Y-34250000D01*
X41340000Y-32380000D02*
X41350000Y-32370000D01*
X37675000Y-35950000D02*
X37800000Y-35825000D01*
D58*
X28500000Y-39750000D02*
X27320000Y-38570000D01*
X25230000Y-39200000D02*
X25230000Y-41060000D01*
D57*
X34419022Y-34050000D02*
X35000000Y-34630978D01*
D58*
X25860000Y-38570000D02*
X25230000Y-39200000D01*
X27320000Y-38570000D02*
X25860000Y-38570000D01*
D57*
X36500000Y-39750000D02*
X28500000Y-39750000D01*
X35000000Y-34630978D02*
X35000000Y-38250000D01*
X35000000Y-38250000D02*
X36500000Y-39750000D01*
D58*
X25230000Y-41060000D02*
X26250000Y-42080000D01*
D59*
X41970000Y-68395000D02*
X41970000Y-68910000D01*
X41325000Y-67750000D02*
X41970000Y-68395000D01*
D58*
X42825000Y-48000000D02*
X46380000Y-48000000D01*
D57*
X42780000Y-48000000D02*
X41280000Y-49500000D01*
D58*
X46380000Y-48000000D02*
X48690000Y-45690000D01*
D57*
X39500000Y-39750000D02*
X47500000Y-39750000D01*
D58*
X27490000Y-40780000D02*
X38470000Y-40780000D01*
X26250000Y-39540000D02*
X27490000Y-40780000D01*
X38470000Y-40780000D02*
X39500000Y-39750000D01*
X48690000Y-45690000D02*
X48690000Y-40940000D01*
X41280000Y-49500000D02*
X41175000Y-49500000D01*
X48690000Y-40940000D02*
X47500000Y-39750000D01*
X42825000Y-48000000D02*
X42780000Y-48000000D01*
D62*
X110500000Y-35750000D02*
X112000000Y-34250000D01*
X115520000Y-27000000D02*
X117000000Y-27000000D01*
X112000000Y-30520000D02*
X115520000Y-27000000D01*
X112000000Y-34250000D02*
X112000000Y-30520000D01*
G04 #@! TA.AperFunction,Conductor*
G36*
X89098964Y-75610533D02*
G01*
X89121984Y-75638582D01*
X89125540Y-75674693D01*
X89108435Y-75706694D01*
X88927723Y-75887405D01*
X88897472Y-75902822D01*
X88897683Y-75903471D01*
X88893593Y-75904799D01*
X88893318Y-75904940D01*
X88893012Y-75904988D01*
X88893007Y-75904989D01*
X88888149Y-75905759D01*
X88883770Y-75907989D01*
X88883764Y-75907992D01*
X88791626Y-75954939D01*
X88791620Y-75954943D01*
X88787248Y-75957171D01*
X88783774Y-75960644D01*
X88783771Y-75960647D01*
X88710647Y-76033771D01*
X88710644Y-76033774D01*
X88707171Y-76037248D01*
X88704943Y-76041620D01*
X88704939Y-76041626D01*
X88657991Y-76133767D01*
X88657989Y-76133771D01*
X88655759Y-76138149D01*
X88654990Y-76142999D01*
X88654989Y-76143005D01*
X88639872Y-76238455D01*
X88638044Y-76250000D01*
X88638813Y-76254855D01*
X88654989Y-76356994D01*
X88654990Y-76356998D01*
X88655759Y-76361851D01*
X88657990Y-76366230D01*
X88657991Y-76366232D01*
X88704939Y-76458373D01*
X88704941Y-76458376D01*
X88707171Y-76462752D01*
X88787248Y-76542829D01*
X88791624Y-76545059D01*
X88791626Y-76545060D01*
X88841043Y-76570239D01*
X88888149Y-76594241D01*
X89000000Y-76611956D01*
X89111851Y-76594241D01*
X89212752Y-76542829D01*
X89292829Y-76462752D01*
X89344241Y-76361851D01*
X89345056Y-76356700D01*
X89345189Y-76356439D01*
X89346530Y-76352314D01*
X89347183Y-76352526D01*
X89362592Y-76322276D01*
X89839967Y-75844902D01*
X89846034Y-75839623D01*
X89851020Y-75837141D01*
X89883995Y-75800967D01*
X89885971Y-75798899D01*
X89898033Y-75786838D01*
X89898033Y-75786837D01*
X89900082Y-75784789D01*
X89901717Y-75782400D01*
X89901890Y-75782193D01*
X89907041Y-75775686D01*
X89928470Y-75752182D01*
X89933728Y-75738610D01*
X89940447Y-75725862D01*
X89945398Y-75718635D01*
X89945398Y-75718634D01*
X89948671Y-75713857D01*
X89955949Y-75682908D01*
X89958510Y-75674639D01*
X89970000Y-75644982D01*
X89971087Y-75645403D01*
X89989297Y-75614417D01*
X90029225Y-75600000D01*
X93437500Y-75600000D01*
X93481694Y-75618306D01*
X93500000Y-75662500D01*
X93500000Y-77850000D01*
X100937500Y-77850000D01*
X100981694Y-77868306D01*
X101000000Y-77912500D01*
X101000000Y-80729485D01*
X100991073Y-80761675D01*
X100966843Y-80784669D01*
X100934230Y-80791899D01*
X100911778Y-80790722D01*
X100911773Y-80790722D01*
X100905215Y-80790379D01*
X100882625Y-80799049D01*
X100873228Y-80801833D01*
X100855981Y-80805499D01*
X100855978Y-80805500D01*
X100849558Y-80806865D01*
X100844247Y-80810722D01*
X100844243Y-80810725D01*
X100841971Y-80812376D01*
X100827644Y-80820154D01*
X100825030Y-80821157D01*
X100825023Y-80821161D01*
X100818895Y-80823514D01*
X100814251Y-80828157D01*
X100814252Y-80828157D01*
X100801787Y-80840621D01*
X100794335Y-80846985D01*
X100780069Y-80857350D01*
X100780063Y-80857355D01*
X100774755Y-80861213D01*
X100771471Y-80866898D01*
X100771471Y-80866900D01*
X100770067Y-80869332D01*
X100760138Y-80882269D01*
X100579449Y-81062958D01*
X100554569Y-81078205D01*
X100525480Y-81080495D01*
X100514858Y-81078813D01*
X100514855Y-81078813D01*
X100510000Y-81078044D01*
X100505145Y-81078813D01*
X100403005Y-81094989D01*
X100402999Y-81094990D01*
X100398149Y-81095759D01*
X100393771Y-81097989D01*
X100393767Y-81097991D01*
X100301626Y-81144939D01*
X100301620Y-81144943D01*
X100297248Y-81147171D01*
X100293774Y-81150644D01*
X100293771Y-81150647D01*
X100220647Y-81223771D01*
X100220644Y-81223774D01*
X100217171Y-81227248D01*
X100214943Y-81231620D01*
X100214939Y-81231626D01*
X100167991Y-81323767D01*
X100167989Y-81323771D01*
X100165759Y-81328149D01*
X100164990Y-81332999D01*
X100164989Y-81333005D01*
X100159044Y-81370545D01*
X100148044Y-81440000D01*
X100148813Y-81444855D01*
X100164989Y-81546994D01*
X100164990Y-81546998D01*
X100165759Y-81551851D01*
X100167990Y-81556230D01*
X100167991Y-81556232D01*
X100214939Y-81648373D01*
X100214941Y-81648376D01*
X100217171Y-81652752D01*
X100297248Y-81732829D01*
X100301624Y-81735059D01*
X100301626Y-81735060D01*
X100351043Y-81760239D01*
X100398149Y-81784241D01*
X100510000Y-81801956D01*
X100621851Y-81784241D01*
X100722752Y-81732829D01*
X100802829Y-81652752D01*
X100854241Y-81551851D01*
X100871956Y-81440000D01*
X100869504Y-81424520D01*
X100871794Y-81395428D01*
X100887039Y-81370550D01*
X100893311Y-81364279D01*
X100937503Y-81345978D01*
X100981695Y-81364285D01*
X101000000Y-81408478D01*
X101000000Y-85991159D01*
X100983395Y-86033584D01*
X100942404Y-86053466D01*
X100898806Y-86040241D01*
X100875769Y-86000936D01*
X100865010Y-85933005D01*
X100864241Y-85928149D01*
X100812829Y-85827248D01*
X100732752Y-85747171D01*
X100728376Y-85744941D01*
X100728373Y-85744939D01*
X100636232Y-85697991D01*
X100636230Y-85697990D01*
X100631851Y-85695759D01*
X100626998Y-85694990D01*
X100626994Y-85694989D01*
X100524855Y-85678813D01*
X100520000Y-85678044D01*
X100515145Y-85678813D01*
X100413005Y-85694989D01*
X100412999Y-85694990D01*
X100408149Y-85695759D01*
X100403771Y-85697989D01*
X100403767Y-85697991D01*
X100311626Y-85744939D01*
X100311620Y-85744943D01*
X100307248Y-85747171D01*
X100303774Y-85750644D01*
X100303771Y-85750647D01*
X100230647Y-85823771D01*
X100230644Y-85823774D01*
X100227171Y-85827248D01*
X100224943Y-85831620D01*
X100224939Y-85831626D01*
X100177991Y-85923767D01*
X100177989Y-85923771D01*
X100175759Y-85928149D01*
X100174990Y-85932999D01*
X100174989Y-85933005D01*
X100165779Y-85991159D01*
X100158044Y-86040000D01*
X100158813Y-86044855D01*
X100174989Y-86146994D01*
X100174990Y-86146998D01*
X100175759Y-86151851D01*
X100177990Y-86156230D01*
X100177991Y-86156232D01*
X100224939Y-86248373D01*
X100224941Y-86248376D01*
X100227171Y-86252752D01*
X100307248Y-86332829D01*
X100311624Y-86335059D01*
X100311626Y-86335060D01*
X100361043Y-86360239D01*
X100408149Y-86384241D01*
X100520000Y-86401956D01*
X100535478Y-86399504D01*
X100564567Y-86401793D01*
X100589449Y-86417040D01*
X100821018Y-86648609D01*
X100823270Y-86650982D01*
X100849301Y-86679892D01*
X100871403Y-86689732D01*
X100880018Y-86694410D01*
X100894805Y-86704013D01*
X100894807Y-86704013D01*
X100900314Y-86707590D01*
X100906800Y-86708617D01*
X100909559Y-86709054D01*
X100925210Y-86713689D01*
X100933769Y-86717500D01*
X100940338Y-86717500D01*
X100946764Y-86718866D01*
X100946281Y-86721137D01*
X100981694Y-86735806D01*
X101000000Y-86780000D01*
X101000000Y-88187500D01*
X100981694Y-88231694D01*
X100937500Y-88250000D01*
X88362500Y-88250000D01*
X88318306Y-88231694D01*
X88300000Y-88187500D01*
X88300000Y-84280000D01*
X88318306Y-84235806D01*
X88362500Y-84217500D01*
X88362683Y-84217500D01*
X88365954Y-84217586D01*
X88404785Y-84219621D01*
X88427381Y-84210946D01*
X88436757Y-84208168D01*
X88460442Y-84203135D01*
X88468016Y-84197631D01*
X88482362Y-84189842D01*
X88484972Y-84188840D01*
X88484972Y-84188839D01*
X88491105Y-84186486D01*
X88508221Y-84169368D01*
X88515666Y-84163011D01*
X88535245Y-84148787D01*
X88539928Y-84140673D01*
X88549859Y-84127730D01*
X88902336Y-83775253D01*
X88936750Y-83757718D01*
X89021851Y-83744241D01*
X89122752Y-83692829D01*
X89202829Y-83612752D01*
X89254241Y-83511851D01*
X89271956Y-83400000D01*
X89254241Y-83288149D01*
X89202829Y-83187248D01*
X89122752Y-83107171D01*
X89118376Y-83104941D01*
X89118373Y-83104939D01*
X89026232Y-83057991D01*
X89026230Y-83057990D01*
X89021851Y-83055759D01*
X89016998Y-83054990D01*
X89016994Y-83054989D01*
X88914855Y-83038813D01*
X88910000Y-83038044D01*
X88905145Y-83038813D01*
X88803005Y-83054989D01*
X88802999Y-83054990D01*
X88798149Y-83055759D01*
X88793771Y-83057989D01*
X88793767Y-83057991D01*
X88701626Y-83104939D01*
X88701620Y-83104943D01*
X88697248Y-83107171D01*
X88693774Y-83110644D01*
X88693771Y-83110647D01*
X88620647Y-83183771D01*
X88620644Y-83183774D01*
X88617171Y-83187248D01*
X88614943Y-83191620D01*
X88614939Y-83191626D01*
X88567991Y-83283767D01*
X88567989Y-83283771D01*
X88565759Y-83288149D01*
X88564990Y-83292999D01*
X88564989Y-83293005D01*
X88549872Y-83388455D01*
X88548044Y-83400000D01*
X88548813Y-83404855D01*
X88548813Y-83404857D01*
X88558698Y-83467275D01*
X88556408Y-83496365D01*
X88541161Y-83521245D01*
X88406693Y-83655715D01*
X88374693Y-83672819D01*
X88338583Y-83669263D01*
X88310533Y-83646243D01*
X88300000Y-83611520D01*
X88300000Y-75662500D01*
X88318306Y-75618306D01*
X88362500Y-75600000D01*
X89064241Y-75600000D01*
X89098964Y-75610533D01*
G37*
G04 #@! TD.AperFunction*
G04 #@! TA.AperFunction,Conductor*
G36*
X100937000Y-75616881D02*
G01*
X100983119Y-75663000D01*
X101000000Y-75726000D01*
X101000000Y-77024000D01*
X100983119Y-77087000D01*
X100937000Y-77133119D01*
X100874000Y-77150000D01*
X94326000Y-77150000D01*
X94263000Y-77133119D01*
X94216881Y-77087000D01*
X94200000Y-77024000D01*
X94200000Y-75726000D01*
X94216881Y-75663000D01*
X94263000Y-75616881D01*
X94326000Y-75600000D01*
X100874000Y-75600000D01*
X100937000Y-75616881D01*
G37*
G04 #@! TD.AperFunction*
M02*
